<?xml version="1.0" encoding="UTF-8" standalone="no"?>
<!DOCTYPE svg PUBLIC "-//W3C//DTD SVG 1.1//EN" "http://www.w3.org/Graphics/SVG/1.1/DTD/svg11.dtd">
<svg width="100%" height="100%" viewBox="0 0 80 83" version="1.1" xmlns="http://www.w3.org/2000/svg" xmlns:xlink="http://www.w3.org/1999/xlink" xml:space="preserve" xmlns:serif="http://www.serif.com/" style="fill-rule:evenodd;clip-rule:evenodd;stroke-linejoin:round;stroke-miterlimit:2;">
    <g transform="matrix(1,0,0,1,-537.206,-1284.18)">
        <g transform="matrix(1.00518,0,0,1.00518,-0.474488,-33.1736)">
            <g transform="matrix(-4.16667,0,0,4.16667,899.167,-1172.7)">
                <rect x="68.378" y="595.983" width="19.044" height="2.92" style="fill:rgb(0,130,155);"/>
            </g>
            <g transform="matrix(4.16667,0,0,4.16667,250,-1088.23)">
                <path d="M87.479,579.125L68.435,579.125L68.435,595.489L87.479,595.489L87.479,579.125ZM87.252,595.262L68.662,595.262L68.662,579.352L87.252,579.352L87.252,595.262Z" style="fill:rgb(0,130,155);fill-rule:nonzero;"/>
            </g>
            <g transform="matrix(-4.16667,0,0,4.16667,871.75,-1130.67)">
                <rect x="73.242" y="591.031" width="2.736" height="2.737" style="fill:rgb(0,130,155);"/>
            </g>
            <g transform="matrix(-4.16667,0,0,4.16667,899.462,-1130.67)">
                <rect x="76.567" y="591.031" width="2.737" height="2.737" style="fill:rgb(0,130,155);"/>
            </g>
            <g transform="matrix(-4.16667,0,0,4.16667,927.379,-1130.67)">
                <rect x="79.917" y="591.031" width="2.737" height="2.737" style="fill:rgb(0,130,155);"/>
            </g>
            <g transform="matrix(-4.16667,0,0,4.16667,954.9,-1130.67)">
                <rect x="83.22" y="591.031" width="2.736" height="2.737" style="fill:rgb(0,130,155);"/>
            </g>
            <g transform="matrix(-4.16667,0,0,4.16667,871.75,-1102.42)">
                <rect x="73.242" y="587.641" width="2.736" height="2.737" style="fill:rgb(0,130,155);"/>
            </g>
            <g transform="matrix(-4.16667,0,0,4.16667,899.462,-1102.42)">
                <rect x="76.567" y="587.641" width="2.737" height="2.737" style="fill:rgb(0,130,155);"/>
            </g>
            <g transform="matrix(-4.16667,0,0,4.16667,927.379,-1102.42)">
                <rect x="79.917" y="587.641" width="2.737" height="2.737" style="fill:rgb(0,130,155);"/>
            </g>
            <g transform="matrix(-4.16667,0,0,4.16667,954.9,-1102.42)">
                <rect x="83.22" y="587.641" width="2.736" height="2.737" style="fill:rgb(0,130,155);"/>
            </g>
            <g transform="matrix(-4.16667,0,0,4.16667,871.75,-1075.07)">
                <rect x="73.242" y="584.359" width="2.736" height="2.737" style="fill:rgb(0,130,155);"/>
            </g>
            <g transform="matrix(-4.16667,0,0,4.16667,899.462,-1075.07)">
                <rect x="76.567" y="584.359" width="2.737" height="2.737" style="fill:rgb(0,130,155);"/>
            </g>
            <g transform="matrix(-4.16667,0,0,4.16667,927.379,-1075.07)">
                <rect x="79.917" y="584.359" width="2.737" height="2.737" style="fill:rgb(0,130,155);"/>
            </g>
            <g transform="matrix(-4.16667,0,0,4.16667,954.9,-1075.07)">
                <rect x="83.22" y="584.359" width="2.736" height="2.737" style="fill:rgb(0,130,155);"/>
            </g>
            <g transform="matrix(-4.16667,0,0,4.16667,871.75,-1045.91)">
                <rect x="73.242" y="580.86" width="2.736" height="2.737" style="fill:rgb(0,130,155);"/>
            </g>
            <g transform="matrix(-4.16667,0,0,4.16667,899.462,-1045.91)">
                <rect x="76.567" y="580.86" width="2.737" height="2.737" style="fill:rgb(0,130,155);"/>
            </g>
            <g transform="matrix(-4.16667,0,0,4.16667,844.029,-1075.07)">
                <rect x="69.915" y="584.359" width="2.737" height="2.737" style="fill:rgb(0,130,155);"/>
            </g>
            <g transform="matrix(-4.16667,0,0,4.16667,844.029,-1045.91)">
                <rect x="69.915" y="580.86" width="2.737" height="2.737" style="fill:rgb(0,130,155);"/>
            </g>
            <g transform="matrix(-4.16667,0,0,4.16667,844.029,-1102.42)">
                <rect x="69.915" y="587.641" width="2.737" height="2.737" style="fill:rgb(0,130,155);"/>
            </g>
        </g>
    </g>
</svg>
