<?xml version="1.0" encoding="UTF-8" standalone="no"?>
<!DOCTYPE svg PUBLIC "-//W3C//DTD SVG 1.1//EN" "http://www.w3.org/Graphics/SVG/1.1/DTD/svg11.dtd">
<svg width="100%" height="100%" viewBox="0 0 80 62" version="1.1" xmlns="http://www.w3.org/2000/svg" xmlns:xlink="http://www.w3.org/1999/xlink" xml:space="preserve" xmlns:serif="http://www.serif.com/" style="fill-rule:evenodd;clip-rule:evenodd;stroke-linejoin:round;stroke-miterlimit:2;">
    <g transform="matrix(1,0,0,1,-283,-1296.43)">
        <g transform="matrix(1.00299,0,0,1.19969,-254.048,-270.759)">
            <g transform="matrix(1.20126,0,0,1.114,184.915,-163.472)">
                <g transform="matrix(0,-2.68667,-2.68667,0,297.728,1319.39)">
                    <path d="M-2.206,-2.206C-3.425,-2.206 -4.412,-1.219 -4.412,0C-4.412,1.218 -3.425,2.206 -2.206,2.206C-0.987,2.206 0,1.218 0,0C0,-1.219 -0.987,-2.206 -2.206,-2.206" style="fill:rgb(0,130,155);fill-rule:nonzero;"/>
                </g>
                <g transform="matrix(0,-2.68667,-2.68667,0,298.043,1336.73)">
                    <path d="M-2.206,-2.206C-3.424,-2.206 -4.412,-1.219 -4.412,0C-4.412,1.218 -3.424,2.206 -2.206,2.206C-0.987,2.206 0,1.218 0,0C0,-1.219 -0.987,-2.206 -2.206,-2.206" style="fill:rgb(0,130,155);fill-rule:nonzero;"/>
                </g>
                <g transform="matrix(0,-2.68667,-2.68667,0,297.728,1353.31)">
                    <path d="M-2.206,-2.206C-3.424,-2.206 -4.412,-1.219 -4.412,0C-4.412,1.218 -3.424,2.206 -2.206,2.206C-0.987,2.206 0,1.218 0,0C0,-1.219 -0.987,-2.206 -2.206,-2.206" style="fill:rgb(0,130,155);fill-rule:nonzero;"/>
                </g>
                <g transform="matrix(0,-2.68667,-2.68667,0,314.312,1319.39)">
                    <path d="M-2.206,-2.206C-3.425,-2.206 -4.412,-1.219 -4.412,0C-4.412,1.218 -3.425,2.206 -2.206,2.206C-0.987,2.206 0,1.218 0,0C0,-1.219 -0.987,-2.206 -2.206,-2.206" style="fill:rgb(0,130,155);fill-rule:nonzero;"/>
                </g>
                <g transform="matrix(0,-2.68667,-2.68667,0,314.312,1340.16)">
                    <path d="M-0.928,-0.928C-1.44,-0.928 -1.855,-0.511 -1.855,-0C-1.855,0.513 -1.44,0.928 -0.928,0.928C-0.416,0.928 -0,0.513 -0,-0C-0,-0.511 -0.416,-0.928 -0.928,-0.928" style="fill:rgb(0,130,155);fill-rule:nonzero;"/>
                </g>
                <g transform="matrix(0,-2.68667,-2.68667,0,314.312,1356.75)">
                    <path d="M-0.928,-0.928C-1.44,-0.928 -1.855,-0.511 -1.855,-0C-1.855,0.513 -1.44,0.928 -0.928,0.928C-0.414,0.928 -0,0.513 -0,-0C-0,-0.511 -0.414,-0.928 -0.928,-0.928" style="fill:rgb(0,130,155);fill-rule:nonzero;"/>
                </g>
                <g transform="matrix(0,-2.68667,-2.68667,0,352.271,1356.75)">
                    <path d="M-0.928,-0.928C-1.44,-0.928 -1.855,-0.511 -1.855,-0C-1.855,0.511 -1.44,0.928 -0.928,0.928C-0.414,0.928 -0,0.511 -0,-0C-0,-0.511 -0.414,-0.928 -0.928,-0.928" style="fill:rgb(0,130,155);fill-rule:nonzero;"/>
                </g>
                <g transform="matrix(0,-2.68667,-2.68667,0,352.271,1339.5)">
                    <path d="M-0.928,-0.928C-1.441,-0.928 -1.855,-0.511 -1.855,-0C-1.855,0.511 -1.441,0.928 -0.928,0.928C-0.416,0.928 -0,0.511 -0,-0C-0,-0.511 -0.416,-0.928 -0.928,-0.928" style="fill:rgb(0,130,155);fill-rule:nonzero;"/>
                </g>
                <g transform="matrix(0,-2.68667,-2.68667,0,335.94,1322.82)">
                    <path d="M-0.928,-0.928C-1.44,-0.928 -1.855,-0.511 -1.855,-0C-1.855,0.513 -1.44,0.928 -0.928,0.928C-0.416,0.928 -0,0.513 -0,-0C-0,-0.511 -0.416,-0.928 -0.928,-0.928" style="fill:rgb(0,130,155);fill-rule:nonzero;"/>
                </g>
                <g transform="matrix(0,-2.68667,-2.68667,0,335.94,1336.73)">
                    <path d="M-2.206,-2.206C-3.424,-2.206 -4.412,-1.219 -4.412,0C-4.412,1.218 -3.424,2.206 -2.206,2.206C-0.987,2.206 0,1.218 0,0C0,-1.219 -0.987,-2.206 -2.206,-2.206" style="fill:rgb(0,130,155);fill-rule:nonzero;"/>
                </g>
                <g transform="matrix(0,-2.68667,-2.68667,0,352.272,1319.39)">
                    <path d="M-2.206,-2.206C-3.425,-2.206 -4.412,-1.218 -4.412,0C-4.412,1.219 -3.425,2.206 -2.206,2.206C-0.987,2.206 0,1.219 0,0C0,-1.218 -0.987,-2.206 -2.206,-2.206" style="fill:rgb(0,130,155);fill-rule:nonzero;"/>
                </g>
                <g transform="matrix(0,-2.68667,-2.68667,0,335.94,1353.31)">
                    <path d="M-2.206,-2.206C-3.424,-2.206 -4.412,-1.219 -4.412,0C-4.412,1.218 -3.424,2.206 -2.206,2.206C-0.987,2.206 0,1.218 0,0C0,-1.219 -0.987,-2.206 -2.206,-2.206" style="fill:rgb(0,130,155);fill-rule:nonzero;"/>
                </g>
            </g>
        </g>
    </g>
</svg>
