<?xml version="1.0" encoding="UTF-8" standalone="no"?>
<!DOCTYPE svg PUBLIC "-//W3C//DTD SVG 1.1//EN" "http://www.w3.org/Graphics/SVG/1.1/DTD/svg11.dtd">
<svg width="100%" height="100%" viewBox="0 0 71 80" version="1.1" xmlns="http://www.w3.org/2000/svg" xmlns:xlink="http://www.w3.org/1999/xlink" xml:space="preserve" xmlns:serif="http://www.serif.com/" style="fill-rule:evenodd;clip-rule:evenodd;stroke-linejoin:round;stroke-miterlimit:2;">
    <g transform="matrix(1,0,0,1,-416.758,-1540.49)">
        <g transform="matrix(1.00299,0,0,1.19969,-125.048,-17.962)">
            <g transform="matrix(0.969722,0,0,0.810729,262.126,40.0521)">
                <g transform="matrix(3.54164,0,0,3.61698,309.549,1603.15)">
                    <path d="M0,4.823C-1.331,4.823 -2.411,3.744 -2.411,2.412C-2.411,1.08 -1.331,0.001 0,0.001C1.332,0.001 2.412,1.08 2.412,2.412C2.412,3.744 1.332,4.823 0,4.823M6.09,1.865L5.499,1.717C5.197,1.641 4.963,1.408 4.883,1.109C4.882,1.105 4.881,1.101 4.881,1.099C4.8,0.799 4.886,0.481 5.109,0.265L5.548,-0.16C5.7,-0.306 5.733,-0.538 5.627,-0.721L5.526,-0.895C5.421,-1.078 5.204,-1.166 5.001,-1.108L4.418,-0.941C4.119,-0.855 3.799,-0.941 3.579,-1.16C3.576,-1.163 3.574,-1.165 3.572,-1.167C3.351,-1.387 3.267,-1.707 3.352,-2.006L3.519,-2.589C3.577,-2.793 3.489,-3.009 3.307,-3.115L3.133,-3.215C2.949,-3.321 2.719,-3.288 2.572,-3.137L2.147,-2.697C1.931,-2.474 1.613,-2.388 1.313,-2.469C1.31,-2.47 1.307,-2.471 1.303,-2.471C1.004,-2.551 0.77,-2.785 0.695,-3.086L0.547,-3.679C0.495,-3.884 0.312,-4.027 0.101,-4.027L-0.101,-4.027C-0.311,-4.027 -0.495,-3.884 -0.547,-3.679L-0.695,-3.086C-0.77,-2.785 -1.004,-2.551 -1.303,-2.471C-1.306,-2.471 -1.31,-2.47 -1.312,-2.469C-1.613,-2.388 -1.931,-2.474 -2.147,-2.697L-2.571,-3.137C-2.718,-3.288 -2.949,-3.321 -3.132,-3.215L-3.307,-3.115C-3.489,-3.009 -3.576,-2.793 -3.518,-2.589L-3.351,-2.005C-3.266,-1.706 -3.351,-1.387 -3.571,-1.168L-3.579,-1.159C-3.799,-0.94 -4.118,-0.855 -4.416,-0.941L-5.001,-1.108C-5.204,-1.166 -5.42,-1.078 -5.526,-0.895L-5.626,-0.721C-5.732,-0.538 -5.7,-0.306 -5.548,-0.16L-5.108,0.265C-4.886,0.481 -4.8,0.799 -4.88,1.099C-4.881,1.102 -4.881,1.105 -4.882,1.109C-4.962,1.408 -5.197,1.641 -5.498,1.717L-6.09,1.865C-6.295,1.915 -6.439,2.1 -6.439,2.31L-6.439,2.513C-6.439,2.724 -6.295,2.907 -6.09,2.958L-5.498,3.107C-5.197,3.182 -4.962,3.415 -4.882,3.715C-4.881,3.718 -4.881,3.721 -4.88,3.725C-4.8,4.024 -4.886,4.343 -5.108,4.558L-5.548,4.983C-5.7,5.13 -5.732,5.361 -5.626,5.544L-5.526,5.719C-5.42,5.901 -5.204,5.989 -5.001,5.931L-4.416,5.763C-4.118,5.678 -3.799,5.763 -3.579,5.982C-3.576,5.986 -3.574,5.988 -3.571,5.992C-3.351,6.211 -3.266,6.53 -3.351,6.828L-3.518,7.413C-3.576,7.615 -3.489,7.831 -3.307,7.938L-3.132,8.038C-2.949,8.144 -2.718,8.112 -2.571,7.96L-2.147,7.52C-1.931,7.298 -1.613,7.212 -1.312,7.292C-1.31,7.293 -1.306,7.293 -1.303,7.294C-1.004,7.375 -0.77,7.608 -0.695,7.909L-0.547,8.502C-0.495,8.707 -0.311,8.85 -0.101,8.85L0.101,8.85C0.312,8.85 0.495,8.707 0.547,8.502L0.696,7.908C0.77,7.608 1.003,7.375 1.302,7.295C1.305,7.294 1.309,7.293 1.311,7.292C1.612,7.212 1.931,7.298 2.148,7.522L2.572,7.96C2.719,8.112 2.949,8.144 3.133,8.038L3.307,7.938C3.489,7.831 3.577,7.615 3.519,7.413L3.352,6.829C3.267,6.53 3.351,6.211 3.572,5.991C3.574,5.988 3.576,5.986 3.579,5.983C3.799,5.763 4.119,5.678 4.418,5.764L5.001,5.931C5.204,5.989 5.421,5.901 5.526,5.719L5.627,5.544C5.733,5.361 5.7,5.13 5.548,4.983L5.109,4.558C4.886,4.343 4.8,4.024 4.881,3.725C4.881,3.721 4.882,3.718 4.883,3.715C4.963,3.415 5.197,3.182 5.499,3.107L6.09,2.958C6.295,2.907 6.439,2.724 6.439,2.513L6.439,2.31C6.439,2.1 6.295,1.915 6.09,1.865" style="fill:white;fill-rule:nonzero;"/>
                </g>
                <g transform="matrix(3.54164,0,0,3.61698,336.407,1567.48)">
                    <path d="M0,4.823C-1.332,4.823 -2.412,3.744 -2.412,2.412C-2.412,1.08 -1.332,0 0,0C1.332,0 2.411,1.08 2.411,2.412C2.411,3.744 1.332,4.823 0,4.823M6.09,1.865L5.498,1.717C5.197,1.641 4.963,1.408 4.882,1.109C4.881,1.105 4.881,1.101 4.88,1.099C4.8,0.799 4.886,0.481 5.108,0.265L5.548,-0.16C5.7,-0.307 5.732,-0.538 5.626,-0.721L5.526,-0.895C5.421,-1.078 5.204,-1.166 5.001,-1.108L4.418,-0.941C4.119,-0.855 3.799,-0.941 3.579,-1.16C3.576,-1.163 3.574,-1.166 3.572,-1.167C3.351,-1.387 3.267,-1.707 3.352,-2.006L3.518,-2.589C3.576,-2.793 3.489,-3.009 3.307,-3.115L3.132,-3.215C2.949,-3.321 2.718,-3.288 2.571,-3.137L2.147,-2.697C1.931,-2.474 1.613,-2.388 1.313,-2.469C1.31,-2.47 1.306,-2.471 1.303,-2.471C1.004,-2.551 0.77,-2.785 0.695,-3.086L0.547,-3.679C0.495,-3.884 0.312,-4.027 0.101,-4.027L-0.101,-4.027C-0.312,-4.027 -0.495,-3.884 -0.547,-3.679L-0.695,-3.086C-0.77,-2.785 -1.004,-2.551 -1.303,-2.471C-1.306,-2.471 -1.31,-2.47 -1.313,-2.469C-1.613,-2.388 -1.931,-2.474 -2.147,-2.697L-2.572,-3.137C-2.719,-3.288 -2.949,-3.321 -3.133,-3.215L-3.307,-3.115C-3.489,-3.009 -3.577,-2.793 -3.519,-2.589L-3.351,-2.005C-3.267,-1.706 -3.351,-1.387 -3.571,-1.168C-3.574,-1.166 -3.576,-1.162 -3.58,-1.159C-3.799,-0.94 -4.118,-0.855 -4.417,-0.941L-5.001,-1.108C-5.204,-1.166 -5.421,-1.078 -5.526,-0.895L-5.626,-0.721C-5.732,-0.538 -5.7,-0.307 -5.548,-0.16L-5.109,0.265C-4.886,0.481 -4.8,0.799 -4.881,1.099C-4.881,1.101 -4.882,1.105 -4.883,1.109C-4.963,1.408 -5.197,1.641 -5.498,1.717L-6.09,1.865C-6.295,1.915 -6.439,2.1 -6.439,2.31L-6.439,2.512C-6.439,2.724 -6.295,2.907 -6.09,2.958L-5.498,3.107C-5.197,3.181 -4.963,3.415 -4.883,3.715L-4.881,3.724C-4.8,4.024 -4.886,4.343 -5.109,4.558L-5.548,4.983C-5.7,5.13 -5.732,5.361 -5.626,5.544L-5.526,5.718C-5.421,5.901 -5.204,5.988 -5.001,5.93L-4.417,5.763C-4.118,5.678 -3.799,5.763 -3.58,5.982C-3.576,5.986 -3.574,5.988 -3.571,5.992C-3.351,6.211 -3.267,6.53 -3.351,6.828L-3.519,7.413C-3.577,7.615 -3.489,7.831 -3.307,7.938L-3.133,8.038C-2.949,8.144 -2.719,8.112 -2.572,7.96L-2.147,7.52C-1.931,7.298 -1.613,7.212 -1.313,7.291C-1.31,7.292 -1.306,7.293 -1.303,7.294C-1.004,7.374 -0.77,7.608 -0.695,7.909L-0.547,8.502C-0.495,8.707 -0.312,8.85 -0.101,8.85L0.101,8.85C0.312,8.85 0.495,8.707 0.547,8.502L0.696,7.908C0.77,7.608 1.003,7.375 1.302,7.295C1.305,7.294 1.308,7.293 1.311,7.292C1.612,7.212 1.931,7.298 2.148,7.521L2.571,7.96C2.718,8.112 2.949,8.144 3.132,8.038L3.307,7.938C3.489,7.831 3.576,7.615 3.518,7.413L3.352,6.829C3.267,6.53 3.351,6.21 3.572,5.991L3.579,5.983C3.799,5.763 4.119,5.678 4.418,5.764L5.001,5.93C5.204,5.988 5.421,5.901 5.526,5.718L5.626,5.544C5.732,5.361 5.7,5.13 5.548,4.983L5.108,4.558C4.886,4.343 4.8,4.024 4.88,3.725C4.881,3.721 4.881,3.718 4.882,3.715C4.963,3.415 5.197,3.181 5.498,3.107L6.09,2.958C6.295,2.907 6.439,2.724 6.439,2.512L6.439,2.31C6.439,2.1 6.295,1.915 6.09,1.865" style="fill:white;fill-rule:nonzero;"/>
                </g>
            </g>
        </g>
    </g>
</svg>
