<?xml version="1.0" encoding="UTF-8" standalone="no"?>
<!DOCTYPE svg PUBLIC "-//W3C//DTD SVG 1.1//EN" "http://www.w3.org/Graphics/SVG/1.1/DTD/svg11.dtd">
<svg width="100%" height="100%" viewBox="0 0 79 80" version="1.1" xmlns="http://www.w3.org/2000/svg" xmlns:xlink="http://www.w3.org/1999/xlink" xml:space="preserve" xmlns:serif="http://www.serif.com/" style="fill-rule:evenodd;clip-rule:evenodd;stroke-linejoin:round;stroke-miterlimit:2;">
    <g transform="matrix(1,0,0,1,-920.566,-1541.17)">
        <g transform="matrix(1.00299,0,0,1.19969,382.952,-16.6115)">
            <g transform="matrix(1.13214,0,0,0.946519,-358.687,-162.98)">
                <g transform="matrix(3.32817,0,0,3.20113,834.185,1576.91)">
                    <path d="M0,6.403C1.473,6.403 2.667,5.209 2.667,3.735L2.667,2.668C2.667,1.195 1.473,0 0,0C-1.474,0 -2.668,1.195 -2.668,2.668L-2.668,3.735C-2.668,5.209 -1.474,6.403 0,6.403" style="fill:rgb(0,130,155);fill-rule:nonzero;"/>
                </g>
                <g transform="matrix(3.32817,0,0,3.20113,852.168,1609.31)">
                    <path d="M0,-1.031C-1.423,-2.034 -3.318,-2.65 -5.403,-2.65C-7.49,-2.65 -9.384,-2.034 -10.807,-1.031C-11.097,-0.828 -11.273,-0.5 -11.273,-0.146L-11.273,1.085C-11.273,1.38 -11.033,1.619 -10.739,1.619L-0.068,1.619C0.227,1.619 0.466,1.38 0.466,1.085L0.466,-0.146C0.466,-0.5 0.289,-0.828 0,-1.031" style="fill:rgb(0,130,155);fill-rule:nonzero;"/>
                </g>
                <g transform="matrix(3.32817,0,0,3.20113,809.801,1566.93)">
                    <path d="M0,6.402C1.474,6.402 2.668,5.208 2.668,3.734L2.668,2.667C2.668,1.194 1.474,0 0,0C-1.473,0 -2.667,1.194 -2.667,2.667L-2.667,3.734C-2.667,5.208 -1.473,6.402 0,6.402" style="fill:rgb(0,130,155);fill-rule:nonzero;"/>
                </g>
                <g transform="matrix(3.32817,0,0,3.20113,829.286,1596.62)">
                    <path d="M0,0.658C-0.663,0.339 -1.205,-0.189 -1.55,-0.835C-2.792,-1.447 -4.267,-1.805 -5.854,-1.805C-7.94,-1.805 -9.835,-1.19 -11.258,-0.187C-11.547,0.017 -11.723,0.344 -11.723,0.698L-11.723,1.929C-11.723,2.224 -11.484,2.463 -11.189,2.463L-4.534,2.463C-4.479,2.413 -4.43,2.357 -4.367,2.313C-3.131,1.441 -1.615,0.875 0,0.658" style="fill:rgb(0,130,155);fill-rule:nonzero;"/>
                </g>
                <g transform="matrix(3.32817,0,0,3.20113,844.564,1559.21)">
                    <path d="M0,0.415C-0.201,0.511 -0.326,0.706 -0.326,0.922L-0.326,1.034C-0.326,1.28 -0.525,1.478 -0.77,1.478C-1.015,1.478 -1.214,1.28 -1.214,1.034L-1.214,0.922C-1.214,0.361 -0.897,-0.139 -0.386,-0.385C-0.083,-0.531 0.184,-0.885 0.103,-1.351C0.042,-1.699 -0.256,-1.998 -0.605,-2.059C-0.875,-2.106 -1.136,-2.038 -1.341,-1.866C-1.542,-1.697 -1.658,-1.449 -1.658,-1.186C-1.658,-0.941 -1.857,-0.741 -2.102,-0.741C-2.348,-0.741 -2.546,-0.941 -2.546,-1.186C-2.546,-1.712 -2.315,-2.208 -1.911,-2.546C-1.508,-2.885 -0.978,-3.026 -0.452,-2.934C0.264,-2.808 0.852,-2.219 0.978,-1.504C1.117,-0.705 0.725,0.066 0,0.415M-0.77,3.254C-1.138,3.254 -1.436,2.956 -1.436,2.588C-1.436,2.22 -1.138,1.922 -0.77,1.922C-0.402,1.922 -0.103,2.22 -0.103,2.588C-0.103,2.956 -0.402,3.254 -0.77,3.254M-0.77,-4.738C-4.231,-4.738 -6.097,-2.221 -6.097,0.146C-6.097,0.785 -5.958,1.434 -5.691,2.041C-5.567,2.323 -5.58,2.646 -5.724,2.918L-6.489,4.379C-6.682,4.746 -6.31,5.153 -5.926,4.994L-4.106,4.242C-3.976,4.187 -3.831,4.202 -3.708,4.274C-2.916,4.743 -1.934,5.03 -0.77,5.03C2.691,5.03 4.557,2.514 4.557,0.146C4.557,-2.221 2.691,-4.738 -0.77,-4.738" style="fill:rgb(0,130,155);fill-rule:nonzero;"/>
                </g>
            </g>
        </g>
    </g>
</svg>
