<?xml version="1.0" encoding="UTF-8" standalone="no"?>
<!DOCTYPE svg PUBLIC "-//W3C//DTD SVG 1.1//EN" "http://www.w3.org/Graphics/SVG/1.1/DTD/svg11.dtd">
<svg width="100%" height="100%" viewBox="0 0 375 150" version="1.1" xmlns="http://www.w3.org/2000/svg" xmlns:xlink="http://www.w3.org/1999/xlink" xml:space="preserve" xmlns:serif="http://www.serif.com/" style="fill-rule:evenodd;clip-rule:evenodd;stroke-linejoin:round;stroke-miterlimit:2;">
    <g transform="matrix(1,0,0,1,-666.146,-2565.76)">
        <g transform="matrix(1.42118,0,0,1.3869,888.844,2132.82)">
            <g opacity="0.25">
                <g transform="matrix(1,0,0,1,67.8908,335.679)">
                    <path d="M0,69.069L-27.513,69.069C-28.586,69.069 -29.455,68.199 -29.455,67.127C-29.455,59.863 -31.854,52.819 -36.209,47.291C-41.244,40.898 -43.264,32.891 -41.895,24.745C-39.952,13.173 -30.94,3.898 -19.472,1.667C-10.917,0 -2.219,2.171 4.389,7.619C11.003,13.071 14.797,21.11 14.797,29.675C14.797,36.203 12.645,42.348 8.574,47.444C4.298,52.798 1.942,59.788 1.942,67.127C1.942,68.199 1.073,69.069 0,69.069M-25.623,65.185L-1.892,65.185C-1.508,57.68 1.096,50.582 5.539,45.019C9.054,40.619 10.913,35.313 10.913,29.675C10.913,22.274 7.635,15.327 1.919,10.616C-3.791,5.909 -11.317,4.035 -18.73,5.479C-28.618,7.403 -36.388,15.404 -38.065,25.389C-39.249,32.441 -37.507,39.366 -33.158,44.887C-28.655,50.603 -26.015,57.746 -25.623,65.185" style="fill:rgb(255,168,10);fill-rule:nonzero;"/>
                </g>
                <g transform="matrix(1,0,0,1,61.0654,400.864)">
                    <path d="M0,19.451L-13.862,19.451C-18.697,19.451 -22.63,15.518 -22.63,10.684L-22.63,1.942C-22.63,0.869 -21.761,0 -20.688,0L6.825,0C7.898,0 8.767,0.869 8.767,1.942L8.767,10.684C8.767,15.518 4.834,19.451 0,19.451M-18.746,3.884L-18.746,10.684C-18.746,13.376 -16.555,15.567 -13.862,15.567L0,15.567C2.693,15.567 4.883,13.376 4.883,10.684L4.883,3.884L-18.746,3.884Z" style="fill:rgb(255,168,10);fill-rule:nonzero;"/>
                </g>
                <g transform="matrix(1,0,0,1,58.5978,367.298)">
                    <path d="M0,37.45L-8.927,37.45C-9.847,37.45 -10.64,36.805 -10.828,35.904L-17.791,2.513C-18.01,1.464 -17.337,0.434 -16.286,0.215C-15.235,0.002 -14.207,0.671 -13.989,1.72L-7.348,33.566L-1.579,33.566L5.061,1.72C5.28,0.671 6.31,0 7.359,0.215C8.409,0.434 9.082,1.464 8.864,2.513L1.901,35.904C1.713,36.805 0.92,37.45 0,37.45" style="fill:rgb(255,168,10);fill-rule:nonzero;"/>
                </g>
                <g transform="matrix(1,0,0,1,65.5603,363.531)">
                    <path d="M0,7.769C-2.41,7.769 -3.619,6.123 -4.419,5.034C-5.129,4.067 -5.334,3.884 -5.707,3.884C-6.082,3.884 -6.287,4.067 -6.999,5.035C-7.799,6.124 -9.009,7.769 -11.42,7.769C-13.831,7.769 -15.042,6.124 -15.842,5.036C-16.555,4.067 -16.76,3.884 -17.136,3.884C-17.512,3.884 -17.717,4.067 -18.43,5.036C-19.231,6.124 -20.441,7.769 -22.853,7.769C-23.925,7.769 -24.794,6.899 -24.794,5.827C-24.794,4.754 -23.925,3.885 -22.853,3.885C-22.477,3.885 -22.271,3.702 -21.558,2.733C-20.758,1.645 -19.547,0 -17.136,0C-14.725,0 -13.515,1.645 -12.714,2.733C-12.001,3.702 -11.796,3.885 -11.42,3.885C-11.045,3.885 -10.84,3.702 -10.128,2.734C-9.328,1.645 -8.118,0 -5.707,0C-3.297,0 -2.088,1.646 -1.288,2.735C-0.578,3.702 -0.373,3.885 0,3.885C1.073,3.885 1.942,4.754 1.942,5.827C1.942,6.899 1.073,7.769 0,7.769" style="fill:rgb(255,168,10);fill-rule:nonzero;"/>
                </g>
                <g transform="matrix(1,0,0,1,54.1341,408.648)">
                    <path d="M0,3.884L-13.757,3.884C-14.829,3.884 -15.699,3.014 -15.699,1.942C-15.699,0.869 -14.829,0 -13.757,0L0,0C1.072,0 1.942,0.869 1.942,1.942C1.942,3.014 1.072,3.884 0,3.884" style="fill:rgb(255,168,10);fill-rule:nonzero;"/>
                </g>
                <g transform="matrix(1,0,0,1,54.1341,312.16)">
                    <path d="M0,17.967C-1.072,17.967 -1.942,17.098 -1.942,16.025L-1.942,1.942C-1.942,0.869 -1.072,0 0,0C1.072,0 1.942,0.869 1.942,1.942L1.942,16.025C1.942,17.098 1.072,17.967 0,17.967" style="fill:rgb(255,168,10);fill-rule:nonzero;"/>
                </g>
                <g transform="matrix(1,0,0,1,28.1058,326.769)">
                    <path d="M0,14.033C-0.497,14.033 -0.994,13.843 -1.374,13.464L-11.327,3.506C-12.086,2.747 -12.085,1.517 -11.326,0.759C-10.568,0 -9.338,0.002 -8.58,0.759L1.374,10.718C2.132,11.477 2.131,12.706 1.373,13.464C0.994,13.844 0.497,14.033 0,14.033" style="fill:rgb(255,168,10);fill-rule:nonzero;"/>
                </g>
                <g transform="matrix(1,0,0,1,17.2462,362.879)">
                    <path d="M0,3.884L-14.077,3.884C-15.15,3.884 -16.019,3.014 -16.019,1.942C-16.019,0.869 -15.15,0 -14.077,0L0,0C1.072,0 1.942,0.869 1.942,1.942C1.942,3.014 1.072,3.884 0,3.884" style="fill:rgb(255,168,10);fill-rule:nonzero;"/>
                </g>
                <g transform="matrix(1,0,0,1,17.9621,388.728)">
                    <path d="M0,14.032C-0.497,14.032 -0.994,13.843 -1.373,13.463C-2.131,12.705 -2.132,11.476 -1.374,10.717L8.581,0.759C9.339,0.001 10.569,0 11.327,0.759C12.086,1.517 12.086,2.747 11.328,3.506L1.374,13.463C0.994,13.842 0.497,14.032 0,14.032" style="fill:rgb(255,168,10);fill-rule:nonzero;"/>
                </g>
                <g transform="matrix(1,0,0,1,89.8483,388.917)">
                    <path d="M0,14.033C-0.497,14.033 -0.994,13.843 -1.374,13.464L-11.328,3.506C-12.086,2.747 -12.086,1.517 -11.327,0.759C-10.568,0 -9.339,0.002 -8.581,0.759L1.374,10.718C2.132,11.476 2.131,12.706 1.373,13.464C0.994,13.844 0.497,14.033 0,14.033" style="fill:rgb(255,168,10);fill-rule:nonzero;"/>
                </g>
                <g transform="matrix(1,0,0,1,104.831,363.148)">
                    <path d="M0,3.884L-14.077,3.884C-15.149,3.884 -16.019,3.015 -16.019,1.942C-16.019,0.869 -15.149,0 -14.077,0L0,0C1.072,0 1.942,0.869 1.942,1.942C1.942,3.015 1.072,3.884 0,3.884" style="fill:rgb(255,168,10);fill-rule:nonzero;"/>
                </g>
                <g transform="matrix(1,0,0,1,80.0842,326.959)">
                    <path d="M0,14.032C-0.497,14.032 -0.994,13.843 -1.373,13.463C-2.131,12.705 -2.132,11.476 -1.374,10.717L8.58,0.759C9.338,0.001 10.568,0 11.327,0.759C12.085,1.517 12.086,2.747 11.327,3.506L1.374,13.463C0.994,13.842 0.497,14.032 0,14.032" style="fill:rgb(255,168,10);fill-rule:nonzero;"/>
                </g>
            </g>
        </g>
        <g transform="matrix(1.72486,0,0,1.51016,835.901,2657.87)">
            <path d="M0,38.333L-98.417,38.333L-98.417,0L0,0L17.857,19.166L0,38.333Z" style="fill:rgb(255,169,10);fill-rule:nonzero;"/>
        </g>
        <g transform="matrix(4.16667,0,0,4.16667,361.212,2049.07)">
            <text x="77.124px" y="156.487px" style="font-family:'Arial-BoldMT', 'Arial', sans-serif;font-weight:700;font-size:9.28px;fill:white;">STE<tspan x="95.045px 101.024px 103.971px " y="156.487px 156.487px 156.487px ">P 1</tspan></text>
        </g>
    </g>
</svg>
