<?xml version="1.0" encoding="UTF-8" standalone="no"?>
<!DOCTYPE svg PUBLIC "-//W3C//DTD SVG 1.1//EN" "http://www.w3.org/Graphics/SVG/1.1/DTD/svg11.dtd">
<svg width="100%" height="100%" viewBox="0 0 366 127" version="1.1" xmlns="http://www.w3.org/2000/svg" xmlns:xlink="http://www.w3.org/1999/xlink" xml:space="preserve" xmlns:serif="http://www.serif.com/" style="fill-rule:evenodd;clip-rule:evenodd;stroke-linejoin:round;stroke-miterlimit:2;">
    <g transform="matrix(1,0,0,1,-666.146,-2588.82)">
        <g transform="matrix(1.29928,0,0,1.29928,904.132,2518.66)">
            <g opacity="0.25">
                <g transform="matrix(1,0,0,1,33.7273,54.0003)">
                    <path d="M0,67.082C-18.487,67.082 -33.527,52.035 -33.527,33.54C-33.527,15.046 -18.487,0 0,0C18.487,0 33.528,15.046 33.528,33.54C33.528,52.035 18.487,67.082 0,67.082M0,4.543C-15.982,4.543 -28.984,17.552 -28.984,33.54C-28.984,49.53 -15.982,62.539 0,62.539C15.982,62.539 28.985,49.53 28.985,33.54C28.985,17.552 15.982,4.543 0,4.543" style="fill:rgb(240,133,23);fill-rule:nonzero;"/>
                </g>
                <g transform="matrix(1,0,0,1,55.0755,63.913)">
                    <path d="M0,25.899C-1.255,25.899 -2.271,24.882 -2.271,23.628C-2.271,13.104 -10.829,4.543 -21.348,4.543C-22.603,4.543 -23.62,3.526 -23.62,2.271C-23.62,1.017 -22.603,0 -21.348,0C-8.324,0 2.272,10.599 2.272,23.628C2.272,24.882 1.255,25.899 0,25.899" style="fill:rgb(240,133,23);fill-rule:nonzero;"/>
                </g>
                <g transform="matrix(1,0,0,1,95.5884,107.158)">
                    <path d="M0,44.542C-0.581,44.542 -1.163,44.32 -1.607,43.877L-41.366,4.101C-42.253,3.213 -42.253,1.775 -41.366,0.888C-40.478,0 -39.04,0.002 -38.153,0.888L1.607,40.664C2.494,41.552 2.493,42.99 1.606,43.877C1.162,44.321 0.581,44.542 0,44.542" style="fill:rgb(240,133,23);fill-rule:nonzero;"/>
                </g>
                <g transform="matrix(1,0,0,1,95.5884,118.759)">
                    <path d="M0,32.941C-0.581,32.941 -1.163,32.719 -1.607,32.276L-29.77,4.101C-30.657,3.213 -30.656,1.775 -29.769,0.888C-28.881,0 -27.443,0.002 -26.557,0.888L1.607,29.063C2.494,29.951 2.493,31.389 1.606,32.276C1.162,32.72 0.581,32.941 0,32.941" style="fill:rgb(240,133,23);fill-rule:nonzero;"/>
                </g>
            </g>
        </g>
        <g transform="matrix(1.72486,0,0,1.51016,835.901,2657.87)">
            <path d="M0,38.333L-98.417,38.333L-98.417,0L0,0L17.857,19.166L0,38.333Z" style="fill:rgb(226,127,48);fill-rule:nonzero;"/>
        </g>
        <g transform="matrix(4.16667,0,0,4.16667,361.212,2049.07)">
            <text x="77.124px" y="156.487px" style="font-family:'Arial-BoldMT', 'Arial', sans-serif;font-weight:700;font-size:9.28px;fill:white;">STE<tspan x="95.045px 101.024px 103.971px " y="156.487px 156.487px 156.487px ">P 2</tspan></text>
        </g>
    </g>
</svg>
