<?xml version="1.0" encoding="UTF-8" standalone="no"?>
<!DOCTYPE svg PUBLIC "-//W3C//DTD SVG 1.1//EN" "http://www.w3.org/Graphics/SVG/1.1/DTD/svg11.dtd">
<svg width="100%" height="100%" viewBox="0 0 366 125" version="1.1" xmlns="http://www.w3.org/2000/svg" xmlns:xlink="http://www.w3.org/1999/xlink" xml:space="preserve" xmlns:serif="http://www.serif.com/" style="fill-rule:evenodd;clip-rule:evenodd;stroke-linejoin:round;stroke-miterlimit:2;">
    <g transform="matrix(1,0,0,1,-666.146,-2591.66)">
        <g transform="matrix(1.12867,0,0,1.12867,910.769,2556.98)">
            <g opacity="0.25">
                <g transform="matrix(1,0,0,1,54.0001,57.2966)">
                    <path d="M0,56.799C-15.032,56.799 -27.263,44.059 -27.263,28.4C-27.263,12.74 -15.032,0 0,0C15.032,0 27.262,12.74 27.262,28.4C27.262,44.059 15.032,56.799 0,56.799M0,5.238C-12.259,5.238 -22.233,15.628 -22.233,28.4C-22.233,41.17 -12.259,51.561 0,51.561C12.259,51.561 22.232,41.17 22.232,28.4C22.232,15.628 12.259,5.238 0,5.238" style="fill:rgb(59,150,201);fill-rule:nonzero;"/>
                </g>
                <g transform="matrix(1,0,0,1,86.7145,48.9959)">
                    <path d="M0,39.319C-1.389,39.319 -2.515,38.147 -2.515,36.7C-2.515,19.353 -16.063,5.238 -32.714,5.238C-34.103,5.238 -35.229,4.066 -35.229,2.619C-35.229,1.173 -34.103,0 -32.714,0C-13.288,0 2.515,16.463 2.515,36.7C2.515,38.147 1.389,39.319 0,39.319" style="fill:rgb(59,150,201);fill-rule:nonzero;"/>
                </g>
                <g transform="matrix(1,0,0,1,41.9028,30.6493)">
                    <path d="M0,110.021C-0.32,110.021 -0.64,109.958 -0.943,109.83L-15.056,103.89C-16.344,103.348 -16.966,101.823 -16.445,100.482L-13.497,92.879C-17.454,89.98 -20.894,86.453 -23.755,82.359L-31.01,85.567C-31.626,85.838 -32.319,85.846 -32.935,85.585C-33.555,85.325 -34.049,84.819 -34.309,84.18L-40.257,69.584C-40.799,68.253 -40.203,66.715 -38.925,66.151L-31.668,62.941C-32.507,57.95 -32.553,52.924 -31.806,47.945L-39.103,44.873C-40.391,44.331 -41.012,42.806 -40.492,41.465L-34.79,26.762C-34.541,26.117 -34.056,25.603 -33.441,25.331C-32.827,25.06 -32.136,25.052 -31.515,25.315L-24.219,28.385C-21.436,24.262 -18.051,20.68 -14.12,17.698L-17.203,10.139C-17.745,8.808 -17.148,7.27 -15.87,6.706L-1.859,0.51C-1.246,0.238 -0.553,0.23 0.067,0.492C0.685,0.752 1.18,1.258 1.44,1.897L4.52,9.456C9.308,8.582 14.132,8.535 18.914,9.313L21.86,1.711C22.111,1.067 22.596,0.553 23.211,0.281C23.822,0.007 24.516,0 25.136,0.263L39.25,6.204C40.537,6.746 41.159,8.272 40.639,9.613L37.691,17.216C41.648,20.115 45.087,23.641 47.951,27.734L55.206,24.526C55.819,24.255 56.511,24.246 57.132,24.508C57.75,24.768 58.244,25.274 58.505,25.913L64.452,40.509C64.994,41.841 64.397,43.378 63.12,43.943L55.863,47.152C56.7,52.142 56.747,57.169 55.999,62.15L63.297,65.22C64.585,65.762 65.207,67.288 64.686,68.629L58.983,83.332C58.734,83.977 58.248,84.492 57.634,84.763C57.019,85.034 56.326,85.038 55.709,84.78L48.414,81.708C45.63,85.832 42.245,89.415 38.315,92.395L41.396,99.956C41.938,101.287 41.341,102.824 40.064,103.389L26.053,109.585C25.438,109.855 24.746,109.863 24.126,109.603C23.508,109.343 23.014,108.837 22.753,108.198L19.673,100.637C14.887,101.511 10.063,101.561 5.281,100.781L2.332,108.383C2.082,109.028 1.597,109.542 0.983,109.813C0.668,109.952 0.335,110.021 0,110.021M-10.839,100.015L-1.39,103.992L1.383,96.844C1.838,95.673 3.029,95.003 4.221,95.259C9.656,96.421 15.183,96.368 20.641,95.097C21.824,94.822 23.032,95.467 23.506,96.63L26.402,103.74L35.783,99.592L32.885,92.48C32.411,91.317 32.803,89.967 33.815,89.271C38.482,86.065 42.359,81.962 45.336,77.077C45.986,76.009 47.274,75.58 48.403,76.053L55.261,78.941L59.08,69.096L52.218,66.208C51.093,65.735 50.453,64.492 50.697,63.253C51.813,57.586 51.76,51.829 50.542,46.144C50.278,44.911 50.896,43.657 52.013,43.164L58.839,40.145L54.856,30.371L48.034,33.388C46.913,33.883 45.618,33.475 44.951,32.42C41.871,27.558 37.932,23.521 33.245,20.421C32.22,19.742 31.806,18.4 32.261,17.229L35.034,10.079L25.584,6.101L22.813,13.249C22.358,14.422 21.166,15.092 19.975,14.834C14.533,13.672 9.008,13.728 3.552,14.996C2.37,15.272 1.162,14.627 0.688,13.464L-2.209,6.355L-11.589,10.503L-8.691,17.613C-8.217,18.776 -8.609,20.126 -9.621,20.823C-14.289,24.03 -18.165,28.132 -21.142,33.016C-21.792,34.082 -23.082,34.512 -24.208,34.041L-31.068,31.152L-34.887,40.999L-28.025,43.887C-26.9,44.36 -26.26,45.604 -26.503,46.841C-27.619,52.506 -27.566,58.262 -26.347,63.949C-26.083,65.182 -26.702,66.437 -27.818,66.93L-34.644,69.948L-30.661,79.722L-23.838,76.705C-22.717,76.209 -21.422,76.62 -20.755,77.674C-17.676,82.537 -13.738,86.574 -9.05,89.674C-8.026,90.352 -7.611,91.694 -8.067,92.866L-10.839,100.015Z" style="fill:rgb(59,150,201);fill-rule:nonzero;"/>
                </g>
            </g>
        </g>
        <g transform="matrix(1.72486,0,0,1.51016,835.901,2657.87)">
            <path d="M0,38.333L-98.417,38.333L-98.417,0L0,0L17.857,19.166L0,38.333Z" style="fill:rgb(60,151,201);fill-rule:nonzero;"/>
        </g>
        <g transform="matrix(4.16667,0,0,4.16667,361.212,2049.07)">
            <text x="77.124px" y="156.487px" style="font-family:'Arial-BoldMT', 'Arial', sans-serif;font-weight:700;font-size:9.28px;fill:white;">STE<tspan x="95.045px 101.024px 103.971px " y="156.487px 156.487px 156.487px ">P 3</tspan></text>
        </g>
    </g>
</svg>
