<?xml version="1.0" encoding="UTF-8" standalone="no"?>
<!DOCTYPE svg PUBLIC "-//W3C//DTD SVG 1.1//EN" "http://www.w3.org/Graphics/SVG/1.1/DTD/svg11.dtd">
<svg width="100%" height="100%" viewBox="0 0 364 123" version="1.1" xmlns="http://www.w3.org/2000/svg" xmlns:xlink="http://www.w3.org/1999/xlink" xml:space="preserve" xmlns:serif="http://www.serif.com/" style="fill-rule:evenodd;clip-rule:evenodd;stroke-linejoin:round;stroke-miterlimit:2;">
    <g transform="matrix(1,0,0,1,-666.146,-2593.14)">
        <g transform="matrix(1.08123,0,0,1.08123,912.625,2559.92)">
            <g opacity="0.25">
                <g transform="matrix(1,0,0,1,44.5712,49.733)">
                    <path d="M0,88.779C-24.466,88.779 -44.371,68.867 -44.371,44.39C-44.371,19.913 -24.466,0 0,0C24.466,0 44.371,19.913 44.371,44.39C44.371,68.867 24.466,88.779 0,88.779M0,4.179C-22.162,4.179 -40.192,22.218 -40.192,44.39C-40.192,66.561 -22.162,84.6 0,84.6C22.162,84.6 40.192,66.561 40.192,44.39C40.192,22.218 22.162,4.179 0,4.179" style="fill:rgb(8,71,156);fill-rule:nonzero;"/>
                </g>
                <g transform="matrix(1,0,0,1,44.5712,78.7536)">
                    <path d="M0,30.739C-8.471,30.739 -15.364,23.845 -15.364,15.369C-15.364,6.894 -8.471,0 0,0C8.471,0 15.364,6.894 15.364,15.369C15.364,23.845 8.471,30.739 0,30.739M0,4.179C-6.167,4.179 -11.184,9.2 -11.184,15.369C-11.184,21.539 -6.167,26.56 0,26.56C6.167,26.56 11.185,21.539 11.185,15.369C11.185,9.2 6.167,4.179 0,4.179" style="fill:rgb(8,71,156);fill-rule:nonzero;"/>
                </g>
                <g transform="matrix(1,0,0,1,44.5712,64.9804)">
                    <path d="M0,58.284C-16.062,58.284 -29.13,45.211 -29.13,29.143C-29.13,13.073 -16.062,0 0,0C16.062,0 29.13,13.073 29.13,29.143C29.13,45.211 16.062,58.284 0,58.284M0,4.18C-13.758,4.18 -24.951,15.378 -24.951,29.143C-24.951,42.907 -13.758,54.105 0,54.105C13.758,54.105 24.951,42.907 24.951,29.143C24.951,15.378 13.758,4.18 0,4.18" style="fill:rgb(8,71,156);fill-rule:nonzero;"/>
                </g>
                <g transform="matrix(1,0,0,1,44.5712,45.2136)">
                    <path d="M0,50.999C-0.535,50.999 -1.069,50.796 -1.478,50.387C-2.294,49.571 -2.294,48.248 -1.478,47.432L45.115,0.819C45.93,0.004 47.253,0 48.07,0.819C48.886,1.634 48.886,2.957 48.07,3.774L1.478,50.387C1.07,50.795 0.535,50.999 0,50.999" style="fill:rgb(8,71,156);fill-rule:nonzero;"/>
                </g>
                <g transform="matrix(1,0,0,1,89.2035,30.6177)">
                    <path d="M0,32.502C-0.193,32.502 -0.388,32.476 -0.578,32.421L-9.551,29.838C-10.252,29.637 -10.798,29.083 -10.989,28.379L-13.385,19.588C-13.583,18.864 -13.377,18.092 -12.847,17.561L3.992,0.715C4.493,0.212 5.212,0 5.91,0.149C6.603,0.298 7.173,0.789 7.425,1.453L10.058,8.425L17.653,11.642C18.294,11.912 18.757,12.484 18.89,13.166C19.023,13.848 18.808,14.552 18.316,15.044L1.478,31.89C1.08,32.287 0.547,32.502 0,32.502M-7.265,26.147L-0.607,28.063L13.169,14.281L7.605,11.925C7.078,11.702 6.667,11.274 6.464,10.739L4.659,5.959L-9.034,19.658L-7.265,26.147Z" style="fill:rgb(8,71,156);fill-rule:nonzero;"/>
                </g>
            </g>
        </g>
        <g transform="matrix(1.72486,0,0,1.51016,835.901,2657.87)">
            <path d="M0,38.333L-98.417,38.333L-98.417,0L0,0L17.857,19.166L0,38.333Z" style="fill:rgb(18,73,154);fill-rule:nonzero;"/>
        </g>
        <g transform="matrix(4.16667,0,0,4.16667,361.212,2049.07)">
            <text x="77.124px" y="156.487px" style="font-family:'Arial-BoldMT', 'Arial', sans-serif;font-weight:700;font-size:9.28px;fill:white;">STE<tspan x="95.045px 101.024px 103.971px " y="156.487px 156.487px 156.487px ">P 4</tspan></text>
        </g>
    </g>
</svg>
