<?xml version="1.0" encoding="UTF-8" standalone="no"?>
<!DOCTYPE svg PUBLIC "-//W3C//DTD SVG 1.1//EN" "http://www.w3.org/Graphics/SVG/1.1/DTD/svg11.dtd">
<svg width="100%" height="100%" viewBox="0 0 50 80" version="1.1" xmlns="http://www.w3.org/2000/svg" xmlns:xlink="http://www.w3.org/1999/xlink" xml:space="preserve" xmlns:serif="http://www.serif.com/" style="fill-rule:evenodd;clip-rule:evenodd;stroke-linejoin:round;stroke-miterlimit:2;">
    <g transform="matrix(1,0,0,1,-681.054,-1541.17)">
        <g transform="matrix(1.00299,0,0,1.19969,128.952,-16.6115)">
            <g transform="matrix(4.15423,0,0,3.0613,593.986,1304.76)">
                <path d="M0,17.497C0,17.804 -0.249,18.052 -0.555,18.052L-8.428,18.052C-8.735,18.052 -8.983,17.804 -8.983,17.497L-8.983,0.811C-8.983,0.504 -8.735,0.255 -8.428,0.255L-0.555,0.255C-0.249,0.255 0,0.504 0,0.811L0,17.497ZM-6.855,-1.012C-6.855,-1.182 -6.717,-1.32 -6.548,-1.32L-2.208,-1.32C-2.037,-1.32 -1.9,-1.182 -1.9,-1.012L-1.9,-0.912C-1.9,-0.742 -2.037,-0.604 -2.208,-0.604L-6.548,-0.604C-6.717,-0.604 -6.855,-0.742 -6.855,-0.912L-6.855,-1.012ZM0.521,-2.051L-9.505,-2.051C-10.042,-2.051 -10.479,-1.615 -10.479,-1.077L-10.479,18.574C-10.479,19.112 -10.042,19.548 -9.505,19.548L0.521,19.548C1.059,19.548 1.495,19.112 1.495,18.574L1.495,-1.077C1.495,-1.615 1.059,-2.051 0.521,-2.051" style="fill:white;fill-rule:nonzero;"/>
            </g>
        </g>
    </g>
</svg>
