<?xml version="1.0" encoding="UTF-8" standalone="no"?>
<!DOCTYPE svg PUBLIC "-//W3C//DTD SVG 1.1//EN" "http://www.w3.org/Graphics/SVG/1.1/DTD/svg11.dtd">
<svg width="100%" height="100%" viewBox="0 0 265 220" version="1.1" xmlns="http://www.w3.org/2000/svg" xmlns:xlink="http://www.w3.org/1999/xlink" xml:space="preserve" xmlns:serif="http://www.serif.com/" style="fill-rule:evenodd;clip-rule:evenodd;stroke-miterlimit:10;">
    <g transform="matrix(1,0,0,1,-362.718,-146.448)">
        <g transform="matrix(4.16667,0,0,4.16667,0,0)">
            <g transform="matrix(6.12323e-17,1,-1,6.12323e-17,218.93,-87.3124)">
                <g transform="matrix(0.776656,0,0,0.776656,0,-598.305)">
                    <path d="M160.131,864.019L160.131,868.543L182.652,868.543C184.031,868.543 185.15,867.427 185.15,866.047L185.15,864.019L160.131,864.019ZM200.624,880.615C199.241,880.615 198.121,881.736 198.121,883.117L198.121,926.098L202.646,926.098L202.646,885.139L223.14,885.139L223.14,880.615L200.624,880.615Z" style="fill:rgb(0,133,155);fill-rule:nonzero;"/>
                </g>
                <g transform="matrix(0.776656,0,0,0.776656,0,-598.306)">
                    <path d="M198.119,864.02L198.119,866.048C198.119,867.428 199.238,868.544 200.617,868.544L223.139,868.544L223.139,864.02L198.119,864.02ZM160.131,880.617L160.131,885.14L180.624,885.14L180.624,926.099L185.15,926.099L185.15,883.118C185.15,881.737 184.029,880.617 182.647,880.617L160.131,880.617Z" style="fill:rgb(0,133,155);fill-rule:nonzero;"/>
                </g>
                <g transform="matrix(0,-1,-1,0,152.776,89.2842)">
                    <path d="M-4.008,4.008L4.008,4.008" style="fill:none;fill-rule:nonzero;stroke:rgb(0,133,155);stroke-width:0.78px;"/>
                </g>
                <g transform="matrix(0,-1,-1,0,150.771,100.412)">
                    <path d="M-2.004,2.004L2.004,2.004" style="fill:none;fill-rule:nonzero;stroke:rgb(0,133,155);stroke-width:0.78px;"/>
                </g>
                <g transform="matrix(0,-1,-1,0,150.771,109.17)">
                    <path d="M-2.004,2.004L2.004,2.004" style="fill:none;fill-rule:nonzero;stroke:rgb(0,133,155);stroke-width:0.78px;"/>
                </g>
                <g transform="matrix(0,-1,-1,0,150.771,117.928)">
                    <path d="M-2.004,2.004L2.004,2.004" style="fill:none;fill-rule:nonzero;stroke:rgb(0,133,155);stroke-width:0.78px;"/>
                </g>
                <g transform="matrix(-1,0,0,1,154.165,80.5879)">
                    <path d="M-8.017,0L0,0" style="fill:none;fill-rule:nonzero;stroke:rgb(0,133,155);stroke-width:0.78px;"/>
                </g>
                <g transform="matrix(-1,0,0,1,167.298,80.5879)">
                    <path d="M-4.008,0L0,0" style="fill:none;fill-rule:nonzero;stroke:rgb(0,133,155);stroke-width:0.78px;"/>
                </g>
                <g transform="matrix(1,0,0,1,135.488,80.5879)">
                    <path d="M0,0L8.017,0" style="fill:none;fill-rule:nonzero;stroke:rgb(0,133,155);stroke-width:0.78px;"/>
                </g>
                <g transform="matrix(1,0,0,1,126.364,80.5879)">
                    <path d="M0,0L4.008,0" style="fill:none;fill-rule:nonzero;stroke:rgb(0,133,155);stroke-width:0.78px;"/>
                </g>
                <g transform="matrix(0,-1,-1,0,150.524,74.1436)">
                    <path d="M-1.757,1.757L1.757,1.757" style="fill:none;fill-rule:nonzero;stroke:rgb(0,133,155);stroke-width:0.78px;"/>
                </g>
            </g>
            <g transform="matrix(1.46958e-17,-0.24,0.24,1.46958e-17,35.3296,146.541)">
                <path d="M354.524,215.511L371.496,242.431L337.553,242.431L354.524,215.511Z" style="fill:rgb(0,133,155);"/>
            </g>
        </g>
    </g>
</svg>
