<?xml version="1.0" encoding="UTF-8" standalone="no"?>
<!DOCTYPE svg PUBLIC "-//W3C//DTD SVG 1.1//EN" "http://www.w3.org/Graphics/SVG/1.1/DTD/svg11.dtd">
<svg width="100%" height="100%" viewBox="0 0 405 405" version="1.1" xmlns="http://www.w3.org/2000/svg" xmlns:xlink="http://www.w3.org/1999/xlink" xml:space="preserve" xmlns:serif="http://www.serif.com/" style="fill-rule:evenodd;clip-rule:evenodd;stroke-linejoin:round;stroke-miterlimit:10;">
    <g transform="matrix(1,0,0,1,-208.901,-2547.15)">
        <g transform="matrix(0.440458,0,0,0.434461,-367.855,1863.78)">
            <g transform="matrix(4.16667,0,0,4.16667,0,0)">
                <g transform="matrix(1.25964e-09,0.0060729,-0.0058874,1.29933e-09,518.791,490.496)">
                    <path d="M-16358.5,16358.5L16358.5,16358.5" style="fill:none;fill-rule:nonzero;stroke:rgb(166,166,166);stroke-width:499.45px;"/>
                </g>
                <g transform="matrix(0.0058874,0,0,-0.0060729,326.402,490.258)">
                    <path d="M0,0.007L32717.1,0" style="fill:none;fill-rule:nonzero;stroke:rgb(166,166,166);stroke-width:499.45px;"/>
                </g>
                <g transform="matrix(0,-0.0002024,0.0001962,0,427.528,506.647)">
                    <path d="M9525,-9525C14785.5,-9525 19050,-5260.51 19050,0C19050,5260.51 14785.5,9525 9525,9525C4264.49,9525 0,5260.51 0,0C0,-5260.51 4264.49,-9525 9525,-9525" style="fill:rgb(91,158,247);stroke:white;stroke-width:3670.58px;stroke-miterlimit:2;"/>
                </g>
                <g transform="matrix(0,-0.0002024,0.0001962,0,427.528,506.647)">
                    <circle cx="9525" cy="0" r="9525" style="fill:none;stroke:rgb(8,72,156);stroke-width:3670.58px;"/>
                </g>
                <g transform="matrix(0,-0.0002024,0.0001962,0,412.948,497.392)">
                    <path d="M9525,-9525C14785.5,-9525 19050,-5260.51 19050,0C19050,5260.51 14785.5,9525 9525,9525C4264.49,9525 0,5260.51 0,0C0,-5260.51 4264.49,-9525 9525,-9525" style="fill:rgb(91,158,247);stroke:white;stroke-width:3670.58px;stroke-miterlimit:2;"/>
                </g>
                <g transform="matrix(0,-0.0002024,0.0001962,0,412.948,497.392)">
                    <circle cx="9525" cy="0" r="9525" style="fill:none;stroke:rgb(8,72,156);stroke-width:3670.58px;"/>
                </g>
                <g transform="matrix(0,-0.0002024,0.0001962,0,409.77,484.473)">
                    <path d="M10477.5,-10477.5C15738,-10477.5 20002.5,-5786.56 20002.5,0C20002.5,5786.56 15738,10477.5 10477.5,10477.5C5216.99,10477.5 952.5,5786.56 952.5,0C952.5,-5786.56 5216.99,-10477.5 10477.5,-10477.5" style="fill:rgb(91,158,247);stroke:white;stroke-width:3670.58px;stroke-miterlimit:2;"/>
                </g>
                <g transform="matrix(0,-0.0002024,0.0001962,0,409.77,484.473)">
                    <ellipse cx="10477.5" cy="0" rx="9525" ry="10477.5" style="fill:none;stroke:rgb(8,72,156);stroke-width:3670.58px;"/>
                </g>
                <g transform="matrix(0,-0.0002024,0.0001962,0,434.632,540.582)">
                    <path d="M9525,-9525C14785.5,-9525 19050,-5260.51 19050,0C19050,5260.51 14785.5,9525 9525,9525C4264.49,9525 0,5260.51 0,0C0,-5260.51 4264.49,-9525 9525,-9525" style="fill:rgb(91,158,247);stroke:white;stroke-width:3670.58px;stroke-miterlimit:2;"/>
                </g>
                <g transform="matrix(0,-0.0002024,0.0001962,0,434.632,540.582)">
                    <circle cx="9525" cy="0" r="9525" style="fill:none;stroke:rgb(8,72,156);stroke-width:3670.58px;"/>
                </g>
                <g transform="matrix(0,-0.0002024,0.0001962,0,426.594,514.359)">
                    <path d="M10477.5,-10477.5C16264.1,-10477.5 20955,-5786.56 20955,0C20955,5786.56 16264.1,10477.5 10477.5,10477.5C4690.94,10477.5 0,5786.56 0,0C0,-5786.56 4690.94,-10477.5 10477.5,-10477.5" style="fill:rgb(91,158,247);stroke:white;stroke-width:3670.58px;stroke-miterlimit:2;"/>
                </g>
                <g transform="matrix(0,-0.0002024,0.0001962,0,426.594,514.359)">
                    <circle cx="10477.5" cy="0" r="10477.5" style="fill:none;stroke:rgb(8,72,156);stroke-width:3670.58px;"/>
                </g>
                <g transform="matrix(0,-0.0002024,0.0001962,0,433.884,513.202)">
                    <path d="M9525,-9525C14785.5,-9525 19050,-5260.51 19050,0C19050,5260.51 14785.5,9525 9525,9525C4264.49,9525 0,5260.51 0,0C0,-5260.51 4264.49,-9525 9525,-9525" style="fill:rgb(91,158,247);stroke:white;stroke-width:3670.58px;stroke-miterlimit:2;"/>
                </g>
                <g transform="matrix(0,-0.0002024,0.0001962,0,433.884,513.202)">
                    <circle cx="9525" cy="0" r="9525" style="fill:none;stroke:rgb(8,72,156);stroke-width:3670.58px;"/>
                </g>
                <g transform="matrix(0,-0.0002024,0.0001962,0,369.582,483.509)">
                    <path d="M9525,-9525C14785.5,-9525 19050,-5260.51 19050,0C19050,5260.51 14785.5,9525 9525,9525C4264.49,9525 0,5260.51 0,0C0,-5260.51 4264.49,-9525 9525,-9525" style="fill:rgb(91,158,247);stroke:white;stroke-width:3670.58px;stroke-miterlimit:2;"/>
                </g>
                <g transform="matrix(0,-0.0002024,0.0001962,0,369.582,483.509)">
                    <circle cx="9525" cy="0" r="9525" style="fill:none;stroke:rgb(8,72,156);stroke-width:3670.58px;"/>
                </g>
                <g transform="matrix(0,-0.0002024,0.0001962,0,419.491,496.62)">
                    <path d="M10477.5,-10477.5C16264.1,-10477.5 20955,-5786.56 20955,0C20955,5786.56 16264.1,10477.5 10477.5,10477.5C4690.94,10477.5 0,5786.56 0,0C0,-5786.56 4690.94,-10477.5 10477.5,-10477.5" style="fill:rgb(91,158,247);stroke:white;stroke-width:3670.58px;stroke-miterlimit:2;"/>
                </g>
                <g transform="matrix(0,-0.0002024,0.0001962,0,419.491,496.62)">
                    <circle cx="10477.5" cy="0" r="10477.5" style="fill:none;stroke:rgb(8,72,156);stroke-width:3670.58px;"/>
                </g>
                <g transform="matrix(0,-0.0002024,0.0001962,0,433.697,552.151)">
                    <path d="M10477.5,-10477.5C16264.1,-10477.5 20955,-5786.56 20955,0C20955,5786.56 16264.1,10477.5 10477.5,10477.5C4690.94,10477.5 0,5786.56 0,0C0,-5786.56 4690.94,-10477.5 10477.5,-10477.5" style="fill:rgb(91,158,247);stroke:white;stroke-width:3670.58px;stroke-miterlimit:2;"/>
                </g>
                <g transform="matrix(0,-0.0002024,0.0001962,0,433.697,552.151)">
                    <circle cx="10477.5" cy="0" r="10477.5" style="fill:none;stroke:rgb(8,72,156);stroke-width:3670.58px;"/>
                </g>
                <g transform="matrix(0,-0.0002024,0.0001962,0,429.211,538.075)">
                    <path d="M10477.5,-10477.5C15738,-10477.5 20002.5,-5786.56 20002.5,0C20002.5,5786.56 15738,10477.5 10477.5,10477.5C5216.99,10477.5 952.5,5786.56 952.5,0C952.5,-5786.56 5216.99,-10477.5 10477.5,-10477.5" style="fill:rgb(91,158,247);stroke:white;stroke-width:3670.58px;stroke-miterlimit:2;"/>
                </g>
                <g transform="matrix(0,-0.0002024,0.0001962,0,429.211,538.075)">
                    <ellipse cx="10477.5" cy="0" rx="9525" ry="10477.5" style="fill:none;stroke:rgb(8,72,156);stroke-width:3670.58px;"/>
                </g>
                <g transform="matrix(0,-0.0002024,0.0001962,0,409.023,489.293)">
                    <path d="M10477.5,-10477.5C16264.1,-10477.5 20955,-5786.56 20955,0C20955,5786.56 16264.1,10477.5 10477.5,10477.5C4690.94,10477.5 0,5786.56 0,0C0,-5786.56 4690.94,-10477.5 10477.5,-10477.5" style="fill:rgb(91,158,247);stroke:white;stroke-width:3670.58px;stroke-miterlimit:2;"/>
                </g>
                <g transform="matrix(0,-0.0002024,0.0001962,0,409.023,489.293)">
                    <circle cx="10477.5" cy="0" r="10477.5" style="fill:none;stroke:rgb(8,72,156);stroke-width:3670.58px;"/>
                </g>
                <g transform="matrix(0,-0.0002024,0.0001962,0,437.062,544.631)">
                    <path d="M10477.5,-10477.5C15738,-10477.5 20002.5,-5786.56 20002.5,0C20002.5,5786.56 15738,10477.5 10477.5,10477.5C5216.99,10477.5 952.5,5786.56 952.5,0C952.5,-5786.56 5216.99,-10477.5 10477.5,-10477.5" style="fill:rgb(91,158,247);stroke:white;stroke-width:3670.58px;stroke-miterlimit:2;"/>
                </g>
                <g transform="matrix(0,-0.0002024,0.0001962,0,437.062,544.631)">
                    <ellipse cx="10477.5" cy="0" rx="9525" ry="10477.5" style="fill:none;stroke:rgb(8,72,156);stroke-width:3670.58px;"/>
                </g>
                <g transform="matrix(0,-0.0002024,0.0001962,0,375.376,476.953)">
                    <path d="M10477.5,-10477.5C16264.1,-10477.5 20955,-5786.56 20955,0C20955,5786.56 16264.1,10477.5 10477.5,10477.5C4690.94,10477.5 0,5786.56 0,0C0,-5786.56 4690.94,-10477.5 10477.5,-10477.5" style="fill:rgb(91,158,247);stroke:white;stroke-width:3670.58px;stroke-miterlimit:2;"/>
                </g>
                <g transform="matrix(0,-0.0002024,0.0001962,0,375.376,476.953)">
                    <circle cx="10477.5" cy="0" r="10477.5" style="fill:none;stroke:rgb(8,72,156);stroke-width:3670.58px;"/>
                </g>
                <g transform="matrix(0,-0.0002024,0.0001962,0,368.086,475.025)">
                    <path d="M9525,-9525C14785.5,-9525 19050,-5260.51 19050,0C19050,5260.51 14785.5,9525 9525,9525C4264.49,9525 0,5260.51 0,0C0,-5260.51 4264.49,-9525 9525,-9525" style="fill:rgb(91,158,247);stroke:white;stroke-width:3670.58px;stroke-miterlimit:2;"/>
                </g>
                <g transform="matrix(0,-0.0002024,0.0001962,0,368.086,475.025)">
                    <circle cx="9525" cy="0" r="9525" style="fill:none;stroke:rgb(8,72,156);stroke-width:3670.58px;"/>
                </g>
                <g transform="matrix(0,-0.0002024,0.0001962,0,406.593,478.303)">
                    <path d="M9525,-9525C15311.6,-9525 20002.5,-5260.51 20002.5,0C20002.5,5260.51 15311.6,9525 9525,9525C3738.44,9525 -952.5,5260.51 -952.5,0C-952.5,-5260.51 3738.44,-9525 9525,-9525" style="fill:rgb(91,158,247);stroke:white;stroke-width:3670.58px;stroke-miterlimit:2;"/>
                </g>
                <g transform="matrix(0,-0.0002024,0.0001962,0,406.593,478.303)">
                    <ellipse cx="9525" cy="0" rx="10477.5" ry="9525" style="fill:none;stroke:rgb(8,72,156);stroke-width:3670.58px;"/>
                </g>
                <g transform="matrix(0,-0.0002024,0.0001962,0,412.574,484.473)">
                    <path d="M9525,-9525C15311.6,-9525 20002.5,-5260.51 20002.5,0C20002.5,5260.51 15311.6,9525 9525,9525C3738.44,9525 -952.5,5260.51 -952.5,0C-952.5,-5260.51 3738.44,-9525 9525,-9525" style="fill:rgb(91,158,247);stroke:white;stroke-width:3670.58px;stroke-miterlimit:2;"/>
                </g>
                <g transform="matrix(0,-0.0002024,0.0001962,0,412.574,484.473)">
                    <ellipse cx="9525" cy="0" rx="10477.5" ry="9525" style="fill:none;stroke:rgb(8,72,156);stroke-width:3670.58px;"/>
                </g>
                <g transform="matrix(0,-0.0002024,0.0001962,0,395.751,487.558)">
                    <path d="M9525,-9525C15311.6,-9525 20002.5,-5260.51 20002.5,0C20002.5,5260.51 15311.6,9525 9525,9525C3738.44,9525 -952.5,5260.51 -952.5,0C-952.5,-5260.51 3738.44,-9525 9525,-9525" style="fill:rgb(91,158,247);stroke:white;stroke-width:3670.58px;stroke-miterlimit:2;"/>
                </g>
                <g transform="matrix(0,-0.0002024,0.0001962,0,395.751,487.558)">
                    <ellipse cx="9525" cy="0" rx="10477.5" ry="9525" style="fill:none;stroke:rgb(8,72,156);stroke-width:3670.58px;"/>
                </g>
                <g transform="matrix(0,-0.0002024,0.0001962,0,391.078,486.98)">
                    <path d="M10477.5,-10477.5C16264.1,-10477.5 20955,-5786.56 20955,0C20955,5786.56 16264.1,10477.5 10477.5,10477.5C4690.94,10477.5 0,5786.56 0,0C0,-5786.56 4690.94,-10477.5 10477.5,-10477.5" style="fill:rgb(91,158,247);stroke:white;stroke-width:3670.58px;stroke-miterlimit:2;"/>
                </g>
                <g transform="matrix(0,-0.0002024,0.0001962,0,391.078,486.98)">
                    <circle cx="10477.5" cy="0" r="10477.5" style="fill:none;stroke:rgb(8,72,156);stroke-width:3670.58px;"/>
                </g>
                <g transform="matrix(0,-0.0002024,0.0001962,0,379.302,482.159)">
                    <path d="M9525,-9525C15311.6,-9525 20002.5,-5260.51 20002.5,0C20002.5,5260.51 15311.6,9525 9525,9525C3738.44,9525 -952.5,5260.51 -952.5,0C-952.5,-5260.51 3738.44,-9525 9525,-9525" style="fill:rgb(91,158,247);stroke:white;stroke-width:3670.58px;stroke-miterlimit:2;"/>
                </g>
                <g transform="matrix(0,-0.0002024,0.0001962,0,379.302,482.159)">
                    <ellipse cx="9525" cy="0" rx="10477.5" ry="9525" style="fill:none;stroke:rgb(8,72,156);stroke-width:3670.58px;"/>
                </g>
                <g transform="matrix(0,-0.0002024,0.0001962,0,406.593,478.303)">
                    <path d="M9525,-9525C15311.6,-9525 20002.5,-5260.51 20002.5,0C20002.5,5260.51 15311.6,9525 9525,9525C3738.44,9525 -952.5,5260.51 -952.5,0C-952.5,-5260.51 3738.44,-9525 9525,-9525" style="fill:rgb(91,158,247);stroke:white;stroke-width:3670.58px;stroke-miterlimit:2;"/>
                </g>
                <g transform="matrix(0,-0.0002024,0.0001962,0,406.593,478.303)">
                    <ellipse cx="9525" cy="0" rx="10477.5" ry="9525" style="fill:none;stroke:rgb(8,72,156);stroke-width:3670.58px;"/>
                </g>
                <g transform="matrix(0,-0.0002024,0.0001962,0,412.574,484.473)">
                    <path d="M9525,-9525C15311.6,-9525 20002.5,-5260.51 20002.5,0C20002.5,5260.51 15311.6,9525 9525,9525C3738.44,9525 -952.5,5260.51 -952.5,0C-952.5,-5260.51 3738.44,-9525 9525,-9525" style="fill:rgb(91,158,247);stroke:white;stroke-width:3670.58px;stroke-miterlimit:2;"/>
                </g>
                <g transform="matrix(0,-0.0002024,0.0001962,0,412.574,484.473)">
                    <ellipse cx="9525" cy="0" rx="10477.5" ry="9525" style="fill:none;stroke:rgb(8,72,156);stroke-width:3670.58px;"/>
                </g>
                <g transform="matrix(0,-0.0002024,0.0001962,0,418.556,490.643)">
                    <path d="M9525,-9525C15311.6,-9525 20002.5,-5260.51 20002.5,0C20002.5,5260.51 15311.6,9525 9525,9525C3738.44,9525 -952.5,5260.51 -952.5,0C-952.5,-5260.51 3738.44,-9525 9525,-9525" style="fill:rgb(91,158,247);stroke:white;stroke-width:3670.58px;stroke-miterlimit:2;"/>
                </g>
                <g transform="matrix(0,-0.0002024,0.0001962,0,418.556,490.643)">
                    <ellipse cx="9525" cy="0" rx="10477.5" ry="9525" style="fill:none;stroke:rgb(8,72,156);stroke-width:3670.58px;"/>
                </g>
                <g transform="matrix(0,-0.0002024,0.0001962,0,350.889,478.882)">
                    <path d="M9525,-9525C14785.5,-9525 19050,-5260.51 19050,0C19050,5260.51 14785.5,9525 9525,9525C4264.49,9525 0,5260.51 0,0C0,-5260.51 4264.49,-9525 9525,-9525" style="fill:rgb(91,158,247);stroke:white;stroke-width:3670.58px;stroke-miterlimit:2;"/>
                </g>
                <g transform="matrix(0,-0.0002024,0.0001962,0,350.889,478.882)">
                    <circle cx="9525" cy="0" r="9525" style="fill:none;stroke:rgb(8,72,156);stroke-width:3670.58px;"/>
                </g>
                <g transform="matrix(0,-0.0002024,0.0001962,0,402.293,482.931)">
                    <path d="M10477.5,-10477.5C15738,-10477.5 20002.5,-5786.56 20002.5,0C20002.5,5786.56 15738,10477.5 10477.5,10477.5C5216.99,10477.5 952.5,5786.56 952.5,0C952.5,-5786.56 5216.99,-10477.5 10477.5,-10477.5" style="fill:rgb(91,158,247);stroke:white;stroke-width:3670.58px;stroke-miterlimit:2;"/>
                </g>
                <g transform="matrix(0,-0.0002024,0.0001962,0,402.293,482.931)">
                    <ellipse cx="10477.5" cy="0" rx="9525" ry="10477.5" style="fill:none;stroke:rgb(8,72,156);stroke-width:3670.58px;"/>
                </g>
                <g transform="matrix(0,-0.0002024,0.0001962,0,400.611,487.751)">
                    <path d="M9525,-9525C14785.5,-9525 19050,-5260.51 19050,0C19050,5260.51 14785.5,9525 9525,9525C4264.49,9525 0,5260.51 0,0C0,-5260.51 4264.49,-9525 9525,-9525" style="fill:rgb(91,158,247);stroke:white;stroke-width:3670.58px;stroke-miterlimit:2;"/>
                </g>
                <g transform="matrix(0,-0.0002024,0.0001962,0,400.611,487.751)">
                    <circle cx="9525" cy="0" r="9525" style="fill:none;stroke:rgb(8,72,156);stroke-width:3670.58px;"/>
                </g>
                <g transform="matrix(0,-0.0002024,0.0001962,0,406.593,478.303)">
                    <path d="M9525,-9525C15311.6,-9525 20002.5,-5260.51 20002.5,0C20002.5,5260.51 15311.6,9525 9525,9525C3738.44,9525 -952.5,5260.51 -952.5,0C-952.5,-5260.51 3738.44,-9525 9525,-9525" style="fill:rgb(91,158,247);stroke:white;stroke-width:3670.58px;stroke-miterlimit:2;"/>
                </g>
                <g transform="matrix(0,-0.0002024,0.0001962,0,406.593,478.303)">
                    <ellipse cx="9525" cy="0" rx="10477.5" ry="9525" style="fill:none;stroke:rgb(8,72,156);stroke-width:3670.58px;"/>
                </g>
                <g transform="matrix(0,-0.0002024,0.0001962,0,412.574,484.473)">
                    <path d="M9525,-9525C15311.6,-9525 20002.5,-5260.51 20002.5,0C20002.5,5260.51 15311.6,9525 9525,9525C3738.44,9525 -952.5,5260.51 -952.5,0C-952.5,-5260.51 3738.44,-9525 9525,-9525" style="fill:rgb(91,158,247);stroke:white;stroke-width:3670.58px;stroke-miterlimit:2;"/>
                </g>
                <g transform="matrix(0,-0.0002024,0.0001962,0,412.574,484.473)">
                    <ellipse cx="9525" cy="0" rx="10477.5" ry="9525" style="fill:none;stroke:rgb(8,72,156);stroke-width:3670.58px;"/>
                </g>
                <g transform="matrix(0,-0.0002024,0.0001962,0,418.556,490.643)">
                    <path d="M9525,-9525C15311.6,-9525 20002.5,-5260.51 20002.5,0C20002.5,5260.51 15311.6,9525 9525,9525C3738.44,9525 -952.5,5260.51 -952.5,0C-952.5,-5260.51 3738.44,-9525 9525,-9525" style="fill:rgb(91,158,247);stroke:white;stroke-width:3670.58px;stroke-miterlimit:2;"/>
                </g>
                <g transform="matrix(0,-0.0002024,0.0001962,0,418.556,490.643)">
                    <ellipse cx="9525" cy="0" rx="10477.5" ry="9525" style="fill:none;stroke:rgb(8,72,156);stroke-width:3670.58px;"/>
                </g>
                <g transform="matrix(0,-0.0002024,0.0001962,0,424.538,496.813)">
                    <path d="M9525,-9525C15311.6,-9525 20002.5,-5260.51 20002.5,0C20002.5,5260.51 15311.6,9525 9525,9525C3738.44,9525 -952.5,5260.51 -952.5,0C-952.5,-5260.51 3738.44,-9525 9525,-9525" style="fill:rgb(91,158,247);stroke:white;stroke-width:3670.58px;stroke-miterlimit:2;"/>
                </g>
                <g transform="matrix(0,-0.0002024,0.0001962,0,424.538,496.813)">
                    <ellipse cx="9525" cy="0" rx="10477.5" ry="9525" style="fill:none;stroke:rgb(8,72,156);stroke-width:3670.58px;"/>
                </g>
                <g transform="matrix(0,-0.0002024,0.0001962,0,396.686,483.316)">
                    <path d="M10477.5,-10477.5C15738,-10477.5 20002.5,-5786.56 20002.5,0C20002.5,5786.56 15738,10477.5 10477.5,10477.5C5216.99,10477.5 952.5,5786.56 952.5,0C952.5,-5786.56 5216.99,-10477.5 10477.5,-10477.5" style="fill:rgb(91,158,247);stroke:white;stroke-width:3670.58px;stroke-miterlimit:2;"/>
                </g>
                <g transform="matrix(0,-0.0002024,0.0001962,0,396.686,483.316)">
                    <ellipse cx="10477.5" cy="0" rx="9525" ry="10477.5" style="fill:none;stroke:rgb(8,72,156);stroke-width:3670.58px;"/>
                </g>
                <g transform="matrix(0,-0.0002024,0.0001962,0,395.19,482.159)">
                    <path d="M10477.5,-10477.5C15738,-10477.5 20002.5,-5786.56 20002.5,0C20002.5,5786.56 15738,10477.5 10477.5,10477.5C5216.99,10477.5 952.5,5786.56 952.5,0C952.5,-5786.56 5216.99,-10477.5 10477.5,-10477.5" style="fill:rgb(91,158,247);stroke:white;stroke-width:3670.58px;stroke-miterlimit:2;"/>
                </g>
                <g transform="matrix(0,-0.0002024,0.0001962,0,395.19,482.159)">
                    <ellipse cx="10477.5" cy="0" rx="9525" ry="10477.5" style="fill:none;stroke:rgb(8,72,156);stroke-width:3670.58px;"/>
                </g>
                <g transform="matrix(0,-0.0002024,0.0001962,0,435.192,525.35)">
                    <path d="M10477.5,-10477.5C15738,-10477.5 20002.5,-5786.56 20002.5,0C20002.5,5786.56 15738,10477.5 10477.5,10477.5C5216.99,10477.5 952.5,5786.56 952.5,0C952.5,-5786.56 5216.99,-10477.5 10477.5,-10477.5" style="fill:rgb(91,158,247);stroke:white;stroke-width:3670.58px;stroke-miterlimit:2;"/>
                </g>
                <g transform="matrix(0,-0.0002024,0.0001962,0,435.192,525.35)">
                    <ellipse cx="10477.5" cy="0" rx="9525" ry="10477.5" style="fill:none;stroke:rgb(8,72,156);stroke-width:3670.58px;"/>
                </g>
                <g transform="matrix(0,-0.0002024,0.0001962,0,406.593,478.303)">
                    <path d="M9525,-9525C15311.6,-9525 20002.5,-5260.51 20002.5,0C20002.5,5260.51 15311.6,9525 9525,9525C3738.44,9525 -952.5,5260.51 -952.5,0C-952.5,-5260.51 3738.44,-9525 9525,-9525" style="fill:rgb(91,158,247);stroke:white;stroke-width:3670.58px;stroke-miterlimit:2;"/>
                </g>
                <g transform="matrix(0,-0.0002024,0.0001962,0,406.593,478.303)">
                    <ellipse cx="9525" cy="0" rx="10477.5" ry="9525" style="fill:none;stroke:rgb(8,72,156);stroke-width:3670.58px;"/>
                </g>
                <g transform="matrix(0,-0.0002024,0.0001962,0,412.574,484.473)">
                    <path d="M9525,-9525C15311.6,-9525 20002.5,-5260.51 20002.5,0C20002.5,5260.51 15311.6,9525 9525,9525C3738.44,9525 -952.5,5260.51 -952.5,0C-952.5,-5260.51 3738.44,-9525 9525,-9525" style="fill:rgb(91,158,247);stroke:white;stroke-width:3670.58px;stroke-miterlimit:2;"/>
                </g>
                <g transform="matrix(0,-0.0002024,0.0001962,0,412.574,484.473)">
                    <ellipse cx="9525" cy="0" rx="10477.5" ry="9525" style="fill:none;stroke:rgb(8,72,156);stroke-width:3670.58px;"/>
                </g>
                <g transform="matrix(0,-0.0002024,0.0001962,0,418.556,490.643)">
                    <path d="M9525,-9525C15311.6,-9525 20002.5,-5260.51 20002.5,0C20002.5,5260.51 15311.6,9525 9525,9525C3738.44,9525 -952.5,5260.51 -952.5,0C-952.5,-5260.51 3738.44,-9525 9525,-9525" style="fill:rgb(91,158,247);stroke:white;stroke-width:3670.58px;stroke-miterlimit:2;"/>
                </g>
                <g transform="matrix(0,-0.0002024,0.0001962,0,418.556,490.643)">
                    <ellipse cx="9525" cy="0" rx="10477.5" ry="9525" style="fill:none;stroke:rgb(8,72,156);stroke-width:3670.58px;"/>
                </g>
                <g transform="matrix(0,-0.0002024,0.0001962,0,424.538,496.813)">
                    <path d="M9525,-9525C15311.6,-9525 20002.5,-5260.51 20002.5,0C20002.5,5260.51 15311.6,9525 9525,9525C3738.44,9525 -952.5,5260.51 -952.5,0C-952.5,-5260.51 3738.44,-9525 9525,-9525" style="fill:rgb(91,158,247);stroke:white;stroke-width:3670.58px;stroke-miterlimit:2;"/>
                </g>
                <g transform="matrix(0,-0.0002024,0.0001962,0,424.538,496.813)">
                    <ellipse cx="9525" cy="0" rx="10477.5" ry="9525" style="fill:none;stroke:rgb(8,72,156);stroke-width:3670.58px;"/>
                </g>
                <g transform="matrix(0,-0.0002024,0.0001962,0,430.519,502.983)">
                    <path d="M9525,-9525C15311.6,-9525 20002.5,-5260.51 20002.5,0C20002.5,5260.51 15311.6,9525 9525,9525C3738.44,9525 -952.5,5260.51 -952.5,0C-952.5,-5260.51 3738.44,-9525 9525,-9525" style="fill:rgb(91,158,247);stroke:white;stroke-width:3670.58px;stroke-miterlimit:2;"/>
                </g>
                <g transform="matrix(0,-0.0002024,0.0001962,0,430.519,502.983)">
                    <ellipse cx="9525" cy="0" rx="10477.5" ry="9525" style="fill:none;stroke:rgb(8,72,156);stroke-width:3670.58px;"/>
                </g>
                <g transform="matrix(0,-0.0002024,0.0001962,0,430.706,541.546)">
                    <path d="M10477.5,-10477.5C15738,-10477.5 20002.5,-5786.56 20002.5,0C20002.5,5786.56 15738,10477.5 10477.5,10477.5C5216.99,10477.5 952.5,5786.56 952.5,0C952.5,-5786.56 5216.99,-10477.5 10477.5,-10477.5" style="fill:rgb(91,158,247);stroke:white;stroke-width:3670.58px;stroke-miterlimit:2;"/>
                </g>
                <g transform="matrix(0,-0.0002024,0.0001962,0,430.706,541.546)">
                    <ellipse cx="10477.5" cy="0" rx="9525" ry="10477.5" style="fill:none;stroke:rgb(8,72,156);stroke-width:3670.58px;"/>
                </g>
                <g transform="matrix(0,-0.0002024,0.0001962,0,386.966,479.846)">
                    <path d="M10477.5,-10477.5C15738,-10477.5 20002.5,-5786.56 20002.5,0C20002.5,5786.56 15738,10477.5 10477.5,10477.5C5216.99,10477.5 952.5,5786.56 952.5,0C952.5,-5786.56 5216.99,-10477.5 10477.5,-10477.5" style="fill:rgb(91,158,247);stroke:white;stroke-width:3670.58px;stroke-miterlimit:2;"/>
                </g>
                <g transform="matrix(0,-0.0002024,0.0001962,0,386.966,479.846)">
                    <ellipse cx="10477.5" cy="0" rx="9525" ry="10477.5" style="fill:none;stroke:rgb(8,72,156);stroke-width:3670.58px;"/>
                </g>
                <g transform="matrix(0,-0.0002024,0.0001962,0,385.844,486.787)">
                    <path d="M10477.5,-10477.5C15738,-10477.5 20002.5,-5786.56 20002.5,0C20002.5,5786.56 15738,10477.5 10477.5,10477.5C5216.99,10477.5 952.5,5786.56 952.5,0C952.5,-5786.56 5216.99,-10477.5 10477.5,-10477.5" style="fill:rgb(91,158,247);stroke:white;stroke-width:3670.58px;stroke-miterlimit:2;"/>
                </g>
                <g transform="matrix(0,-0.0002024,0.0001962,0,385.844,486.787)">
                    <ellipse cx="10477.5" cy="0" rx="9525" ry="10477.5" style="fill:none;stroke:rgb(8,72,156);stroke-width:3670.58px;"/>
                </g>
                <g transform="matrix(0,-0.0002024,0.0001962,0,406.593,478.303)">
                    <path d="M9525,-9525C15311.6,-9525 20002.5,-5260.51 20002.5,0C20002.5,5260.51 15311.6,9525 9525,9525C3738.44,9525 -952.5,5260.51 -952.5,0C-952.5,-5260.51 3738.44,-9525 9525,-9525" style="fill:rgb(91,158,247);stroke:white;stroke-width:3670.58px;stroke-miterlimit:2;"/>
                </g>
                <g transform="matrix(0,-0.0002024,0.0001962,0,406.593,478.303)">
                    <ellipse cx="9525" cy="0" rx="10477.5" ry="9525" style="fill:none;stroke:rgb(8,72,156);stroke-width:3670.58px;"/>
                </g>
                <g transform="matrix(0,-0.0002024,0.0001962,0,412.574,484.473)">
                    <path d="M9525,-9525C15311.6,-9525 20002.5,-5260.51 20002.5,0C20002.5,5260.51 15311.6,9525 9525,9525C3738.44,9525 -952.5,5260.51 -952.5,0C-952.5,-5260.51 3738.44,-9525 9525,-9525" style="fill:rgb(91,158,247);stroke:white;stroke-width:3670.58px;stroke-miterlimit:2;"/>
                </g>
                <g transform="matrix(0,-0.0002024,0.0001962,0,412.574,484.473)">
                    <ellipse cx="9525" cy="0" rx="10477.5" ry="9525" style="fill:none;stroke:rgb(8,72,156);stroke-width:3670.58px;"/>
                </g>
                <g transform="matrix(0,-0.0002024,0.0001962,0,418.556,490.643)">
                    <path d="M9525,-9525C15311.6,-9525 20002.5,-5260.51 20002.5,0C20002.5,5260.51 15311.6,9525 9525,9525C3738.44,9525 -952.5,5260.51 -952.5,0C-952.5,-5260.51 3738.44,-9525 9525,-9525" style="fill:rgb(91,158,247);stroke:white;stroke-width:3670.58px;stroke-miterlimit:2;"/>
                </g>
                <g transform="matrix(0,-0.0002024,0.0001962,0,418.556,490.643)">
                    <ellipse cx="9525" cy="0" rx="10477.5" ry="9525" style="fill:none;stroke:rgb(8,72,156);stroke-width:3670.58px;"/>
                </g>
                <g transform="matrix(0,-0.0002024,0.0001962,0,424.538,496.813)">
                    <path d="M9525,-9525C15311.6,-9525 20002.5,-5260.51 20002.5,0C20002.5,5260.51 15311.6,9525 9525,9525C3738.44,9525 -952.5,5260.51 -952.5,0C-952.5,-5260.51 3738.44,-9525 9525,-9525" style="fill:rgb(91,158,247);stroke:white;stroke-width:3670.58px;stroke-miterlimit:2;"/>
                </g>
                <g transform="matrix(0,-0.0002024,0.0001962,0,424.538,496.813)">
                    <ellipse cx="9525" cy="0" rx="10477.5" ry="9525" style="fill:none;stroke:rgb(8,72,156);stroke-width:3670.58px;"/>
                </g>
                <g transform="matrix(0,-0.0002024,0.0001962,0,430.519,502.983)">
                    <path d="M9525,-9525C15311.6,-9525 20002.5,-5260.51 20002.5,0C20002.5,5260.51 15311.6,9525 9525,9525C3738.44,9525 -952.5,5260.51 -952.5,0C-952.5,-5260.51 3738.44,-9525 9525,-9525" style="fill:rgb(91,158,247);stroke:white;stroke-width:3670.58px;stroke-miterlimit:2;"/>
                </g>
                <g transform="matrix(0,-0.0002024,0.0001962,0,430.519,502.983)">
                    <ellipse cx="9525" cy="0" rx="10477.5" ry="9525" style="fill:none;stroke:rgb(8,72,156);stroke-width:3670.58px;"/>
                </g>
                <g transform="matrix(0,-0.0002024,0.0001962,0,421.734,508.96)">
                    <path d="M10477.5,-10477.5C16264.1,-10477.5 20955,-5786.56 20955,0C20955,5786.56 16264.1,10477.5 10477.5,10477.5C4690.94,10477.5 0,5786.56 0,0C0,-5786.56 4690.94,-10477.5 10477.5,-10477.5" style="fill:rgb(91,158,247);stroke:white;stroke-width:3670.58px;stroke-miterlimit:2;"/>
                </g>
                <g transform="matrix(0,-0.0002024,0.0001962,0,421.734,508.96)">
                    <circle cx="10477.5" cy="0" r="10477.5" style="fill:none;stroke:rgb(8,72,156);stroke-width:3670.58px;"/>
                </g>
                <g transform="matrix(0,-0.0002024,0.0001962,0,428.089,521.879)">
                    <path d="M10477.5,-10477.5C15738,-10477.5 20002.5,-5786.56 20002.5,0C20002.5,5786.56 15738,10477.5 10477.5,10477.5C5216.99,10477.5 952.5,5786.56 952.5,0C952.5,-5786.56 5216.99,-10477.5 10477.5,-10477.5" style="fill:rgb(91,158,247);stroke:white;stroke-width:3670.58px;stroke-miterlimit:2;"/>
                </g>
                <g transform="matrix(0,-0.0002024,0.0001962,0,428.089,521.879)">
                    <ellipse cx="10477.5" cy="0" rx="9525" ry="10477.5" style="fill:none;stroke:rgb(8,72,156);stroke-width:3670.58px;"/>
                </g>
                <g transform="matrix(0,-0.0002024,0.0001962,0,428.837,531.712)">
                    <path d="M10477.5,-10477.5C16264.1,-10477.5 20955,-5786.56 20955,0C20955,5786.56 16264.1,10477.5 10477.5,10477.5C4690.94,10477.5 0,5786.56 0,0C0,-5786.56 4690.94,-10477.5 10477.5,-10477.5" style="fill:rgb(91,158,247);stroke:white;stroke-width:3670.58px;stroke-miterlimit:2;"/>
                </g>
                <g transform="matrix(0,-0.0002024,0.0001962,0,428.837,531.712)">
                    <circle cx="10477.5" cy="0" r="10477.5" style="fill:none;stroke:rgb(8,72,156);stroke-width:3670.58px;"/>
                </g>
                <g transform="matrix(0,-0.0002024,0.0001962,0,417.808,502.405)">
                    <path d="M9525,-9525C14785.5,-9525 19050,-5260.51 19050,0C19050,5260.51 14785.5,9525 9525,9525C4264.49,9525 0,5260.51 0,0C0,-5260.51 4264.49,-9525 9525,-9525" style="fill:rgb(91,158,247);stroke:white;stroke-width:3670.58px;stroke-miterlimit:2;"/>
                </g>
                <g transform="matrix(0,-0.0002024,0.0001962,0,417.808,502.405)">
                    <circle cx="9525" cy="0" r="9525" style="fill:none;stroke:rgb(8,72,156);stroke-width:3670.58px;"/>
                </g>
                <g transform="matrix(0,-0.0002024,0.0001962,0,423.603,535.762)">
                    <path d="M10477.5,-10477.5C15738,-10477.5 20002.5,-5786.56 20002.5,0C20002.5,5786.56 15738,10477.5 10477.5,10477.5C5216.99,10477.5 952.5,5786.56 952.5,0C952.5,-5786.56 5216.99,-10477.5 10477.5,-10477.5" style="fill:rgb(91,158,247);stroke:white;stroke-width:3670.58px;stroke-miterlimit:2;"/>
                </g>
                <g transform="matrix(0,-0.0002024,0.0001962,0,423.603,535.762)">
                    <ellipse cx="10477.5" cy="0" rx="9525" ry="10477.5" style="fill:none;stroke:rgb(8,72,156);stroke-width:3670.58px;"/>
                </g>
                <g transform="matrix(0,-0.0002024,0.0001962,0,427.715,552.343)">
                    <path d="M10477.5,-10477.5C15738,-10477.5 20002.5,-5786.56 20002.5,0C20002.5,5786.56 15738,10477.5 10477.5,10477.5C5216.99,10477.5 952.5,5786.56 952.5,0C952.5,-5786.56 5216.99,-10477.5 10477.5,-10477.5" style="fill:rgb(91,158,247);stroke:white;stroke-width:3670.58px;stroke-miterlimit:2;"/>
                </g>
                <g transform="matrix(0,-0.0002024,0.0001962,0,427.715,552.343)">
                    <ellipse cx="10477.5" cy="0" rx="9525" ry="10477.5" style="fill:none;stroke:rgb(8,72,156);stroke-width:3670.58px;"/>
                </g>
                <g transform="matrix(0,-0.0002024,0.0001962,0,424.164,499.513)">
                    <path d="M9525,-9525C15311.6,-9525 20002.5,-5260.51 20002.5,0C20002.5,5260.51 15311.6,9525 9525,9525C3738.44,9525 -952.5,5260.51 -952.5,0C-952.5,-5260.51 3738.44,-9525 9525,-9525" style="fill:rgb(91,158,247);stroke:white;stroke-width:3670.58px;stroke-miterlimit:2;"/>
                </g>
                <g transform="matrix(0,-0.0002024,0.0001962,0,424.164,499.513)">
                    <ellipse cx="9525" cy="0" rx="10477.5" ry="9525" style="fill:none;stroke:rgb(8,72,156);stroke-width:3670.58px;"/>
                </g>
                <g transform="matrix(0,-0.0002024,0.0001962,0,433.136,534.026)">
                    <path d="M9525,-9525C14785.5,-9525 19050,-5260.51 19050,0C19050,5260.51 14785.5,9525 9525,9525C4264.49,9525 0,5260.51 0,0C0,-5260.51 4264.49,-9525 9525,-9525" style="fill:rgb(91,158,247);stroke:white;stroke-width:3670.58px;stroke-miterlimit:2;"/>
                </g>
                <g transform="matrix(0,-0.0002024,0.0001962,0,433.136,534.026)">
                    <circle cx="9525" cy="0" r="9525" style="fill:none;stroke:rgb(8,72,156);stroke-width:3670.58px;"/>
                </g>
                <g transform="matrix(0,-0.0002024,0.0001962,0,406.78,492.571)">
                    <path d="M10477.5,-10477.5C15738,-10477.5 20002.5,-5786.56 20002.5,0C20002.5,5786.56 15738,10477.5 10477.5,10477.5C5216.99,10477.5 952.5,5786.56 952.5,0C952.5,-5786.56 5216.99,-10477.5 10477.5,-10477.5" style="fill:rgb(91,158,247);stroke:white;stroke-width:3670.58px;stroke-miterlimit:2;"/>
                </g>
                <g transform="matrix(0,-0.0002024,0.0001962,0,406.78,492.571)">
                    <ellipse cx="10477.5" cy="0" rx="9525" ry="10477.5" style="fill:none;stroke:rgb(8,72,156);stroke-width:3670.58px;"/>
                </g>
                <g transform="matrix(0,-0.0002024,0.0001962,0,361.17,482.159)">
                    <path d="M10477.5,-10477.5C15738,-10477.5 20002.5,-5786.56 20002.5,0C20002.5,5786.56 15738,10477.5 10477.5,10477.5C5216.99,10477.5 952.5,5786.56 952.5,0C952.5,-5786.56 5216.99,-10477.5 10477.5,-10477.5" style="fill:rgb(91,158,247);stroke:white;stroke-width:3670.58px;stroke-miterlimit:2;"/>
                </g>
                <g transform="matrix(0,-0.0002024,0.0001962,0,361.17,482.159)">
                    <ellipse cx="10477.5" cy="0" rx="9525" ry="10477.5" style="fill:none;stroke:rgb(8,72,156);stroke-width:3670.58px;"/>
                </g>
                <g transform="matrix(0,-0.0002024,0.0001962,0,424.724,501.826)">
                    <path d="M10477.5,-10477.5C15738,-10477.5 20002.5,-5786.56 20002.5,0C20002.5,5786.56 15738,10477.5 10477.5,10477.5C5216.99,10477.5 952.5,5786.56 952.5,0C952.5,-5786.56 5216.99,-10477.5 10477.5,-10477.5" style="fill:rgb(91,158,247);stroke:white;stroke-width:3670.58px;stroke-miterlimit:2;"/>
                </g>
                <g transform="matrix(0,-0.0002024,0.0001962,0,424.724,501.826)">
                    <ellipse cx="10477.5" cy="0" rx="9525" ry="10477.5" style="fill:none;stroke:rgb(8,72,156);stroke-width:3670.58px;"/>
                </g>
                <g transform="matrix(0,-0.0002024,0.0001962,0,360.422,477.146)">
                    <path d="M10477.5,-10477.5C15738,-10477.5 20002.5,-5786.56 20002.5,0C20002.5,5786.56 15738,10477.5 10477.5,10477.5C5216.99,10477.5 952.5,5786.56 952.5,0C952.5,-5786.56 5216.99,-10477.5 10477.5,-10477.5" style="fill:rgb(91,158,247);stroke:white;stroke-width:3670.58px;stroke-miterlimit:2;"/>
                </g>
                <g transform="matrix(0,-0.0002024,0.0001962,0,360.422,477.146)">
                    <ellipse cx="10477.5" cy="0" rx="9525" ry="10477.5" style="fill:none;stroke:rgb(8,72,156);stroke-width:3670.58px;"/>
                </g>
                <g transform="matrix(0,-0.0002024,0.0001962,0,421.547,487.173)">
                    <path d="M9525,-9525C15311.6,-9525 20002.5,-5260.51 20002.5,0C20002.5,5260.51 15311.6,9525 9525,9525C3738.44,9525 -952.5,5260.51 -952.5,0C-952.5,-5260.51 3738.44,-9525 9525,-9525" style="fill:rgb(91,158,247);stroke:white;stroke-width:3670.58px;stroke-miterlimit:2;"/>
                </g>
                <g transform="matrix(0,-0.0002024,0.0001962,0,421.547,487.173)">
                    <ellipse cx="9525" cy="0" rx="10477.5" ry="9525" style="fill:none;stroke:rgb(8,72,156);stroke-width:3670.58px;"/>
                </g>
                <g transform="matrix(0,-0.0002024,0.0001962,0,349.954,474.64)">
                    <path d="M10477.5,-10477.5C16264.1,-10477.5 20955,-5786.56 20955,0C20955,5786.56 16264.1,10477.5 10477.5,10477.5C4690.94,10477.5 0,5786.56 0,0C0,-5786.56 4690.94,-10477.5 10477.5,-10477.5" style="fill:rgb(91,158,247);stroke:white;stroke-width:3670.58px;stroke-miterlimit:2;"/>
                </g>
                <g transform="matrix(0,-0.0002024,0.0001962,0,349.954,474.64)">
                    <circle cx="10477.5" cy="0" r="10477.5" style="fill:none;stroke:rgb(8,72,156);stroke-width:3670.58px;"/>
                </g>
                <g transform="matrix(0,-0.0002024,0.0001962,0,430.332,512.431)">
                    <path d="M10477.5,-10477.5C16264.1,-10477.5 20955,-5786.56 20955,0C20955,5786.56 16264.1,10477.5 10477.5,10477.5C4690.94,10477.5 0,5786.56 0,0C0,-5786.56 4690.94,-10477.5 10477.5,-10477.5" style="fill:rgb(91,158,247);stroke:white;stroke-width:3670.58px;stroke-miterlimit:2;"/>
                </g>
                <g transform="matrix(0,-0.0002024,0.0001962,0,430.332,512.431)">
                    <circle cx="10477.5" cy="0" r="10477.5" style="fill:none;stroke:rgb(8,72,156);stroke-width:3670.58px;"/>
                </g>
                <g transform="matrix(0,-0.0002024,0.0001962,0,392.386,475.989)">
                    <path d="M9525,-9525C15311.6,-9525 20002.5,-5260.51 20002.5,0C20002.5,5260.51 15311.6,9525 9525,9525C3738.44,9525 -952.5,5260.51 -952.5,0C-952.5,-5260.51 3738.44,-9525 9525,-9525" style="fill:rgb(91,158,247);stroke:white;stroke-width:3670.58px;stroke-miterlimit:2;"/>
                </g>
                <g transform="matrix(0,-0.0002024,0.0001962,0,392.386,475.989)">
                    <ellipse cx="9525" cy="0" rx="10477.5" ry="9525" style="fill:none;stroke:rgb(8,72,156);stroke-width:3670.58px;"/>
                </g>
                <g transform="matrix(0,-0.0002024,0.0001962,0,435.379,532.098)">
                    <path d="M9525,-9525C14785.5,-9525 19050,-5260.51 19050,0C19050,5260.51 14785.5,9525 9525,9525C4264.49,9525 0,5260.51 0,0C0,-5260.51 4264.49,-9525 9525,-9525" style="fill:rgb(91,158,247);stroke:white;stroke-width:3670.58px;stroke-miterlimit:2;"/>
                </g>
                <g transform="matrix(0,-0.0002024,0.0001962,0,435.379,532.098)">
                    <circle cx="9525" cy="0" r="9525" style="fill:none;stroke:rgb(8,72,156);stroke-width:3670.58px;"/>
                </g>
                <g transform="matrix(0,-0.0002024,0.0001962,0,367.152,479.267)">
                    <path d="M10477.5,-10477.5C16264.1,-10477.5 20955,-5786.56 20955,0C20955,5786.56 16264.1,10477.5 10477.5,10477.5C4690.94,10477.5 0,5786.56 0,0C0,-5786.56 4690.94,-10477.5 10477.5,-10477.5" style="fill:rgb(91,158,247);stroke:white;stroke-width:3670.58px;stroke-miterlimit:2;"/>
                </g>
                <g transform="matrix(0,-0.0002024,0.0001962,0,367.152,479.267)">
                    <circle cx="10477.5" cy="0" r="10477.5" style="fill:none;stroke:rgb(8,72,156);stroke-width:3670.58px;"/>
                </g>
                <g transform="matrix(0,-0.0002024,0.0001962,0,383.227,477.725)">
                    <path d="M10477.5,-10477.5C16264.1,-10477.5 20955,-5786.56 20955,0C20955,5786.56 16264.1,10477.5 10477.5,10477.5C4690.94,10477.5 0,5786.56 0,0C0,-5786.56 4690.94,-10477.5 10477.5,-10477.5" style="fill:rgb(91,158,247);stroke:white;stroke-width:3670.58px;stroke-miterlimit:2;"/>
                </g>
                <g transform="matrix(0,-0.0002024,0.0001962,0,383.227,477.725)">
                    <circle cx="10477.5" cy="0" r="10477.5" style="fill:none;stroke:rgb(8,72,156);stroke-width:3670.58px;"/>
                </g>
                <g transform="matrix(0,-0.0002024,0.0001962,0,379.302,472.519)">
                    <path d="M9525,-9525C15311.6,-9525 20002.5,-5260.51 20002.5,0C20002.5,5260.51 15311.6,9525 9525,9525C3738.44,9525 -952.5,5260.51 -952.5,0C-952.5,-5260.51 3738.44,-9525 9525,-9525" style="fill:rgb(91,158,247);stroke:white;stroke-width:3670.58px;stroke-miterlimit:2;"/>
                </g>
                <g transform="matrix(0,-0.0002024,0.0001962,0,379.302,472.519)">
                    <ellipse cx="9525" cy="0" rx="10477.5" ry="9525" style="fill:none;stroke:rgb(8,72,156);stroke-width:3670.58px;"/>
                </g>
                <g transform="matrix(0,-0.0002024,0.0001962,0,361.544,471.747)">
                    <path d="M10477.5,-10477.5C15738,-10477.5 20002.5,-5786.56 20002.5,0C20002.5,5786.56 15738,10477.5 10477.5,10477.5C5216.99,10477.5 952.5,5786.56 952.5,0C952.5,-5786.56 5216.99,-10477.5 10477.5,-10477.5" style="fill:rgb(91,158,247);stroke:white;stroke-width:3670.58px;stroke-miterlimit:2;"/>
                </g>
                <g transform="matrix(0,-0.0002024,0.0001962,0,361.544,471.747)">
                    <ellipse cx="10477.5" cy="0" rx="9525" ry="10477.5" style="fill:none;stroke:rgb(8,72,156);stroke-width:3670.58px;"/>
                </g>
                <g transform="matrix(0,-0.0002024,0.0001962,0,355.936,474.061)">
                    <path d="M10477.5,-10477.5C15738,-10477.5 20002.5,-5786.56 20002.5,0C20002.5,5786.56 15738,10477.5 10477.5,10477.5C5216.99,10477.5 952.5,5786.56 952.5,0C952.5,-5786.56 5216.99,-10477.5 10477.5,-10477.5" style="fill:rgb(91,158,247);stroke:white;stroke-width:3670.58px;stroke-miterlimit:2;"/>
                </g>
                <g transform="matrix(0,-0.0002024,0.0001962,0,355.936,474.061)">
                    <ellipse cx="10477.5" cy="0" rx="9525" ry="10477.5" style="fill:none;stroke:rgb(8,72,156);stroke-width:3670.58px;"/>
                </g>
                <g transform="matrix(0,-0.0002024,0.0001962,0,364.908,484.28)">
                    <path d="M10477.5,-10477.5C16264.1,-10477.5 20955,-5786.56 20955,0C20955,5786.56 16264.1,10477.5 10477.5,10477.5C4690.94,10477.5 0,5786.56 0,0C0,-5786.56 4690.94,-10477.5 10477.5,-10477.5" style="fill:rgb(91,158,247);stroke:white;stroke-width:3670.58px;stroke-miterlimit:2;"/>
                </g>
                <g transform="matrix(0,-0.0002024,0.0001962,0,364.908,484.28)">
                    <circle cx="10477.5" cy="0" r="10477.5" style="fill:none;stroke:rgb(8,72,156);stroke-width:3670.58px;"/>
                </g>
                <g transform="matrix(0,-0.0002024,0.0001962,0,423.229,549.451)">
                    <path d="M10477.5,-10477.5C16264.1,-10477.5 20955,-5786.56 20955,0C20955,5786.56 16264.1,10477.5 10477.5,10477.5C4690.94,10477.5 0,5786.56 0,0C0,-5786.56 4690.94,-10477.5 10477.5,-10477.5" style="fill:rgb(91,158,247);stroke:white;stroke-width:3670.58px;stroke-miterlimit:2;"/>
                </g>
                <g transform="matrix(0,-0.0002024,0.0001962,0,423.229,549.451)">
                    <circle cx="10477.5" cy="0" r="10477.5" style="fill:none;stroke:rgb(8,72,156);stroke-width:3670.58px;"/>
                </g>
                <g transform="matrix(0,-0.0002024,0.0001962,0,426.033,556.585)">
                    <path d="M9525,-9525C15311.6,-9525 20002.5,-5260.51 20002.5,0C20002.5,5260.51 15311.6,9525 9525,9525C3738.44,9525 -952.5,5260.51 -952.5,0C-952.5,-5260.51 3738.44,-9525 9525,-9525" style="fill:rgb(91,158,247);stroke:white;stroke-width:3670.58px;stroke-miterlimit:2;"/>
                </g>
                <g transform="matrix(0,-0.0002024,0.0001962,0,426.033,556.585)">
                    <ellipse cx="9525" cy="0" rx="10477.5" ry="9525" style="fill:none;stroke:rgb(8,72,156);stroke-width:3670.58px;"/>
                </g>
                <g transform="matrix(0,-0.0002024,0.0001962,0,390.704,481.002)">
                    <path d="M10477.5,-10477.5C15738,-10477.5 20002.5,-5786.56 20002.5,0C20002.5,5786.56 15738,10477.5 10477.5,10477.5C5216.99,10477.5 952.5,5786.56 952.5,0C952.5,-5786.56 5216.99,-10477.5 10477.5,-10477.5" style="fill:rgb(91,158,247);stroke:white;stroke-width:3670.58px;stroke-miterlimit:2;"/>
                </g>
                <g transform="matrix(0,-0.0002024,0.0001962,0,390.704,481.002)">
                    <ellipse cx="10477.5" cy="0" rx="9525" ry="10477.5" style="fill:none;stroke:rgb(8,72,156);stroke-width:3670.58px;"/>
                </g>
                <g transform="matrix(0,-0.0002024,0.0001962,0,353.693,483.702)">
                    <path d="M10477.5,-10477.5C15738,-10477.5 20002.5,-5786.56 20002.5,0C20002.5,5786.56 15738,10477.5 10477.5,10477.5C5216.99,10477.5 952.5,5786.56 952.5,0C952.5,-5786.56 5216.99,-10477.5 10477.5,-10477.5" style="fill:rgb(91,158,247);stroke:white;stroke-width:3670.58px;stroke-miterlimit:2;"/>
                </g>
                <g transform="matrix(0,-0.0002024,0.0001962,0,353.693,483.702)">
                    <ellipse cx="10477.5" cy="0" rx="9525" ry="10477.5" style="fill:none;stroke:rgb(8,72,156);stroke-width:3670.58px;"/>
                </g>
                <g transform="matrix(0,-0.0002024,0.0001962,0,370.516,472.133)">
                    <path d="M10477.5,-10477.5C15738,-10477.5 20002.5,-5786.56 20002.5,0C20002.5,5786.56 15738,10477.5 10477.5,10477.5C5216.99,10477.5 952.5,5786.56 952.5,0C952.5,-5786.56 5216.99,-10477.5 10477.5,-10477.5" style="fill:rgb(91,158,247);stroke:white;stroke-width:3670.58px;stroke-miterlimit:2;"/>
                </g>
                <g transform="matrix(0,-0.0002024,0.0001962,0,370.516,472.133)">
                    <ellipse cx="10477.5" cy="0" rx="9525" ry="10477.5" style="fill:none;stroke:rgb(8,72,156);stroke-width:3670.58px;"/>
                </g>
                <g transform="matrix(0,-0.0002024,0.0001962,0,432.575,507.996)">
                    <path d="M10477.5,-10477.5C15738,-10477.5 20002.5,-5786.56 20002.5,0C20002.5,5786.56 15738,10477.5 10477.5,10477.5C5216.99,10477.5 952.5,5786.56 952.5,0C952.5,-5786.56 5216.99,-10477.5 10477.5,-10477.5" style="fill:rgb(91,158,247);stroke:white;stroke-width:3670.58px;stroke-miterlimit:2;"/>
                </g>
                <g transform="matrix(0,-0.0002024,0.0001962,0,432.575,507.996)">
                    <ellipse cx="10477.5" cy="0" rx="9525" ry="10477.5" style="fill:none;stroke:rgb(8,72,156);stroke-width:3670.58px;"/>
                </g>
                <g transform="matrix(0,-0.0002024,0.0001962,0,425.846,509.924)">
                    <path d="M10477.5,-10477.5C15738,-10477.5 20002.5,-5786.56 20002.5,0C20002.5,5786.56 15738,10477.5 10477.5,10477.5C5216.99,10477.5 952.5,5786.56 952.5,0C952.5,-5786.56 5216.99,-10477.5 10477.5,-10477.5" style="fill:rgb(91,158,247);stroke:white;stroke-width:3670.58px;stroke-miterlimit:2;"/>
                </g>
                <g transform="matrix(0,-0.0002024,0.0001962,0,425.846,509.924)">
                    <ellipse cx="10477.5" cy="0" rx="9525" ry="10477.5" style="fill:none;stroke:rgb(8,72,156);stroke-width:3670.58px;"/>
                </g>
                <g transform="matrix(0,-0.0002024,0.0001962,0,422.668,517.059)">
                    <path d="M9525,-9525C14785.5,-9525 19050,-5260.51 19050,0C19050,5260.51 14785.5,9525 9525,9525C4264.49,9525 0,5260.51 0,0C0,-5260.51 4264.49,-9525 9525,-9525" style="fill:rgb(91,158,247);stroke:white;stroke-width:3670.58px;stroke-miterlimit:2;"/>
                </g>
                <g transform="matrix(0,-0.0002024,0.0001962,0,422.668,517.059)">
                    <circle cx="9525" cy="0" r="9525" style="fill:none;stroke:rgb(8,72,156);stroke-width:3670.58px;"/>
                </g>
                <g transform="matrix(0,-0.0002024,0.0001962,0,430.893,548.102)">
                    <path d="M9525,-9525C15311.6,-9525 20002.5,-5260.51 20002.5,0C20002.5,5260.51 15311.6,9525 9525,9525C3738.44,9525 -952.5,5260.51 -952.5,0C-952.5,-5260.51 3738.44,-9525 9525,-9525" style="fill:rgb(91,158,247);stroke:white;stroke-width:3670.58px;stroke-miterlimit:2;"/>
                </g>
                <g transform="matrix(0,-0.0002024,0.0001962,0,430.893,548.102)">
                    <ellipse cx="9525" cy="0" rx="10477.5" ry="9525" style="fill:none;stroke:rgb(8,72,156);stroke-width:3670.58px;"/>
                </g>
                <g transform="matrix(0,-0.0002024,0.0001962,0,432.201,527.663)">
                    <path d="M10477.5,-10477.5C15738,-10477.5 20002.5,-5786.56 20002.5,0C20002.5,5786.56 15738,10477.5 10477.5,10477.5C5216.99,10477.5 952.5,5786.56 952.5,0C952.5,-5786.56 5216.99,-10477.5 10477.5,-10477.5" style="fill:rgb(91,158,247);stroke:white;stroke-width:3670.58px;stroke-miterlimit:2;"/>
                </g>
                <g transform="matrix(0,-0.0002024,0.0001962,0,432.201,527.663)">
                    <ellipse cx="10477.5" cy="0" rx="9525" ry="10477.5" style="fill:none;stroke:rgb(8,72,156);stroke-width:3670.58px;"/>
                </g>
                <g transform="matrix(0,-0.0002024,0.0001962,0,431.828,556.971)">
                    <path d="M10477.5,-10477.5C15738,-10477.5 20002.5,-5786.56 20002.5,0C20002.5,5786.56 15738,10477.5 10477.5,10477.5C5216.99,10477.5 952.5,5786.56 952.5,0C952.5,-5786.56 5216.99,-10477.5 10477.5,-10477.5" style="fill:rgb(91,158,247);stroke:white;stroke-width:3670.58px;stroke-miterlimit:2;"/>
                </g>
                <g transform="matrix(0,-0.0002024,0.0001962,0,431.828,556.971)">
                    <ellipse cx="10477.5" cy="0" rx="9525" ry="10477.5" style="fill:none;stroke:rgb(8,72,156);stroke-width:3670.58px;"/>
                </g>
                <g transform="matrix(0,-0.0002024,0.0001962,0,400.424,477.917)">
                    <path d="M10477.5,-10477.5C15738,-10477.5 20002.5,-5786.56 20002.5,0C20002.5,5786.56 15738,10477.5 10477.5,10477.5C5216.99,10477.5 952.5,5786.56 952.5,0C952.5,-5786.56 5216.99,-10477.5 10477.5,-10477.5" style="fill:rgb(91,158,247);stroke:white;stroke-width:3670.58px;stroke-miterlimit:2;"/>
                </g>
                <g transform="matrix(0,-0.0002024,0.0001962,0,400.424,477.917)">
                    <ellipse cx="10477.5" cy="0" rx="9525" ry="10477.5" style="fill:none;stroke:rgb(8,72,156);stroke-width:3670.58px;"/>
                </g>
                <g transform="matrix(0,-0.0002024,0.0001962,0,405.658,485.63)">
                    <path d="M10477.5,-10477.5C15738,-10477.5 20002.5,-5786.56 20002.5,0C20002.5,5786.56 15738,10477.5 10477.5,10477.5C5216.99,10477.5 952.5,5786.56 952.5,0C952.5,-5786.56 5216.99,-10477.5 10477.5,-10477.5" style="fill:rgb(91,158,247);stroke:white;stroke-width:3670.58px;stroke-miterlimit:2;"/>
                </g>
                <g transform="matrix(0,-0.0002024,0.0001962,0,405.658,485.63)">
                    <ellipse cx="10477.5" cy="0" rx="9525" ry="10477.5" style="fill:none;stroke:rgb(8,72,156);stroke-width:3670.58px;"/>
                </g>
                <g transform="matrix(0,-0.0002024,0.0001962,0,372.385,476.182)">
                    <path d="M10477.5,-10477.5C16264.1,-10477.5 20955,-5786.56 20955,0C20955,5786.56 16264.1,10477.5 10477.5,10477.5C4690.94,10477.5 0,5786.56 0,0C0,-5786.56 4690.94,-10477.5 10477.5,-10477.5" style="fill:rgb(91,158,247);stroke:white;stroke-width:3670.58px;stroke-miterlimit:2;"/>
                </g>
                <g transform="matrix(0,-0.0002024,0.0001962,0,372.385,476.182)">
                    <circle cx="10477.5" cy="0" r="10477.5" style="fill:none;stroke:rgb(8,72,156);stroke-width:3670.58px;"/>
                </g>
                <g transform="matrix(0,-0.0002024,0.0001962,0,423.79,530.556)">
                    <path d="M9525,-9525C14785.5,-9525 19050,-5260.51 19050,0C19050,5260.51 14785.5,9525 9525,9525C4264.49,9525 0,5260.51 0,0C0,-5260.51 4264.49,-9525 9525,-9525" style="fill:rgb(91,158,247);stroke:white;stroke-width:3670.58px;stroke-miterlimit:2;"/>
                </g>
                <g transform="matrix(0,-0.0002024,0.0001962,0,423.79,530.556)">
                    <circle cx="9525" cy="0" r="9525" style="fill:none;stroke:rgb(8,72,156);stroke-width:3670.58px;"/>
                </g>
                <g transform="matrix(0,-0.0002024,0.0001962,0,354.815,476.761)">
                    <path d="M10477.5,-10477.5C15738,-10477.5 20002.5,-5786.56 20002.5,0C20002.5,5786.56 15738,10477.5 10477.5,10477.5C5216.99,10477.5 952.5,5786.56 952.5,0C952.5,-5786.56 5216.99,-10477.5 10477.5,-10477.5" style="fill:rgb(91,158,247);stroke:white;stroke-width:3670.58px;stroke-miterlimit:2;"/>
                </g>
                <g transform="matrix(0,-0.0002024,0.0001962,0,354.815,476.761)">
                    <ellipse cx="10477.5" cy="0" rx="9525" ry="10477.5" style="fill:none;stroke:rgb(8,72,156);stroke-width:3670.58px;"/>
                </g>
                <g transform="matrix(0,-0.0002024,0.0001962,0,428.65,561.598)">
                    <path d="M9525,-9525C15311.6,-9525 20002.5,-5260.51 20002.5,0C20002.5,5260.51 15311.6,9525 9525,9525C3738.44,9525 -952.5,5260.51 -952.5,0C-952.5,-5260.51 3738.44,-9525 9525,-9525" style="fill:rgb(91,158,247);stroke:white;stroke-width:3670.58px;stroke-miterlimit:2;"/>
                </g>
                <g transform="matrix(0,-0.0002024,0.0001962,0,428.65,561.598)">
                    <ellipse cx="9525" cy="0" rx="10477.5" ry="9525" style="fill:none;stroke:rgb(8,72,156);stroke-width:3670.58px;"/>
                </g>
                <g transform="matrix(0,-0.0002024,0.0001962,0,433.697,563.527)">
                    <path d="M10477.5,-10477.5C15738,-10477.5 20002.5,-5786.56 20002.5,0C20002.5,5786.56 15738,10477.5 10477.5,10477.5C5216.99,10477.5 952.5,5786.56 952.5,0C952.5,-5786.56 5216.99,-10477.5 10477.5,-10477.5" style="fill:rgb(91,158,247);stroke:white;stroke-width:3670.58px;stroke-miterlimit:2;"/>
                </g>
                <g transform="matrix(0,-0.0002024,0.0001962,0,433.697,563.527)">
                    <ellipse cx="10477.5" cy="0" rx="9525" ry="10477.5" style="fill:none;stroke:rgb(8,72,156);stroke-width:3670.58px;"/>
                </g>
                <g transform="matrix(0,-0.0002024,0.0001962,0,387.339,473.676)">
                    <path d="M10477.5,-10477.5C15738,-10477.5 20002.5,-5786.56 20002.5,0C20002.5,5786.56 15738,10477.5 10477.5,10477.5C5216.99,10477.5 952.5,5786.56 952.5,0C952.5,-5786.56 5216.99,-10477.5 10477.5,-10477.5" style="fill:rgb(91,158,247);stroke:white;stroke-width:3670.58px;stroke-miterlimit:2;"/>
                </g>
                <g transform="matrix(0,-0.0002024,0.0001962,0,387.339,473.676)">
                    <ellipse cx="10477.5" cy="0" rx="9525" ry="10477.5" style="fill:none;stroke:rgb(8,72,156);stroke-width:3670.58px;"/>
                </g>
                <g transform="matrix(0,-0.0002024,0.0001962,0,375.376,481.388)">
                    <path d="M10477.5,-10477.5C15738,-10477.5 20002.5,-5786.56 20002.5,0C20002.5,5786.56 15738,10477.5 10477.5,10477.5C5216.99,10477.5 952.5,5786.56 952.5,0C952.5,-5786.56 5216.99,-10477.5 10477.5,-10477.5" style="fill:rgb(91,158,247);stroke:white;stroke-width:3670.58px;stroke-miterlimit:2;"/>
                </g>
                <g transform="matrix(0,-0.0002024,0.0001962,0,375.376,481.388)">
                    <ellipse cx="10477.5" cy="0" rx="9525" ry="10477.5" style="fill:none;stroke:rgb(8,72,156);stroke-width:3670.58px;"/>
                </g>
                <g transform="matrix(0,-0.0002024,0.0001962,0,415.378,491.029)">
                    <path d="M10477.5,-10477.5C15738,-10477.5 20002.5,-5786.56 20002.5,0C20002.5,5786.56 15738,10477.5 10477.5,10477.5C5216.99,10477.5 952.5,5786.56 952.5,0C952.5,-5786.56 5216.99,-10477.5 10477.5,-10477.5" style="fill:rgb(91,158,247);stroke:white;stroke-width:3670.58px;stroke-miterlimit:2;"/>
                </g>
                <g transform="matrix(0,-0.0002024,0.0001962,0,415.378,491.029)">
                    <ellipse cx="10477.5" cy="0" rx="9525" ry="10477.5" style="fill:none;stroke:rgb(8,72,156);stroke-width:3670.58px;"/>
                </g>
                <g transform="matrix(0,-0.0002024,0.0001962,0,429.398,499.127)">
                    <path d="M9525,-9525C15311.6,-9525 20002.5,-5260.51 20002.5,0C20002.5,5260.51 15311.6,9525 9525,9525C3738.44,9525 -952.5,5260.51 -952.5,0C-952.5,-5260.51 3738.44,-9525 9525,-9525" style="fill:rgb(91,158,247);stroke:white;stroke-width:3670.58px;stroke-miterlimit:2;"/>
                </g>
                <g transform="matrix(0,-0.0002024,0.0001962,0,429.398,499.127)">
                    <ellipse cx="9525" cy="0" rx="10477.5" ry="9525" style="fill:none;stroke:rgb(8,72,156);stroke-width:3670.58px;"/>
                </g>
                <g transform="matrix(0,-0.0002024,0.0001962,0,422.481,521.879)">
                    <path d="M10477.5,-10477.5C15738,-10477.5 20002.5,-5786.56 20002.5,0C20002.5,5786.56 15738,10477.5 10477.5,10477.5C5216.99,10477.5 952.5,5786.56 952.5,0C952.5,-5786.56 5216.99,-10477.5 10477.5,-10477.5" style="fill:rgb(91,158,247);stroke:white;stroke-width:3670.58px;stroke-miterlimit:2;"/>
                </g>
                <g transform="matrix(0,-0.0002024,0.0001962,0,422.481,521.879)">
                    <ellipse cx="10477.5" cy="0" rx="9525" ry="10477.5" style="fill:none;stroke:rgb(8,72,156);stroke-width:3670.58px;"/>
                </g>
                <g transform="matrix(0,-0.0002024,0.0001962,0,424.538,542.124)">
                    <path d="M9525,-9525C14785.5,-9525 19050,-5260.51 19050,0C19050,5260.51 14785.5,9525 9525,9525C4264.49,9525 0,5260.51 0,0C0,-5260.51 4264.49,-9525 9525,-9525" style="fill:rgb(91,158,247);stroke:white;stroke-width:3670.58px;stroke-miterlimit:2;"/>
                </g>
                <g transform="matrix(0,-0.0002024,0.0001962,0,424.538,542.124)">
                    <circle cx="9525" cy="0" r="9525" style="fill:none;stroke:rgb(8,72,156);stroke-width:3670.58px;"/>
                </g>
                <g transform="matrix(0,-0.0002024,0.0001962,0,432.949,519.372)">
                    <path d="M10477.5,-10477.5C16264.1,-10477.5 20955,-5786.56 20955,0C20955,5786.56 16264.1,10477.5 10477.5,10477.5C4690.94,10477.5 0,5786.56 0,0C0,-5786.56 4690.94,-10477.5 10477.5,-10477.5" style="fill:rgb(91,158,247);stroke:white;stroke-width:3670.58px;stroke-miterlimit:2;"/>
                </g>
                <g transform="matrix(0,-0.0002024,0.0001962,0,432.949,519.372)">
                    <circle cx="10477.5" cy="0" r="10477.5" style="fill:none;stroke:rgb(8,72,156);stroke-width:3670.58px;"/>
                </g>
                <g transform="matrix(0,-0.0002024,0.0001962,0,435.566,547.716)">
                    <path d="M10477.5,-10477.5C15738,-10477.5 20002.5,-5786.56 20002.5,0C20002.5,5786.56 15738,10477.5 10477.5,10477.5C5216.99,10477.5 952.5,5786.56 952.5,0C952.5,-5786.56 5216.99,-10477.5 10477.5,-10477.5" style="fill:rgb(91,158,247);stroke:white;stroke-width:3670.58px;stroke-miterlimit:2;"/>
                </g>
                <g transform="matrix(0,-0.0002024,0.0001962,0,435.566,547.716)">
                    <ellipse cx="10477.5" cy="0" rx="9525" ry="10477.5" style="fill:none;stroke:rgb(8,72,156);stroke-width:3670.58px;"/>
                </g>
                <g transform="matrix(0,-0.0002024,0.0001962,0,429.211,545.017)">
                    <path d="M10477.5,-10477.5C15738,-10477.5 20002.5,-5786.56 20002.5,0C20002.5,5786.56 15738,10477.5 10477.5,10477.5C5216.99,10477.5 952.5,5786.56 952.5,0C952.5,-5786.56 5216.99,-10477.5 10477.5,-10477.5" style="fill:rgb(91,158,247);stroke:white;stroke-width:3670.58px;stroke-miterlimit:2;"/>
                </g>
                <g transform="matrix(0,-0.0002024,0.0001962,0,429.211,545.017)">
                    <ellipse cx="10477.5" cy="0" rx="9525" ry="10477.5" style="fill:none;stroke:rgb(8,72,156);stroke-width:3670.58px;"/>
                </g>
                <g transform="matrix(0,-0.0002024,0.0001962,0,383.04,482.738)">
                    <path d="M9525,-9525C14785.5,-9525 19050,-5260.51 19050,0C19050,5260.51 14785.5,9525 9525,9525C4264.49,9525 0,5260.51 0,0C0,-5260.51 4264.49,-9525 9525,-9525" style="fill:rgb(91,158,247);stroke:white;stroke-width:3670.58px;stroke-miterlimit:2;"/>
                </g>
                <g transform="matrix(0,-0.0002024,0.0001962,0,383.04,482.738)">
                    <circle cx="9525" cy="0" r="9525" style="fill:none;stroke:rgb(8,72,156);stroke-width:3670.58px;"/>
                </g>
                <g transform="matrix(0,-0.0002024,0.0001962,0,424.724,527.085)">
                    <path d="M10477.5,-10477.5C16264.1,-10477.5 20955,-5786.56 20955,0C20955,5786.56 16264.1,10477.5 10477.5,10477.5C4690.94,10477.5 0,5786.56 0,0C0,-5786.56 4690.94,-10477.5 10477.5,-10477.5" style="fill:rgb(91,158,247);stroke:white;stroke-width:3670.58px;stroke-miterlimit:2;"/>
                </g>
                <g transform="matrix(0,-0.0002024,0.0001962,0,424.724,527.085)">
                    <circle cx="10477.5" cy="0" r="10477.5" style="fill:none;stroke:rgb(8,72,156);stroke-width:3670.58px;"/>
                </g>
                <g transform="matrix(0,-0.0002024,0.0001962,0,395.377,478.11)">
                    <path d="M9525,-9525C14785.5,-9525 19050,-5260.51 19050,0C19050,5260.51 14785.5,9525 9525,9525C4264.49,9525 0,5260.51 0,0C0,-5260.51 4264.49,-9525 9525,-9525" style="fill:rgb(91,158,247);stroke:white;stroke-width:3670.58px;stroke-miterlimit:2;"/>
                </g>
                <g transform="matrix(0,-0.0002024,0.0001962,0,395.377,478.11)">
                    <circle cx="9525" cy="0" r="9525" style="fill:none;stroke:rgb(8,72,156);stroke-width:3670.58px;"/>
                </g>
                <g transform="matrix(0,-0.0002024,0.0001962,0,364.161,474.64)">
                    <path d="M10477.5,-10477.5C16264.1,-10477.5 20955,-5786.56 20955,0C20955,5786.56 16264.1,10477.5 10477.5,10477.5C4690.94,10477.5 0,5786.56 0,0C0,-5786.56 4690.94,-10477.5 10477.5,-10477.5" style="fill:rgb(91,158,247);stroke:white;stroke-width:3670.58px;stroke-miterlimit:2;"/>
                </g>
                <g transform="matrix(0,-0.0002024,0.0001962,0,364.161,474.64)">
                    <circle cx="10477.5" cy="0" r="10477.5" style="fill:none;stroke:rgb(8,72,156);stroke-width:3670.58px;"/>
                </g>
                <g transform="matrix(0,-0.0002024,0.0001962,0,432.762,522.843)">
                    <path d="M9525,-9525C14785.5,-9525 19050,-5260.51 19050,0C19050,5260.51 14785.5,9525 9525,9525C4264.49,9525 0,5260.51 0,0C0,-5260.51 4264.49,-9525 9525,-9525" style="fill:rgb(91,158,247);stroke:white;stroke-width:3670.58px;stroke-miterlimit:2;"/>
                </g>
                <g transform="matrix(0,-0.0002024,0.0001962,0,432.762,522.843)">
                    <circle cx="9525" cy="0" r="9525" style="fill:none;stroke:rgb(8,72,156);stroke-width:3670.58px;"/>
                </g>
                <g transform="matrix(0,-0.0002024,0.0001962,0,425.098,563.527)">
                    <path d="M10477.5,-10477.5C15738,-10477.5 20002.5,-5786.56 20002.5,0C20002.5,5786.56 15738,10477.5 10477.5,10477.5C5216.99,10477.5 952.5,5786.56 952.5,0C952.5,-5786.56 5216.99,-10477.5 10477.5,-10477.5" style="fill:rgb(91,158,247);stroke:white;stroke-width:3670.58px;stroke-miterlimit:2;"/>
                </g>
                <g transform="matrix(0,-0.0002024,0.0001962,0,425.098,563.527)">
                    <ellipse cx="10477.5" cy="0" rx="9525" ry="10477.5" style="fill:none;stroke:rgb(8,72,156);stroke-width:3670.58px;"/>
                </g>
                <g transform="matrix(0,-0.0002024,0.0001962,0,417.995,485.244)">
                    <path d="M10477.5,-10477.5C15738,-10477.5 20002.5,-5786.56 20002.5,0C20002.5,5786.56 15738,10477.5 10477.5,10477.5C5216.99,10477.5 952.5,5786.56 952.5,0C952.5,-5786.56 5216.99,-10477.5 10477.5,-10477.5" style="fill:rgb(91,158,247);stroke:white;stroke-width:3670.58px;stroke-miterlimit:2;"/>
                </g>
                <g transform="matrix(0,-0.0002024,0.0001962,0,417.995,485.244)">
                    <ellipse cx="10477.5" cy="0" rx="9525" ry="10477.5" style="fill:none;stroke:rgb(8,72,156);stroke-width:3670.58px;"/>
                </g>
                <g transform="matrix(0,-0.0002024,0.0001962,0,423.416,491.414)">
                    <path d="M9525,-9525C15311.6,-9525 20002.5,-5260.51 20002.5,0C20002.5,5260.51 15311.6,9525 9525,9525C3738.44,9525 -952.5,5260.51 -952.5,0C-952.5,-5260.51 3738.44,-9525 9525,-9525" style="fill:rgb(91,158,247);stroke:white;stroke-width:3670.58px;stroke-miterlimit:2;"/>
                </g>
                <g transform="matrix(0,-0.0002024,0.0001962,0,423.416,491.414)">
                    <ellipse cx="9525" cy="0" rx="10477.5" ry="9525" style="fill:none;stroke:rgb(8,72,156);stroke-width:3670.58px;"/>
                </g>
                <g transform="matrix(0,-0.0010121,0.0009812,0,422.855,401.949)">
                    <path d="M11811,-11811C17913.2,-11811 22860,-6523.04 22860,0C22860,6523.03 17913.2,11811 11811,11811C5708.81,11811 762,6523.03 762,0C762,-6523.04 5708.81,-11811 11811,-11811" style="fill:rgb(226,238,254);"/>
                </g>
                <g transform="matrix(0,-0.0010121,0.0009812,0,422.855,401.949)">
                    <ellipse cx="11811" cy="0" rx="11049" ry="11811" style="fill:none;stroke:rgb(8,72,156);stroke-width:2613.31px;"/>
                </g>
                <g transform="matrix(0,-0.0010526,0.0010205,0,521.926,501.633)">
                    <path d="M11356.7,-11356.7C17527.7,-11356.7 22530.3,-6272.15 22530.3,-0.001C22530.3,6272.15 17527.7,11356.7 11356.7,11356.7C5185.75,11356.7 183.173,6272.15 183.173,-0.001C183.173,-6272.15 5185.75,-11356.7 11356.7,-11356.7" style="fill:rgb(226,238,254);"/>
                </g>
                <g transform="matrix(0,-0.0010526,0.0010205,0,521.926,501.633)">
                    <ellipse cx="11356.7" cy="0" rx="11173.6" ry="11356.7" style="fill:none;stroke:rgb(8,72,156);stroke-width:2512.79px;"/>
                </g>
                <g transform="matrix(0.965113,0,0,1.00926,15.1335,-3.57038)">
                    <text x="418.159px" y="394.345px" style="font-family:'Arial-BoldMT', 'Arial', sans-serif;font-weight:700;font-size:12.34px;fill:rgb(8,72,156);stroke:rgb(8,72,156);stroke-width:0.79px;stroke-linejoin:miter;">C</text>
                </g>
                <g transform="matrix(0.965113,0,0,1.00926,19.1216,-4.49351)">
                    <text x="516.844px" y="494.021px" style="font-family:'Arial-BoldMT', 'Arial', sans-serif;font-weight:700;font-size:12.34px;fill:rgb(8,72,156);stroke:rgb(8,72,156);stroke-width:0.79px;stroke-linejoin:miter;">D</text>
                </g>
                <g transform="matrix(0,-0.0002024,0.0001962,0,435.566,560.442)">
                    <path d="M10477.5,-10477.5C15738,-10477.5 20002.5,-5786.56 20002.5,0C20002.5,5786.56 15738,10477.5 10477.5,10477.5C5216.99,10477.5 952.5,5786.56 952.5,0C952.5,-5786.56 5216.99,-10477.5 10477.5,-10477.5" style="fill:rgb(91,158,247);stroke:white;stroke-width:3670.58px;stroke-miterlimit:2;"/>
                </g>
                <g transform="matrix(0,-0.0002024,0.0001962,0,435.566,560.442)">
                    <ellipse cx="10477.5" cy="0" rx="9525" ry="10477.5" style="fill:none;stroke:rgb(8,72,156);stroke-width:3670.58px;"/>
                </g>
                <g transform="matrix(0,-0.0002024,0.0001962,0,434.445,571.818)">
                    <path d="M10477.5,-10477.5C16264.1,-10477.5 20955,-5786.56 20955,0C20955,5786.56 16264.1,10477.5 10477.5,10477.5C4690.94,10477.5 0,5786.56 0,0C0,-5786.56 4690.94,-10477.5 10477.5,-10477.5" style="fill:rgb(91,158,247);stroke:white;stroke-width:3670.58px;stroke-miterlimit:2;"/>
                </g>
                <g transform="matrix(0,-0.0002024,0.0001962,0,434.445,571.818)">
                    <circle cx="10477.5" cy="0" r="10477.5" style="fill:none;stroke:rgb(8,72,156);stroke-width:3670.58px;"/>
                </g>
                <g transform="matrix(0,-0.0002024,0.0001962,0,430.145,557.549)">
                    <path d="M9525,-9525C14785.5,-9525 19050,-5260.51 19050,0C19050,5260.51 14785.5,9525 9525,9525C4264.49,9525 0,5260.51 0,0C0,-5260.51 4264.49,-9525 9525,-9525" style="fill:rgb(91,158,247);stroke:white;stroke-width:3670.58px;stroke-miterlimit:2;"/>
                </g>
                <g transform="matrix(0,-0.0002024,0.0001962,0,430.145,557.549)">
                    <circle cx="9525" cy="0" r="9525" style="fill:none;stroke:rgb(8,72,156);stroke-width:3670.58px;"/>
                </g>
                <g transform="matrix(0,-0.0002024,0.0001962,0,437.809,564.298)">
                    <path d="M10477.5,-10477.5C15738,-10477.5 20002.5,-5786.56 20002.5,0C20002.5,5786.56 15738,10477.5 10477.5,10477.5C5216.99,10477.5 952.5,5786.56 952.5,0C952.5,-5786.56 5216.99,-10477.5 10477.5,-10477.5" style="fill:rgb(91,158,247);stroke:white;stroke-width:3670.58px;stroke-miterlimit:2;"/>
                </g>
                <g transform="matrix(0,-0.0002024,0.0001962,0,437.809,564.298)">
                    <ellipse cx="10477.5" cy="0" rx="9525" ry="10477.5" style="fill:none;stroke:rgb(8,72,156);stroke-width:3670.58px;"/>
                </g>
                <g transform="matrix(0,-0.0002024,0.0001962,0,431.454,561.213)">
                    <path d="M10477.5,-10477.5C15738,-10477.5 20002.5,-5786.56 20002.5,0C20002.5,5786.56 15738,10477.5 10477.5,10477.5C5216.99,10477.5 952.5,5786.56 952.5,0C952.5,-5786.56 5216.99,-10477.5 10477.5,-10477.5" style="fill:rgb(91,158,247);stroke:white;stroke-width:3670.58px;stroke-miterlimit:2;"/>
                </g>
                <g transform="matrix(0,-0.0002024,0.0001962,0,431.454,561.213)">
                    <ellipse cx="10477.5" cy="0" rx="9525" ry="10477.5" style="fill:none;stroke:rgb(8,72,156);stroke-width:3670.58px;"/>
                </g>
                <g transform="matrix(0,-0.0002024,0.0001962,0,424.351,555.428)">
                    <path d="M10477.5,-10477.5C15738,-10477.5 20002.5,-5786.56 20002.5,0C20002.5,5786.56 15738,10477.5 10477.5,10477.5C5216.99,10477.5 952.5,5786.56 952.5,0C952.5,-5786.56 5216.99,-10477.5 10477.5,-10477.5" style="fill:rgb(91,158,247);stroke:white;stroke-width:3670.58px;stroke-miterlimit:2;"/>
                </g>
                <g transform="matrix(0,-0.0002024,0.0001962,0,424.351,555.428)">
                    <ellipse cx="10477.5" cy="0" rx="9525" ry="10477.5" style="fill:none;stroke:rgb(8,72,156);stroke-width:3670.58px;"/>
                </g>
                <g transform="matrix(0,-0.0002024,0.0001962,0,428.463,572.01)">
                    <path d="M10477.5,-10477.5C15738,-10477.5 20002.5,-5786.56 20002.5,0C20002.5,5786.56 15738,10477.5 10477.5,10477.5C5216.99,10477.5 952.5,5786.56 952.5,0C952.5,-5786.56 5216.99,-10477.5 10477.5,-10477.5" style="fill:rgb(91,158,247);stroke:white;stroke-width:3670.58px;stroke-miterlimit:2;"/>
                </g>
                <g transform="matrix(0,-0.0002024,0.0001962,0,428.463,572.01)">
                    <ellipse cx="10477.5" cy="0" rx="9525" ry="10477.5" style="fill:none;stroke:rgb(8,72,156);stroke-width:3670.58px;"/>
                </g>
                <g transform="matrix(0,-0.0002024,0.0001962,0,433.884,553.693)">
                    <path d="M9525,-9525C14785.5,-9525 19050,-5260.51 19050,0C19050,5260.51 14785.5,9525 9525,9525C4264.49,9525 0,5260.51 0,0C0,-5260.51 4264.49,-9525 9525,-9525" style="fill:rgb(91,158,247);stroke:white;stroke-width:3670.58px;stroke-miterlimit:2;"/>
                </g>
                <g transform="matrix(0,-0.0002024,0.0001962,0,433.884,553.693)">
                    <circle cx="9525" cy="0" r="9525" style="fill:none;stroke:rgb(8,72,156);stroke-width:3670.58px;"/>
                </g>
                <g transform="matrix(0,-0.0002024,0.0001962,0,423.977,569.118)">
                    <path d="M10477.5,-10477.5C16264.1,-10477.5 20955,-5786.56 20955,0C20955,5786.56 16264.1,10477.5 10477.5,10477.5C4690.94,10477.5 0,5786.56 0,0C0,-5786.56 4690.94,-10477.5 10477.5,-10477.5" style="fill:rgb(91,158,247);stroke:white;stroke-width:3670.58px;stroke-miterlimit:2;"/>
                </g>
                <g transform="matrix(0,-0.0002024,0.0001962,0,423.977,569.118)">
                    <circle cx="10477.5" cy="0" r="10477.5" style="fill:none;stroke:rgb(8,72,156);stroke-width:3670.58px;"/>
                </g>
                <g transform="matrix(0,-0.0002024,0.0001962,0,426.781,576.252)">
                    <path d="M9525,-9525C15311.6,-9525 20002.5,-5260.51 20002.5,0C20002.5,5260.51 15311.6,9525 9525,9525C3738.44,9525 -952.5,5260.51 -952.5,0C-952.5,-5260.51 3738.44,-9525 9525,-9525" style="fill:rgb(91,158,247);stroke:white;stroke-width:3670.58px;stroke-miterlimit:2;"/>
                </g>
                <g transform="matrix(0,-0.0002024,0.0001962,0,426.781,576.252)">
                    <ellipse cx="9525" cy="0" rx="10477.5" ry="9525" style="fill:none;stroke:rgb(8,72,156);stroke-width:3670.58px;"/>
                </g>
                <g transform="matrix(0,-0.0002024,0.0001962,0,431.641,567.961)">
                    <path d="M9525,-9525C14785.5,-9525 19050,-5260.51 19050,0C19050,5260.51 14785.5,9525 9525,9525C4264.49,9525 0,5260.51 0,0C0,-5260.51 4264.49,-9525 9525,-9525" style="fill:rgb(91,158,247);stroke:white;stroke-width:3670.58px;stroke-miterlimit:2;"/>
                </g>
                <g transform="matrix(0,-0.0002024,0.0001962,0,431.641,567.961)">
                    <circle cx="9525" cy="0" r="9525" style="fill:none;stroke:rgb(8,72,156);stroke-width:3670.58px;"/>
                </g>
                <g transform="matrix(0,-0.0002024,0.0001962,0,432.762,576.445)">
                    <path d="M9525,-9525C14785.5,-9525 19050,-5260.51 19050,0C19050,5260.51 14785.5,9525 9525,9525C4264.49,9525 0,5260.51 0,0C0,-5260.51 4264.49,-9525 9525,-9525" style="fill:rgb(91,158,247);stroke:white;stroke-width:3670.58px;stroke-miterlimit:2;"/>
                </g>
                <g transform="matrix(0,-0.0002024,0.0001962,0,432.762,576.445)">
                    <circle cx="9525" cy="0" r="9525" style="fill:none;stroke:rgb(8,72,156);stroke-width:3670.58px;"/>
                </g>
                <g transform="matrix(0,-0.0002024,0.0001962,0,429.584,581.458)">
                    <path d="M10477.5,-10477.5C16264.1,-10477.5 20955,-5786.56 20955,0C20955,5786.56 16264.1,10477.5 10477.5,10477.5C4690.94,10477.5 0,5786.56 0,0C0,-5786.56 4690.94,-10477.5 10477.5,-10477.5" style="fill:rgb(91,158,247);stroke:white;stroke-width:3670.58px;stroke-miterlimit:2;"/>
                </g>
                <g transform="matrix(0,-0.0002024,0.0001962,0,429.584,581.458)">
                    <circle cx="10477.5" cy="0" r="10477.5" style="fill:none;stroke:rgb(56,93,138);stroke-width:3670.58px;"/>
                </g>
                <g transform="matrix(0,-0.0002024,0.0001962,0,434.445,583.194)">
                    <path d="M10477.5,-10477.5C15738,-10477.5 20002.5,-5786.56 20002.5,0C20002.5,5786.56 15738,10477.5 10477.5,10477.5C5216.99,10477.5 952.5,5786.56 952.5,0C952.5,-5786.56 5216.99,-10477.5 10477.5,-10477.5" style="fill:rgb(91,158,247);stroke:white;stroke-width:3670.58px;stroke-miterlimit:2;"/>
                </g>
                <g transform="matrix(0,-0.0002024,0.0001962,0,434.445,583.194)">
                    <ellipse cx="10477.5" cy="0" rx="9525" ry="10477.5" style="fill:none;stroke:rgb(8,72,156);stroke-width:3670.58px;"/>
                </g>
                <g transform="matrix(0,-0.0002024,0.0001962,0,425.472,561.984)">
                    <path d="M10477.5,-10477.5C15738,-10477.5 20002.5,-5786.56 20002.5,0C20002.5,5786.56 15738,10477.5 10477.5,10477.5C5216.99,10477.5 952.5,5786.56 952.5,0C952.5,-5786.56 5216.99,-10477.5 10477.5,-10477.5" style="fill:rgb(91,158,247);stroke:white;stroke-width:3670.58px;stroke-miterlimit:2;"/>
                </g>
                <g transform="matrix(0,-0.0002024,0.0001962,0,425.472,561.984)">
                    <ellipse cx="10477.5" cy="0" rx="9525" ry="10477.5" style="fill:none;stroke:rgb(8,72,156);stroke-width:3670.58px;"/>
                </g>
                <g transform="matrix(0,-0.0002024,0.0001962,0,436.314,567.383)">
                    <path d="M10477.5,-10477.5C15738,-10477.5 20002.5,-5786.56 20002.5,0C20002.5,5786.56 15738,10477.5 10477.5,10477.5C5216.99,10477.5 952.5,5786.56 952.5,0C952.5,-5786.56 5216.99,-10477.5 10477.5,-10477.5" style="fill:rgb(91,158,247);stroke:white;stroke-width:3670.58px;stroke-miterlimit:2;"/>
                </g>
                <g transform="matrix(0,-0.0002024,0.0001962,0,436.314,567.383)">
                    <ellipse cx="10477.5" cy="0" rx="9525" ry="10477.5" style="fill:none;stroke:rgb(8,72,156);stroke-width:3670.58px;"/>
                </g>
                <g transform="matrix(0,-0.0002024,0.0001962,0,430.145,564.491)">
                    <path d="M9525,-9525C14785.5,-9525 19050,-5260.51 19050,0C19050,5260.51 14785.5,9525 9525,9525C4264.49,9525 0,5260.51 0,0C0,-5260.51 4264.49,-9525 9525,-9525" style="fill:rgb(91,158,247);stroke:white;stroke-width:3670.58px;stroke-miterlimit:2;"/>
                </g>
                <g transform="matrix(0,-0.0002024,0.0001962,0,430.145,564.491)">
                    <circle cx="9525" cy="0" r="9525" style="fill:none;stroke:rgb(8,72,156);stroke-width:3670.58px;"/>
                </g>
                <g transform="matrix(0,-0.0002024,0.0001962,0,426.033,583.386)">
                    <path d="M10477.5,-10477.5C15738,-10477.5 20002.5,-5786.56 20002.5,0C20002.5,5786.56 15738,10477.5 10477.5,10477.5C5216.99,10477.5 952.5,5786.56 952.5,0C952.5,-5786.56 5216.99,-10477.5 10477.5,-10477.5" style="fill:rgb(91,158,247);stroke:white;stroke-width:3670.58px;stroke-miterlimit:2;"/>
                </g>
                <g transform="matrix(0,-0.0002024,0.0001962,0,426.033,583.386)">
                    <ellipse cx="10477.5" cy="0" rx="9525" ry="10477.5" style="fill:none;stroke:rgb(56,93,138);stroke-width:3670.58px;"/>
                </g>
                <g transform="matrix(0,-0.0010526,0.0010205,0,422.669,599.776)">
                    <path d="M11173.6,-11173.6C17344.5,-11173.6 22347.1,-6170.99 22347.1,0.001C22347.1,6170.99 17344.5,11173.6 11173.6,11173.6C5002.57,11173.6 -0.001,6170.99 -0.001,0.001C-0.001,-6170.99 5002.57,-11173.6 11173.6,-11173.6" style="fill:rgb(226,238,254);"/>
                </g>
                <g transform="matrix(0,-0.0010526,0.0010205,0,422.669,599.776)">
                    <ellipse cx="11173.6" cy="0" rx="11173.6" ry="11173.6" style="fill:none;stroke:rgb(8,72,156);stroke-width:2512.79px;"/>
                </g>
            </g>
            <g transform="matrix(4.02131,0,0,4.20526,62.9834,-22.5185)">
                <text x="417.658px" y="592.377px" style="font-family:'Arial-BoldMT', 'Arial', sans-serif;font-weight:700;font-size:12.34px;fill:rgb(8,72,156);stroke:rgb(8,72,156);stroke-width:0.79px;stroke-linejoin:miter;">A</text>
            </g>
            <g transform="matrix(0,-0.000843333,0.0008175,0,1409.08,2017.03)">
                <path d="M9525,-9525C15311.6,-9525 20002.5,-5260.51 20002.5,0C20002.5,5260.51 15311.6,9525 9525,9525C3738.44,9525 -952.5,5260.51 -952.5,0C-952.5,-5260.51 3738.44,-9525 9525,-9525" style="fill:rgb(91,158,247);stroke:white;stroke-width:3670.58px;stroke-miterlimit:2;"/>
            </g>
            <g transform="matrix(0,-0.000843333,0.0008175,0,1409.08,2017.03)">
                <ellipse cx="9525" cy="0" rx="10477.5" ry="9525" style="fill:none;stroke:rgb(8,72,156);stroke-width:3670.58px;"/>
            </g>
            <g transform="matrix(0,-0.000843333,0.0008175,0,1433.22,1989.72)">
                <path d="M10477.5,-10477.5C15738,-10477.5 20002.5,-5786.56 20002.5,0C20002.5,5786.56 15738,10477.5 10477.5,10477.5C5216.99,10477.5 952.5,5786.56 952.5,0C952.5,-5786.56 5216.99,-10477.5 10477.5,-10477.5" style="fill:rgb(91,158,247);stroke:white;stroke-width:3670.58px;stroke-miterlimit:2;"/>
            </g>
            <g transform="matrix(0,-0.000843333,0.0008175,0,1433.22,1989.72)">
                <ellipse cx="10477.5" cy="0" rx="9525" ry="10477.5" style="fill:none;stroke:rgb(8,72,156);stroke-width:3670.58px;"/>
            </g>
            <g transform="matrix(0,-0.000843333,0.0008175,0,1402.85,1981.68)">
                <path d="M9525,-9525C15311.6,-9525 20002.5,-5260.51 20002.5,0C20002.5,5260.51 15311.6,9525 9525,9525C3738.44,9525 -952.5,5260.51 -952.5,0C-952.5,-5260.51 3738.44,-9525 9525,-9525" style="fill:rgb(91,158,247);stroke:white;stroke-width:3670.58px;stroke-miterlimit:2;"/>
            </g>
            <g transform="matrix(0,-0.000843333,0.0008175,0,1402.85,1981.68)">
                <ellipse cx="9525" cy="0" rx="10477.5" ry="9525" style="fill:none;stroke:rgb(8,72,156);stroke-width:3670.58px;"/>
            </g>
            <g transform="matrix(0,-0.000843333,0.0008175,0,1449.58,2011.41)">
                <path d="M9525,-9525C14785.5,-9525 19050,-5260.51 19050,0C19050,5260.51 14785.5,9525 9525,9525C4264.49,9525 0,5260.51 0,0C0,-5260.51 4264.49,-9525 9525,-9525" style="fill:rgb(91,158,247);stroke:white;stroke-width:3670.58px;stroke-miterlimit:2;"/>
            </g>
            <g transform="matrix(0,-0.000843333,0.0008175,0,1449.58,2011.41)">
                <circle cx="9525" cy="0" r="9525" style="fill:none;stroke:rgb(8,72,156);stroke-width:3670.58px;"/>
            </g>
            <g transform="matrix(0,-0.000843333,0.0008175,0,1480.73,2000.96)">
                <path d="M9525,-9525C15311.6,-9525 20002.5,-5260.51 20002.5,0C20002.5,5260.51 15311.6,9525 9525,9525C3738.44,9525 -952.5,5260.51 -952.5,0C-952.5,-5260.51 3738.44,-9525 9525,-9525" style="fill:rgb(91,158,247);stroke:white;stroke-width:3670.58px;stroke-miterlimit:2;"/>
            </g>
            <g transform="matrix(0,-0.000843333,0.0008175,0,1480.73,2000.96)">
                <ellipse cx="9525" cy="0" rx="10477.5" ry="9525" style="fill:none;stroke:rgb(8,72,156);stroke-width:3670.58px;"/>
            </g>
            <g transform="matrix(0,-0.000843333,0.0008175,0,1374.03,2011.41)">
                <path d="M10477.5,-10477.5C16264.1,-10477.5 20955,-5786.56 20955,0C20955,5786.56 16264.1,10477.5 10477.5,10477.5C4690.94,10477.5 0,5786.56 0,0C0,-5786.56 4690.94,-10477.5 10477.5,-10477.5" style="fill:rgb(91,158,247);stroke:white;stroke-width:3670.58px;stroke-miterlimit:2;"/>
            </g>
            <g transform="matrix(0,-0.000843333,0.0008175,0,1374.03,2011.41)">
                <circle cx="10477.5" cy="0" r="10477.5" style="fill:none;stroke:rgb(8,72,156);stroke-width:3670.58px;"/>
            </g>
            <g transform="matrix(0,-0.000843333,0.0008175,0,1370.91,1990.52)">
                <path d="M10477.5,-10477.5C16264.1,-10477.5 20955,-5786.56 20955,0C20955,5786.56 16264.1,10477.5 10477.5,10477.5C4690.94,10477.5 0,5786.56 0,0C0,-5786.56 4690.94,-10477.5 10477.5,-10477.5" style="fill:rgb(91,158,247);stroke:white;stroke-width:3670.58px;stroke-miterlimit:2;"/>
            </g>
            <g transform="matrix(0,-0.000843333,0.0008175,0,1370.91,1990.52)">
                <circle cx="10477.5" cy="0" r="10477.5" style="fill:none;stroke:rgb(8,72,156);stroke-width:3670.58px;"/>
            </g>
            <g transform="matrix(0,-0.000843333,0.0008175,0,1398.95,1999.36)">
                <path d="M10477.5,-10477.5C15738,-10477.5 20002.5,-5786.56 20002.5,0C20002.5,5786.56 15738,10477.5 10477.5,10477.5C5216.99,10477.5 952.5,5786.56 952.5,0C952.5,-5786.56 5216.99,-10477.5 10477.5,-10477.5" style="fill:rgb(91,158,247);stroke:white;stroke-width:3670.58px;stroke-miterlimit:2;"/>
            </g>
            <g transform="matrix(0,-0.000843333,0.0008175,0,1398.95,1999.36)">
                <ellipse cx="10477.5" cy="0" rx="9525" ry="10477.5" style="fill:none;stroke:rgb(8,72,156);stroke-width:3670.58px;"/>
            </g>
            <g transform="matrix(0,-0.000843333,0.0008175,0,1465.93,1992.93)">
                <path d="M10477.5,-10477.5C15738,-10477.5 20002.5,-5786.56 20002.5,0C20002.5,5786.56 15738,10477.5 10477.5,10477.5C5216.99,10477.5 952.5,5786.56 952.5,0C952.5,-5786.56 5216.99,-10477.5 10477.5,-10477.5" style="fill:rgb(91,158,247);stroke:white;stroke-width:3670.58px;stroke-miterlimit:2;"/>
            </g>
            <g transform="matrix(0,-0.000843333,0.0008175,0,1465.93,1992.93)">
                <ellipse cx="10477.5" cy="0" rx="9525" ry="10477.5" style="fill:none;stroke:rgb(8,72,156);stroke-width:3670.58px;"/>
            </g>
            <g transform="matrix(0,-0.000843333,0.0008175,0,1449.58,1971.24)">
                <path d="M9525,-9525C14785.5,-9525 19050,-5260.51 19050,0C19050,5260.51 14785.5,9525 9525,9525C4264.49,9525 0,5260.51 0,0C0,-5260.51 4264.49,-9525 9525,-9525" style="fill:rgb(91,158,247);stroke:white;stroke-width:3670.58px;stroke-miterlimit:2;"/>
            </g>
            <g transform="matrix(0,-0.000843333,0.0008175,0,1449.58,1971.24)">
                <circle cx="9525" cy="0" r="9525" style="fill:none;stroke:rgb(8,72,156);stroke-width:3670.58px;"/>
            </g>
            <g transform="matrix(0,-0.000843333,0.0008175,0,1375.59,1967.22)">
                <path d="M10477.5,-10477.5C15738,-10477.5 20002.5,-5786.56 20002.5,0C20002.5,5786.56 15738,10477.5 10477.5,10477.5C5216.99,10477.5 952.5,5786.56 952.5,0C952.5,-5786.56 5216.99,-10477.5 10477.5,-10477.5" style="fill:rgb(91,158,247);stroke:white;stroke-width:3670.58px;stroke-miterlimit:2;"/>
            </g>
            <g transform="matrix(0,-0.000843333,0.0008175,0,1375.59,1967.22)">
                <ellipse cx="10477.5" cy="0" rx="9525" ry="10477.5" style="fill:none;stroke:rgb(8,72,156);stroke-width:3670.58px;"/>
            </g>
            <g transform="matrix(0,-0.000843333,0.0008175,0,1389.6,2020.24)">
                <path d="M10477.5,-10477.5C15738,-10477.5 20002.5,-5786.56 20002.5,0C20002.5,5786.56 15738,10477.5 10477.5,10477.5C5216.99,10477.5 952.5,5786.56 952.5,0C952.5,-5786.56 5216.99,-10477.5 10477.5,-10477.5" style="fill:rgb(91,158,247);stroke:white;stroke-width:3670.58px;stroke-miterlimit:2;"/>
            </g>
            <g transform="matrix(0,-0.000843333,0.0008175,0,1389.6,2020.24)">
                <ellipse cx="10477.5" cy="0" rx="9525" ry="10477.5" style="fill:none;stroke:rgb(8,72,156);stroke-width:3670.58px;"/>
            </g>
            <g transform="matrix(0,-0.000843333,0.0008175,0,1412.97,1970.43)">
                <path d="M10477.5,-10477.5C15738,-10477.5 20002.5,-5786.56 20002.5,0C20002.5,5786.56 15738,10477.5 10477.5,10477.5C5216.99,10477.5 952.5,5786.56 952.5,0C952.5,-5786.56 5216.99,-10477.5 10477.5,-10477.5" style="fill:rgb(91,158,247);stroke:white;stroke-width:3670.58px;stroke-miterlimit:2;"/>
            </g>
            <g transform="matrix(0,-0.000843333,0.0008175,0,1412.97,1970.43)">
                <ellipse cx="10477.5" cy="0" rx="9525" ry="10477.5" style="fill:none;stroke:rgb(8,72,156);stroke-width:3670.58px;"/>
            </g>
            <g transform="matrix(0,-0.000843333,0.0008175,0,1420.76,1986.5)">
                <path d="M10477.5,-10477.5C15738,-10477.5 20002.5,-5786.56 20002.5,0C20002.5,5786.56 15738,10477.5 10477.5,10477.5C5216.99,10477.5 952.5,5786.56 952.5,0C952.5,-5786.56 5216.99,-10477.5 10477.5,-10477.5" style="fill:rgb(91,158,247);stroke:white;stroke-width:3670.58px;stroke-miterlimit:2;"/>
            </g>
            <g transform="matrix(0,-0.000843333,0.0008175,0,1420.76,1986.5)">
                <ellipse cx="10477.5" cy="0" rx="9525" ry="10477.5" style="fill:none;stroke:rgb(8,72,156);stroke-width:3670.58px;"/>
            </g>
            <g transform="matrix(0,-0.000843333,0.0008175,0,1483.07,1976.06)">
                <path d="M10477.5,-10477.5C16264.1,-10477.5 20955,-5786.56 20955,0C20955,5786.56 16264.1,10477.5 10477.5,10477.5C4690.94,10477.5 0,5786.56 0,0C0,-5786.56 4690.94,-10477.5 10477.5,-10477.5" style="fill:rgb(91,158,247);stroke:white;stroke-width:3670.58px;stroke-miterlimit:2;"/>
            </g>
            <g transform="matrix(0,-0.000843333,0.0008175,0,1483.07,1976.06)">
                <circle cx="10477.5" cy="0" r="10477.5" style="fill:none;stroke:rgb(8,72,156);stroke-width:3670.58px;"/>
            </g>
            <g transform="matrix(0,-0.000843333,0.0008175,0,1433.22,2008.19)">
                <path d="M10477.5,-10477.5C16264.1,-10477.5 20955,-5786.56 20955,0C20955,5786.56 16264.1,10477.5 10477.5,10477.5C4690.94,10477.5 0,5786.56 0,0C0,-5786.56 4690.94,-10477.5 10477.5,-10477.5" style="fill:rgb(91,158,247);stroke:white;stroke-width:3670.58px;stroke-miterlimit:2;"/>
            </g>
            <g transform="matrix(0,-0.000843333,0.0008175,0,1433.22,2008.19)">
                <circle cx="10477.5" cy="0" r="10477.5" style="fill:none;stroke:rgb(8,72,156);stroke-width:3670.58px;"/>
            </g>
            <g transform="matrix(0,-0.000843333,0.0008175,0,1465.15,2014.62)">
                <path d="M9525,-9525C14785.5,-9525 19050,-5260.51 19050,0C19050,5260.51 14785.5,9525 9525,9525C4264.49,9525 0,5260.51 0,0C0,-5260.51 4264.49,-9525 9525,-9525" style="fill:rgb(91,158,247);stroke:white;stroke-width:3670.58px;stroke-miterlimit:2;"/>
            </g>
            <g transform="matrix(0,-0.000843333,0.0008175,0,1465.15,2014.62)">
                <circle cx="9525" cy="0" r="9525" style="fill:none;stroke:rgb(8,72,156);stroke-width:3670.58px;"/>
            </g>
            <g transform="matrix(0,-0.000843333,0.0008175,0,1386.49,1980.08)">
                <path d="M10477.5,-10477.5C15738,-10477.5 20002.5,-5786.56 20002.5,0C20002.5,5786.56 15738,10477.5 10477.5,10477.5C5216.99,10477.5 952.5,5786.56 952.5,0C952.5,-5786.56 5216.99,-10477.5 10477.5,-10477.5" style="fill:rgb(91,158,247);stroke:white;stroke-width:3670.58px;stroke-miterlimit:2;"/>
            </g>
            <g transform="matrix(0,-0.000843333,0.0008175,0,1386.49,1980.08)">
                <ellipse cx="10477.5" cy="0" rx="9525" ry="10477.5" style="fill:none;stroke:rgb(8,72,156);stroke-width:3670.58px;"/>
            </g>
            <g transform="matrix(0,-0.00438583,0.00425208,0,1363.13,2097.37)">
                <path d="M11356.7,-11356.7C17426.6,-11356.7 22347.1,-6272.15 22347.1,-0.001C22347.1,6272.15 17426.6,11356.7 11356.7,11356.7C5286.91,11356.7 366.346,6272.15 366.346,-0.001C366.346,-6272.15 5286.91,-11356.7 11356.7,-11356.7" style="fill:rgb(226,238,254);"/>
            </g>
            <g transform="matrix(0,-0.00438583,0.00425208,0,1363.13,2097.37)">
                <ellipse cx="11356.7" cy="0" rx="10990.4" ry="11356.7" style="fill:none;stroke:rgb(8,72,156);stroke-width:2512.79px;"/>
            </g>
            <g transform="matrix(4.02131,0,0,4.20526,49.1447,-18.7857)">
                <text x="322.455px" y="495.647px" style="font-family:'Arial-BoldMT', 'Arial', sans-serif;font-weight:700;font-size:12.34px;fill:rgb(8,72,156);stroke:rgb(8,72,156);stroke-width:0.79px;stroke-linejoin:miter;">B</text>
            </g>
        </g>
    </g>
</svg>
