<?xml version="1.0" encoding="UTF-8" standalone="no"?>
<!DOCTYPE svg PUBLIC "-//W3C//DTD SVG 1.1//EN" "http://www.w3.org/Graphics/SVG/1.1/DTD/svg11.dtd">
<svg width="100%" height="100%" viewBox="0 0 405 405" version="1.1" xmlns="http://www.w3.org/2000/svg" xmlns:xlink="http://www.w3.org/1999/xlink" xml:space="preserve" xmlns:serif="http://www.serif.com/" style="fill-rule:evenodd;clip-rule:evenodd;stroke-linejoin:round;stroke-miterlimit:10;">
    <g transform="matrix(1,0,0,1,-206.026,-2546.54)">
        <g transform="matrix(0.323512,0,0,0.366327,-143.415,1756.39)">
            <g transform="matrix(4.16667,0,0,4.16667,0,1601.63)">
                <g transform="matrix(0.0007413,0,0,-0.0007404,458.848,278.263)">
                    <path d="M0,-25065.8L0,-11843.6C0,-6756.11 4124.21,-2631.91 9211.68,-2631.91L15791.4,-2631.91L15791.4,0L21055.3,-5263.82L15791.4,-10527.6L15791.4,-7895.73L9211.68,-7895.73C7031.33,-7895.73 5263.82,-9663.24 5263.82,-11843.6L5263.82,-25065.8L0,-25065.8Z" style="fill:rgb(226,238,254);"/>
                </g>
                <g transform="matrix(0.0007413,0,0,-0.0007404,458.848,278.262)">
                    <path d="M0,-25065.8L0,-11843.6C0,-6756.11 4124.21,-2631.91 9211.68,-2631.91L15791.4,-2631.91L15791.4,0L21055.3,-5263.82L15791.4,-10527.6L15791.4,-7895.73L9211.68,-7895.73C7031.33,-7895.73 5263.82,-9663.24 5263.82,-11843.6L5263.82,-25065.8L0,-25065.8Z" style="fill:none;fill-rule:nonzero;stroke:rgb(8,72,156);stroke-width:2901.5px;"/>
                </g>
                <g transform="matrix(0.0012095,0,0,-0.0012081,441.753,307.216)">
                    <path d="M0,22122.6L4301.61,26424.2L8603.23,22122.6L6452.42,22122.6L6452.42,-4301.61L2150.81,-4301.61L2150.81,22122.6L0,22122.6Z" style="fill:rgb(226,238,254);stroke:rgb(8,72,156);stroke-width:1778.33px;stroke-linejoin:miter;stroke-miterlimit:8;"/>
                </g>
                <g transform="matrix(-0.0008193,0,0,-0.0008184,437.294,278.263)">
                    <path d="M0,-22678.6L0,-12246.4C0,-6985.92 4264.49,-2721.43 9525,-2721.43L16328.6,-2721.43L16328.6,0L21771.4,-5442.86L16328.6,-10885.7L16328.6,-8164.28L9525,-8164.28C7270.49,-8164.28 5442.86,-9991.92 5442.86,-12246.4L5442.86,-22678.6L0,-22678.6Z" style="fill:rgb(226,238,254);"/>
                </g>
                <g transform="matrix(-0.0008193,0,0,-0.0008184,437.294,278.262)">
                    <path d="M0,-22678.6L0,-12246.4C0,-6985.92 4264.49,-2721.43 9525,-2721.43L16328.6,-2721.43L16328.6,0L21771.4,-5442.86L16328.6,-10885.7L16328.6,-8164.28L9525,-8164.28C7270.49,-8164.28 5442.86,-9991.92 5442.86,-12246.4L5442.86,-22678.6L0,-22678.6Z" style="fill:none;fill-rule:nonzero;stroke:rgb(8,72,156);stroke-width:2625.14px;"/>
                </g>
                <g transform="matrix(0,-0.0007794,-0.0007803,0,422.8,222.584)">
                    <path d="M0,-23336.3L0,-12590.9C0,-7182.4 4384.43,-2797.98 9792.89,-2797.98L16787.8,-2797.98L16787.8,0L22383.8,-5595.93L16787.8,-11191.9L16787.8,-8393.9L9792.89,-8393.9C7474.97,-8393.9 5595.93,-10272.9 5595.93,-12590.9L5595.93,-23336.3L0,-23336.3Z" style="fill:rgb(226,238,254);"/>
                </g>
                <g transform="matrix(0,-0.0007794,-0.0007803,0,422.8,222.584)">
                    <path d="M0,-23336.3L0,-12590.9C0,-7182.4 4384.43,-2797.98 9792.89,-2797.98L16787.8,-2797.98L16787.8,0L22383.8,-5595.93L16787.8,-11191.9L16787.8,-8393.9L9792.89,-8393.9C7474.97,-8393.9 5595.93,-10272.9 5595.93,-12590.9L5595.93,-23336.3L0,-23336.3Z" style="fill:none;fill-rule:nonzero;stroke:rgb(8,72,156);stroke-width:2756.41px;"/>
                </g>
                <g transform="matrix(0,-0.0007404,-0.0007413,0,435.435,237.431)">
                    <path d="M0,14538.2L7018.42,21556.6L14036.8,14538.2L10527.6,14538.2L10527.6,-7018.41L3509.23,-7018.41L3509.23,14538.2L0,14538.2Z" style="fill:rgb(226,238,254);stroke:rgb(8,72,156);stroke-width:2901.5px;stroke-linejoin:miter;stroke-miterlimit:8;"/>
                </g>
                <g transform="matrix(0,0.0007794,-0.0007803,0,422.8,242.257)">
                    <path d="M0,-23336.3L0,-12590.9C0,-7182.4 4384.43,-2797.98 9792.89,-2797.98L16787.8,-2797.98L16787.8,0L22383.8,-5595.93L16787.8,-11191.9L16787.8,-8393.9L9792.89,-8393.9C7474.97,-8393.9 5595.93,-10272.9 5595.93,-12590.9L5595.93,-23336.3L0,-23336.3Z" style="fill:rgb(226,238,254);stroke:rgb(8,72,156);stroke-width:2756.41px;"/>
                </g>
                <g transform="matrix(-0.0007803,0,0,0.0007794,360.367,256.362)">
                    <path d="M0,-23336.3L0,-12858.7C0,-7335.22 4477.71,-2857.52 10001.2,-2857.52L17145,-2857.49L17145,0L22860,-5715.01L17145,-11430L17145,-8572.5L10001.2,-8572.5C7634.01,-8572.5 5714.99,-10491.5 5714.99,-12858.7L5715.01,-23336.3L0,-23336.3Z" style="fill:rgb(226,238,254);stroke:rgb(8,72,156);stroke-width:2756.41px;"/>
                </g>
                <g transform="matrix(-0.0011705,0,0,0.0011691,375.232,228.152)">
                    <path d="M0,22542.5L4445,26987.5L8890,22542.5L6667.52,22542.5L6667.52,-4445L2222.52,-4445L2222.52,22542.5L0,22542.5Z" style="fill:rgb(226,238,254);stroke:rgb(8,72,156);stroke-width:1837.61px;stroke-linejoin:miter;stroke-miterlimit:8;"/>
                </g>
                <g transform="matrix(0.0007803,0,0,0.0007794,379.692,256.362)">
                    <path d="M0,-23336.3L0,-12858.7C0,-7335.22 4477.71,-2857.52 10001.2,-2857.52L17145,-2857.49L17145,0L22860,-5715.01L17145,-11430L17145,-8572.5L10001.2,-8572.5C7634.01,-8572.5 5714.99,-10491.5 5714.99,-12858.7L5715.01,-23336.3L0,-23336.3Z" style="fill:rgb(226,238,254);stroke:rgb(8,72,156);stroke-width:2756.41px;"/>
                </g>
                <g transform="matrix(0,0.0007794,0.0007803,0,394.185,312.412)">
                    <path d="M0,-23336.3L0,-12590.9C0,-7182.4 4384.43,-2797.98 9792.89,-2797.98L16787.8,-2797.98L16787.8,0L22383.8,-5595.93L16787.8,-11191.9L16787.8,-8393.9L9792.89,-8393.9C7474.97,-8393.9 5595.93,-10272.9 5595.93,-12590.9L5595.93,-23336.3L0,-23336.3Z" style="fill:rgb(226,238,254);stroke:rgb(8,72,156);stroke-width:2756.41px;"/>
                </g>
                <g transform="matrix(0,0.0007404,0.0007413,0,381.736,297.193)">
                    <path d="M0,14036.8L7269.1,21305.9L14538.2,14036.8L10903.6,14036.8L10903.6,-7269.09L3634.53,-7269.09L3634.53,14036.8L0,14036.8Z" style="fill:rgb(226,238,254);stroke:rgb(8,72,156);stroke-width:2901.5px;stroke-linejoin:miter;stroke-miterlimit:8;"/>
                </g>
                <g transform="matrix(0,-0.0007794,0.0007803,0,394.185,292.739)">
                    <path d="M0,-23336.3L0,-12590.9C0,-7182.4 4384.43,-2797.98 9792.89,-2797.98L16787.8,-2797.98L16787.8,0L22383.8,-5595.93L16787.8,-11191.9L16787.8,-8393.9L9792.89,-8393.9C7474.97,-8393.9 5595.93,-10272.9 5595.93,-12590.9L5595.93,-23336.3L0,-23336.3Z" style="fill:rgb(226,238,254);stroke:rgb(8,72,156);stroke-width:2756.41px;"/>
                </g>
                <g transform="matrix(1.26417e-09,0.0068588,-0.0068668,1.2627e-09,518.161,261.412)">
                    <path d="M-16295.5,16295.5L16295.5,16295.5" style="fill:none;fill-rule:nonzero;stroke:rgb(166,166,166);stroke-width:538.77px;"/>
                </g>
                <g transform="matrix(0,-0.0010132,0.0010144,0,407.006,397.415)">
                    <path d="M11723.1,-11723.1C17894.1,-11723.1 22896.6,-6474.48 22896.6,0C22896.6,6474.48 17894.1,11723.1 11723.1,11723.1C5552.09,11723.1 549.519,6474.48 549.519,0C549.519,-6474.48 5552.09,-11723.1 11723.1,-11723.1" style="fill:rgb(226,238,254);"/>
                </g>
                <g transform="matrix(0,-0.0010132,0.0010144,0,407.006,397.415)">
                    <ellipse cx="11723.1" cy="0" rx="11173.6" ry="11723.1" style="fill:none;stroke:rgb(8,72,156);stroke-width:3180.48px;"/>
                </g>
                <g transform="matrix(0.0008193,0,0,-0.0008184,394.185,353.243)">
                    <rect x="0" y="0" width="31296.4" height="6350" style="fill:rgb(255,234,167);stroke:rgb(255,169,10);stroke-width:2625.14px;"/>
                </g>
                <g transform="matrix(9.65467e-10,-0.0005456,-0.0005462,-9.64406e-10,427.922,344.44)">
                    <path d="M-15840.6,15840.6L15840.7,15840.6" style="fill:none;fill-rule:nonzero;stroke:rgb(8,72,156);stroke-width:6773.07px;"/>
                </g>
                <g transform="matrix(0.0007023,0,0,0.0007015,422.057,331.157)">
                    <path d="M0,7936.97L-3969.1,-0.354L-7937.5,7937.32L0,7936.97Z" style="fill:rgb(8,72,156);"/>
                </g>
                <g transform="matrix(9.87117e-10,0.0005456,-0.0005462,9.86033e-10,403.205,356.685)">
                    <path d="M-15493.2,15493.2L15493.2,15493.2" style="fill:none;fill-rule:nonzero;stroke:rgb(8,72,156);stroke-width:6773.07px;"/>
                </g>
                <g transform="matrix(0.0007023,0,0,-0.0007015,397.53,369.779)">
                    <path d="M0,7936.97L-3969.1,-0.355L-7937.5,7937.32L0,7936.97Z" style="fill:rgb(8,72,156);"/>
                </g>
                <g transform="matrix(0.0008193,0,0,-0.0008184,394.185,180.639)">
                    <rect x="0" y="0" width="30842.9" height="6803.57" style="fill:rgb(255,234,167);stroke:rgb(255,169,10);stroke-width:2625.14px;"/>
                </g>
                <g transform="matrix(9.65467e-10,-0.0005456,-0.0005462,-9.64406e-10,427.55,172.206)">
                    <path d="M-15840.6,15840.6L15840.7,15840.6" style="fill:none;fill-rule:nonzero;stroke:rgb(8,72,156);stroke-width:6773.07px;"/>
                </g>
                <g transform="matrix(0.0007023,0,0,0.0007015,421.686,158.923)">
                    <path d="M0,7936.97L-3969.1,-0.354L-7937.5,7937.32L0,7936.97Z" style="fill:rgb(8,72,156);"/>
                </g>
                <g transform="matrix(9.69158e-10,0.0005846,-0.0005852,9.68165e-10,404.283,184.416)">
                    <path d="M-16303.2,16303.2L16303.2,16303.2" style="fill:none;fill-rule:nonzero;stroke:rgb(8,72,156);stroke-width:6321.51px;"/>
                </g>
                <g transform="matrix(0.0007803,0,0,-0.0007794,397.53,198.585)">
                    <path d="M0,7143.27L-3572.2,-0.318L-7143.75,7143.59L0,7143.27Z" style="fill:rgb(8,72,156);"/>
                </g>
                <g transform="matrix(0.0076081,0,0,-0.0075992,284.741,266.57)">
                    <path d="M0,0.005L32753.2,0" style="fill:none;fill-rule:nonzero;stroke:rgb(166,166,166);stroke-width:486.27px;"/>
                </g>
                <g transform="matrix(0,0.0008184,0.0008193,0,508.646,253.393)">
                    <rect x="0" y="0" width="31296.4" height="6350" style="fill:rgb(255,234,167);stroke:rgb(255,169,10);stroke-width:2625.14px;"/>
                </g>
                <g transform="matrix(0,0.0008184,0.0008193,0,300.907,254.135)">
                    <rect x="0" y="0" width="30842.9" height="6803.57" style="fill:rgb(255,234,167);stroke:rgb(255,169,10);stroke-width:2625.14px;"/>
                </g>
                <g transform="matrix(0.0005462,9.64406e-10,9.65467e-10,-0.0005456,309.373,287.833)">
                    <path d="M-15840.6,15840.6L15840.7,15840.6" style="fill:none;fill-rule:nonzero;stroke:rgb(55,96,146);stroke-width:6773.08px;"/>
                </g>
                <g transform="matrix(0,0.0007015,-0.0007023,0,322.672,281.975)">
                    <path d="M0,7936.97L-3969.1,-0.354L-7937.5,7937.32L0,7936.97Z" style="fill:rgb(55,96,146);"/>
                </g>
                <g transform="matrix(-0.0005462,9.86033e-10,-9.87117e-10,-0.0005456,298.593,262.774)">
                    <path d="M-15493.2,15493.2L15493.2,15493.2" style="fill:none;fill-rule:nonzero;stroke:rgb(8,72,156);stroke-width:6773.08px;"/>
                </g>
                <g transform="matrix(0,0.0007015,0.0007023,0,285.484,257.105)">
                    <path d="M0,7936.97L-3969.1,-0.355L-7937.5,7937.32L0,7936.97Z" style="fill:rgb(8,72,156);"/>
                </g>
                <g transform="matrix(0,-0.0010132,0.0010144,0,545.622,278.633)">
                    <path d="M11723.1,-11723.1C17894.1,-11723.1 22896.6,-6474.48 22896.6,0C22896.6,6474.48 17894.1,11723.1 11723.1,11723.1C5552.09,11723.1 549.519,6474.48 549.519,0C549.519,-6474.48 5552.09,-11723.1 11723.1,-11723.1" style="fill:rgb(226,238,254);"/>
                </g>
                <g transform="matrix(0,-0.0010132,0.0010144,0,545.622,278.633)">
                    <ellipse cx="11723.1" cy="0" rx="11173.6" ry="11723.1" style="fill:none;stroke:rgb(8,72,156);stroke-width:3180.48px;"/>
                </g>
                <g transform="matrix(1.01318,0,0,0.89476,-5.88454,22.5937)">
                    <g transform="matrix(1.00117,0,0,1,-0.521322,0)">
                        <text x="446.563px" y="221.065px" style="font-family:'Arial-BoldMT', 'Arial', sans-serif;font-weight:700;font-size:8.909px;fill:rgb(8,72,156);">V</text>
                    </g>
                    <g transform="matrix(1.00116,0,0,1,-0.526525,0)">
                        <text x="453.2px" y="222.921px" style="font-family:'Arial-BoldMT', 'Arial', sans-serif;font-weight:700;font-size:5.939px;fill:rgb(8,72,156);">D<tspan x="457.948px 460.385px 465.132px " y="222.921px 222.921px 222.921px ">-RT</tspan></text>
                    </g>
                    <g transform="matrix(1.00117,0,0,1,-0.521322,0)">
                        <text x="446.563px" y="234.524px" style="font-family:'Arial-BoldMT', 'Arial', sans-serif;font-weight:700;font-size:8.909px;fill:rgb(8,72,156);">V</text>
                    </g>
                    <g transform="matrix(1.00116,0,0,1,-0.526349,0)">
                        <text x="453.049px" y="236.38px" style="font-family:'Arial-BoldMT', 'Arial', sans-serif;font-weight:700;font-size:5.939px;fill:rgb(8,72,156);">D<tspan x="457.696px 460.032px 464.018px " y="236.38px 236.38px 236.38px ">-TH</tspan></text>
                    </g>
                    <g transform="matrix(1.00117,0,0,1,-0.522103,0)">
                        <text x="447.232px" y="248.232px" style="font-family:'Arial-BoldMT', 'Arial', sans-serif;font-weight:700;font-size:8.909px;fill:rgb(8,72,156);">V</text>
                    </g>
                    <g transform="matrix(1.00116,0,0,1,-0.527154,0)">
                        <text x="453.742px" y="250.088px" style="font-family:'Arial-BoldMT', 'Arial', sans-serif;font-weight:700;font-size:5.939px;fill:rgb(8,72,156);">D</text>
                    </g>
                    <g transform="matrix(1.00116,0,0,1,-0.532577,0)">
                        <text x="458.41px" y="250.088px" style="font-family:'Arial-BoldMT', 'Arial', sans-serif;font-weight:700;font-size:5.939px;fill:rgb(8,72,156);">-<tspan x="460.761px " y="250.088px ">L</tspan>T</text>
                    </g>
                </g>
                <g transform="matrix(1.01318,0,0,0.89476,-4.99028,23.6919)">
                    <g transform="matrix(1.00117,0,0,1,-0.442098,0)">
                        <text x="378.7px" y="231.501px" style="font-family:'Arial-BoldMT', 'Arial', sans-serif;font-weight:700;font-size:8.909px;fill:rgb(8,72,156);">V</text>
                    </g>
                    <g transform="matrix(1.00116,0,0,1,-0.447245,0)">
                        <text x="384.961px" y="233.357px" style="font-family:'Arial-BoldMT', 'Arial', sans-serif;font-weight:700;font-size:5.939px;fill:rgb(8,72,156);">C<tspan x="389.459px 391.645px 395.041px " y="233.357px 233.357px 233.357px ">-LT</tspan></text>
                    </g>
                </g>
                <g transform="matrix(1.01318,0,0,0.89476,-4.58997,31.4126)">
                    <g transform="matrix(1.00117,0,0,1,-0.406634,0)">
                        <text x="348.321px" y="304.864px" style="font-family:'Arial-BoldMT', 'Arial', sans-serif;font-weight:700;font-size:8.909px;fill:rgb(8,72,156);">V</text>
                    </g>
                    <g transform="matrix(1.00116,0,0,1,-0.412068,0)">
                        <text x="354.683px" y="306.72px" style="font-family:'Arial-BoldMT', 'Arial', sans-serif;font-weight:700;font-size:5.939px;fill:rgb(8,72,156);">B<tspan x="359.248px 361.501px 365.404px " y="306.72px 306.72px 306.72px ">-TH</tspan></text>
                    </g>
                </g>
                <g transform="matrix(1.01318,0,0,0.89476,-5.77224,31.9389)">
                    <g transform="matrix(1.00117,0,0,1,-0.533574,0)">
                        <text x="457.057px" y="309.865px" style="font-family:'Arial-BoldMT', 'Arial', sans-serif;font-weight:700;font-size:8.909px;fill:rgb(8,72,156);">V</text>
                    </g>
                    <g transform="matrix(1.00116,0,0,1,-0.538285,0)">
                        <text x="463.323px" y="311.721px" style="font-family:'Arial-BoldMT', 'Arial', sans-serif;font-weight:700;font-size:5.939px;fill:rgb(8,72,156);">A<tspan x="467.823px 470.012px 474.512px " y="311.721px 311.721px 311.721px ">-RT</tspan></text>
                    </g>
                    <g transform="matrix(1.00117,0,0,1,-0.511373,0)">
                        <text x="438.04px" y="323.513px" style="font-family:'Arial-BoldMT', 'Arial', sans-serif;font-weight:700;font-size:8.909px;fill:rgb(8,72,156);">V</text>
                    </g>
                    <g transform="matrix(1.00116,0,0,1,-0.516016,0)">
                        <text x="444.155px" y="325.369px" style="font-family:'Arial-BoldMT', 'Arial', sans-serif;font-weight:700;font-size:5.939px;fill:rgb(8,72,156);">A<tspan x="448.554px 450.642px 454.38px " y="325.369px 325.369px 325.369px ">-TH</tspan></text>
                    </g>
                </g>
                <g transform="matrix(1.01318,0,0,0.89476,-5.51796,31.8998)">
                    <g transform="matrix(1.00117,0,0,1,-0.488846,0)">
                        <text x="418.744px" y="309.494px" style="font-family:'Arial-BoldMT', 'Arial', sans-serif;font-weight:700;font-size:8.909px;fill:rgb(8,72,156);">V</text>
                    </g>
                    <g transform="matrix(1.00116,0,0,1,-0.493624,0)">
                        <text x="424.882px" y="311.349px" style="font-family:'Arial-BoldMT', 'Arial', sans-serif;font-weight:700;font-size:5.939px;fill:rgb(8,72,156);">A<tspan x="429.296px 431.4px 434.713px " y="311.349px 311.349px 311.349px ">-LT</tspan></text>
                    </g>
                </g>
                <g transform="matrix(1.01318,0,0,0.89476,-4.46044,23.6708)">
                    <g transform="matrix(1.00117,0,0,1,-0.395159,0)">
                        <text x="338.491px" y="231.3px" style="font-family:'Arial-BoldMT', 'Arial', sans-serif;font-weight:700;font-size:8.909px;fill:rgb(8,72,156);">V</text>
                    </g>
                    <g transform="matrix(1.00116,0,0,1,-0.40068,0)">
                        <text x="344.881px" y="233.156px" style="font-family:'Arial-BoldMT', 'Arial', sans-serif;font-weight:700;font-size:5.939px;fill:rgb(8,72,156);">C<tspan x="349.464px 351.735px 356.318px " y="233.156px 233.156px 233.156px ">-RT</tspan></text>
                    </g>
                </g>
                <g transform="matrix(1.01318,0,0,0.89476,-4.73393,22.055)">
                    <g transform="matrix(1.00117,0,0,1,-0.419387,0)">
                        <text x="359.245px" y="215.947px" style="font-family:'Arial-BoldMT', 'Arial', sans-serif;font-weight:700;font-size:8.909px;fill:rgb(8,72,156);">V</text>
                    </g>
                    <g transform="matrix(1.00116,0,0,1,-0.424616,0)">
                        <text x="365.484px" y="217.803px" style="font-family:'Arial-BoldMT', 'Arial', sans-serif;font-weight:700;font-size:5.939px;fill:rgb(8,72,156);">C<tspan x="369.966px 372.136px 375.957px " y="217.803px 217.803px 217.803px ">-TH</tspan></text>
                    </g>
                </g>
                <g transform="matrix(1.01318,0,0,0.89476,-4.58958,30.1061)">
                    <g transform="matrix(1.00117,0,0,1,-0.406599,0)">
                        <text x="348.291px" y="292.45px" style="font-family:'Arial-BoldMT', 'Arial', sans-serif;font-weight:700;font-size:8.909px;fill:rgb(8,72,156);">V</text>
                    </g>
                    <g transform="matrix(1.00116,0,0,1,-0.412061,0)">
                        <text x="354.677px" y="294.305px" style="font-family:'Arial-BoldMT', 'Arial', sans-serif;font-weight:700;font-size:5.939px;fill:rgb(8,72,156);">B<tspan x="359.257px 361.526px 365.005px " y="294.305px 294.305px 294.305px ">-LT</tspan></text>
                    </g>
                    <g transform="matrix(1.00117,0,0,1,-0.407326,0)">
                        <text x="348.914px" y="317.278px" style="font-family:'Arial-BoldMT', 'Arial', sans-serif;font-weight:700;font-size:8.909px;fill:rgb(8,72,156);">V</text>
                    </g>
                    <g transform="matrix(1.00116,0,0,1,-0.412933,0)">
                        <text x="355.428px" y="319.134px" style="font-family:'Arial-BoldMT', 'Arial', sans-serif;font-weight:700;font-size:5.939px;fill:rgb(8,72,156);">B<tspan x="360.093px 362.447px 367.112px " y="319.134px 319.134px 319.134px ">-RT</tspan></text>
                    </g>
                </g>
                <g transform="matrix(1.01436,0,0,0.89476,-5.77455,40.1158)">
                    <text x="402.042px" y="389.689px" style="font-family:'Arial-BoldMT', 'Arial', sans-serif;font-weight:700;font-size:11.878px;fill:rgb(8,72,156);stroke:rgb(8,72,156);stroke-width:1.04px;stroke-linejoin:miter;">A</text>
                </g>
                <g transform="matrix(1.01318,0,0,0.89476,-5.59842,35.96)">
                    <g transform="matrix(1.00117,0,0,1,-0.495974,0)">
                        <text x="424.85px" y="348.073px" style="font-family:'Arial-BoldMT', 'Arial', sans-serif;font-weight:700;font-size:8.909px;fill:rgb(8,72,156);">T</text>
                    </g>
                    <g transform="matrix(1.00116,0,0,1,-0.50012,0)">
                        <text x="430.473px" y="349.929px" style="font-family:'Arial-BoldMT', 'Arial', sans-serif;font-weight:700;font-size:5.939px;fill:rgb(8,72,156);">A<tspan x="434.879px " y="349.929px ">1</tspan></text>
                    </g>
                </g>
                <g transform="matrix(1.01318,0,0,0.89476,-4.92987,37.0718)">
                    <g transform="matrix(1.00117,0,0,1,-0.436746,0)">
                        <text x="374.115px" y="358.638px" style="font-family:'Arial-BoldMT', 'Arial', sans-serif;font-weight:700;font-size:8.909px;fill:rgb(8,72,156);">T</text>
                    </g>
                    <g transform="matrix(1.00116,0,0,1,-0.441177,0)">
                        <text x="379.738px" y="360.494px" style="font-family:'Arial-BoldMT', 'Arial', sans-serif;font-weight:700;font-size:5.939px;fill:rgb(8,72,156);">A<tspan x="384.144px " y="360.494px ">2</tspan></text>
                    </g>
                </g>
                <g transform="matrix(1.01318,0,0,0.89476,-5.60763,17.522)">
                    <g transform="matrix(1.00117,0,0,1,-0.49679,0)">
                        <text x="425.548px" y="172.873px" style="font-family:'Arial-BoldMT', 'Arial', sans-serif;font-weight:700;font-size:8.909px;fill:rgb(8,72,156);">T</text>
                    </g>
                    <g transform="matrix(1.00116,0,0,1,-0.500932,0)">
                        <text x="431.172px" y="174.729px" style="font-family:'Arial-BoldMT', 'Arial', sans-serif;font-weight:700;font-size:5.939px;fill:rgb(8,72,156);">C<tspan x="435.578px " y="174.729px ">2</tspan></text>
                    </g>
                </g>
                <g transform="matrix(1.01318,0,0,0.89476,-4.93956,18.7844)">
                    <g transform="matrix(1.00117,0,0,1,-0.437605,0)">
                        <text x="374.85px" y="184.869px" style="font-family:'Arial-BoldMT', 'Arial', sans-serif;font-weight:700;font-size:8.909px;fill:rgb(8,72,156);">T</text>
                    </g>
                    <g transform="matrix(1.00116,0,0,1,-0.442031,0)">
                        <text x="380.474px" y="186.725px" style="font-family:'Arial-BoldMT', 'Arial', sans-serif;font-weight:700;font-size:5.939px;fill:rgb(8,72,156);">C<tspan x="384.88px " y="186.725px ">1</tspan></text>
                    </g>
                </g>
                <g transform="matrix(1.01318,0,0,0.89476,-6.57962,24.928)">
                    <g transform="matrix(1.00117,0,0,1,-0.5829,0)">
                        <text x="499.31px" y="243.246px" style="font-family:'Arial-BoldMT', 'Arial', sans-serif;font-weight:700;font-size:8.909px;fill:rgb(8,72,156);">T</text>
                    </g>
                    <g transform="matrix(1.00116,0,0,1,-0.587147,0)">
                        <text x="505.38px" y="245.102px" style="font-family:'Arial-BoldMT', 'Arial', sans-serif;font-weight:700;font-size:5.939px;fill:rgb(8,72,156);">D<tspan x="510.083px " y="245.102px ">1</tspan></text>
                    </g>
                </g>
                <g transform="matrix(1.01318,0,0,0.89476,-6.73813,30.0729)">
                    <g transform="matrix(1.00117,0,0,1,-0.596943,0)">
                        <text x="511.339px" y="292.134px" style="font-family:'Arial-BoldMT', 'Arial', sans-serif;font-weight:700;font-size:8.909px;fill:rgb(8,72,156);">T</text>
                    </g>
                    <g transform="matrix(1.00116,0,0,1,-0.601121,0)">
                        <text x="517.409px" y="293.99px" style="font-family:'Arial-BoldMT', 'Arial', sans-serif;font-weight:700;font-size:5.939px;fill:rgb(8,72,156);">D<tspan x="522.112px " y="293.99px ">2</tspan></text>
                    </g>
                </g>
                <g transform="matrix(1.01318,0,0,0.89476,-3.81929,25.0998)">
                    <g transform="matrix(1.00117,0,0,1,-0.338358,0)">
                        <text x="289.836px" y="244.879px" style="font-family:'Arial-BoldMT', 'Arial', sans-serif;font-weight:700;font-size:8.909px;fill:rgb(8,72,156);">T</text>
                    </g>
                    <g transform="matrix(1.00116,0,0,1,-0.343522,0)">
                        <text x="295.683px" y="246.735px" style="font-family:'Arial-BoldMT', 'Arial', sans-serif;font-weight:700;font-size:5.939px;fill:rgb(8,72,156);">B<tspan x="300.237px " y="246.735px ">2</tspan></text>
                    </g>
                </g>
                <g transform="matrix(1.01318,0,0,0.89476,-3.98427,29.9683)">
                    <g transform="matrix(1.00117,0,0,1,-0.352973,0)">
                        <text x="302.356px" y="291.14px" style="font-family:'Arial-BoldMT', 'Arial', sans-serif;font-weight:700;font-size:8.909px;fill:rgb(8,72,156);">T</text>
                    </g>
                    <g transform="matrix(1.00116,0,0,1,-0.358067,0)">
                        <text x="308.202px" y="292.996px" style="font-family:'Arial-BoldMT', 'Arial', sans-serif;font-weight:700;font-size:5.939px;fill:rgb(8,72,156);">B<tspan x="312.757px " y="292.996px ">1</tspan></text>
                    </g>
                </g>
                <g transform="matrix(1.01436,0,0,0.89476,-7.76528,27.6191)">
                    <text x="540.642px" y="270.943px" style="font-family:'Arial-BoldMT', 'Arial', sans-serif;font-weight:700;font-size:11.878px;fill:rgb(8,72,156);stroke:rgb(8,72,156);stroke-width:1.04px;stroke-linejoin:miter;">D</text>
                </g>
                <g transform="matrix(0,-0.0010132,0.0010144,0,272.849,278.633)">
                    <path d="M11723.1,-11723.1C17894.1,-11723.1 22896.6,-6474.48 22896.6,0C22896.6,6474.48 17894.1,11723.1 11723.1,11723.1C5552.09,11723.1 549.519,6474.48 549.519,0C549.519,-6474.48 5552.09,-11723.1 11723.1,-11723.1" style="fill:rgb(226,238,254);"/>
                </g>
                <g transform="matrix(0,-0.0010132,0.0010144,0,272.849,278.633)">
                    <ellipse cx="11723.1" cy="0" rx="11173.6" ry="11723.1" style="fill:none;stroke:rgb(8,72,156);stroke-width:3180.48px;"/>
                </g>
            </g>
            <g transform="matrix(4.22651,0,0,3.72817,-16.0406,1716.71)">
                <text x="268.031px" y="270.942px" style="font-family:'Arial-BoldMT', 'Arial', sans-serif;font-weight:700;font-size:11.878px;fill:rgb(8,72,156);stroke:rgb(8,72,156);stroke-width:1.04px;stroke-linejoin:miter;">B</text>
            </g>
            <g transform="matrix(0,-0.00422167,0.00422667,0,1695.86,2259.95)">
                <path d="M11723.1,-11723.1C17894.1,-11723.1 22896.6,-6474.48 22896.6,0C22896.6,6474.48 17894.1,11723.1 11723.1,11723.1C5552.09,11723.1 549.519,6474.48 549.519,0C549.519,-6474.48 5552.09,-11723.1 11723.1,-11723.1" style="fill:rgb(226,238,254);"/>
            </g>
            <g transform="matrix(0,-0.00422167,0.00422667,0,1695.86,2259.95)">
                <ellipse cx="11723.1" cy="0" rx="11173.6" ry="11723.1" style="fill:none;stroke:rgb(8,72,156);stroke-width:3180.48px;"/>
            </g>
            <g transform="matrix(4.22651,0,0,3.72817,-24.0781,1663.86)">
                <text x="402.334px" y="150.421px" style="font-family:'Arial-BoldMT', 'Arial', sans-serif;font-weight:700;font-size:11.878px;fill:rgb(8,72,156);stroke:rgb(8,72,156);stroke-width:1.04px;stroke-linejoin:miter;">C</text>
            </g>
            <g transform="matrix(-0.00227583,4.10847e-09,-4.11299e-09,-0.00227333,2108.17,2693.43)">
                <path d="M-15493.2,15493.2L15493.2,15493.2" style="fill:none;fill-rule:nonzero;stroke:rgb(8,72,156);stroke-width:6773.08px;"/>
            </g>
            <g transform="matrix(0,0.00292292,0.00292625,0,2053.55,2669.81)">
                <path d="M0,7936.97L-3969.1,-0.355L-7937.5,7937.32L0,7936.97Z" style="fill:rgb(8,72,156);"/>
            </g>
            <g transform="matrix(0.00227583,4.01836e-09,4.02278e-09,-0.00227333,2154.63,2800.94)">
                <path d="M-15840.6,15840.6L15840.7,15840.6" style="fill:none;fill-rule:nonzero;stroke:rgb(8,72,156);stroke-width:6773.08px;"/>
            </g>
            <g transform="matrix(0,0.00292292,-0.00292625,0,2210.04,2776.53)">
                <path d="M0,7936.97L-3969.1,-0.354L-7937.5,7937.32L0,7936.97Z" style="fill:rgb(8,72,156);"/>
            </g>
        </g>
    </g>
</svg>
