<?xml version="1.0" encoding="UTF-8" standalone="no"?>
<!DOCTYPE svg PUBLIC "-//W3C//DTD SVG 1.1//EN" "http://www.w3.org/Graphics/SVG/1.1/DTD/svg11.dtd">
<svg width="100%" height="100%" viewBox="0 0 404 406" version="1.1" xmlns="http://www.w3.org/2000/svg" xmlns:xlink="http://www.w3.org/1999/xlink" xml:space="preserve" xmlns:serif="http://www.serif.com/" style="fill-rule:evenodd;clip-rule:evenodd;stroke-linejoin:round;stroke-miterlimit:10;">
    <g transform="matrix(1,0,0,1,-206.549,-2548.65)">
        <g transform="matrix(0.394347,0,0,0.384281,-308.709,1720.31)">
            <g transform="matrix(5.78251e-09,0.0278779,-0.0270267,5.96464e-09,2251.34,2694.54)">
                <path d="M-16358.5,16358.5L16358.5,16358.5" style="fill:none;fill-rule:nonzero;stroke:rgb(166,166,166);stroke-width:561.29px;"/>
            </g>
            <g transform="matrix(0.0270267,0,0,-0.0278779,1366.44,2693.45)">
                <path d="M0,0.007L32717.1,0" style="fill:none;fill-rule:nonzero;stroke:rgb(166,166,166);stroke-width:561.29px;"/>
            </g>
            <g transform="matrix(0,-0.00538958,0.005225,0,1816.08,2283.64)">
                <path d="M11167.2,-11167.2C17425.4,-11167.2 22498.7,-6167.5 22498.7,0C22498.7,6167.49 17425.4,11167.2 11167.2,11167.2C4909.05,11167.2 -164.225,6167.49 -164.225,0C-164.225,-6167.5 4909.05,-11167.2 11167.2,-11167.2" style="fill:rgb(226,238,254);"/>
            </g>
            <g transform="matrix(0,-0.00538958,0.005225,0,1816.08,2283.64)">
                <ellipse cx="11167.2" cy="0" rx="11331.5" ry="11167.2" style="fill:none;stroke:rgb(8,72,156);stroke-width:2531.78px;"/>
            </g>
            <g transform="matrix(0,-0.00520375,0.005045,0,2268.3,2740.36)">
                <path d="M11055.8,-11055.8C17443.6,-11055.8 22621.9,-6105.95 22621.9,0.001C22621.9,6105.95 17443.6,11055.8 11055.8,11055.8C4668.04,11055.8 -510.267,6105.95 -510.267,0.001C-510.267,-6105.95 4668.04,-11055.8 11055.8,-11055.8" style="fill:rgb(226,238,254);"/>
            </g>
            <g transform="matrix(0,-0.00520375,0.005045,0,2268.3,2740.36)">
                <ellipse cx="11055.8" cy="0" rx="11566.1" ry="11055.8" style="fill:none;stroke:rgb(8,72,156);stroke-width:2622.2px;"/>
            </g>
            <g transform="matrix(0,-0.000929167,0.000900833,0,1840.97,3142.21)">
                <path d="M10477.5,-10477.5C15738,-10477.5 20002.5,-5786.56 20002.5,0C20002.5,5786.56 15738,10477.5 10477.5,10477.5C5216.99,10477.5 952.5,5786.56 952.5,0C952.5,-5786.56 5216.99,-10477.5 10477.5,-10477.5" style="fill:rgb(79,129,189);"/>
            </g>
            <g transform="matrix(0,-0.000929167,0.000900833,0,1840.97,3142.21)">
                <ellipse cx="10477.5" cy="0" rx="9525" ry="10477.5" style="fill:none;stroke:rgb(56,93,138);stroke-width:14684.3px;"/>
            </g>
            <g transform="matrix(0,-0.000929167,0.000900833,0,1823.81,3150.18)">
                <path d="M10477.5,-10477.5C16264.1,-10477.5 20955,-5786.56 20955,0C20955,5786.56 16264.1,10477.5 10477.5,10477.5C4690.94,10477.5 0,5786.56 0,0C0,-5786.56 4690.94,-10477.5 10477.5,-10477.5" style="fill:rgb(79,129,189);"/>
            </g>
            <g transform="matrix(0,-0.000929167,0.000900833,0,1823.81,3150.18)">
                <circle cx="10477.5" cy="0" r="10477.5" style="fill:none;stroke:rgb(56,93,138);stroke-width:14684.3px;"/>
            </g>
            <g transform="matrix(0,-0.00557542,0.00540542,0,1816.09,3198.86)">
                <path d="M10795,-10795C17195.3,-10795 22383.8,-5961.91 22383.8,0C22383.8,5961.91 17195.3,10795 10795,10795C4394.71,10795 -793.75,5961.91 -793.75,0C-793.75,-5961.91 4394.71,-10795 10795,-10795" style="fill:rgb(226,238,254);"/>
            </g>
            <g transform="matrix(0,-0.00557542,0.00540542,0,1816.09,3198.86)">
                <ellipse cx="10795" cy="0" rx="11588.8" ry="10795" style="fill:none;stroke:rgb(8,72,156);stroke-width:2447.39px;"/>
            </g>
            <g transform="matrix(0,-0.00501792,0.004865,0,1368.16,2743.02)">
                <path d="M11288.9,-11288.9C17523.6,-11288.9 22577.8,-6234.68 22577.8,0C22577.8,6234.68 17523.6,11288.9 11288.9,11288.9C5054.21,11288.9 -0,6234.68 -0,0C-0,-6234.68 5054.21,-11288.9 11288.9,-11288.9" style="fill:rgb(226,238,254);"/>
            </g>
            <g transform="matrix(0,-0.00501792,0.004865,0,1368.16,2743.02)">
                <ellipse cx="11288.9" cy="0" rx="11288.9" ry="11288.9" style="fill:none;stroke:rgb(8,72,156);stroke-width:2719.32px;"/>
            </g>
            <g transform="matrix(0.00378375,0,0,-0.00390292,1749.15,2978.46)">
                <rect x="0" y="0" width="31296.4" height="6803.57" style="fill:rgb(255,234,167);stroke:rgb(255,169,10);stroke-width:3496.27px;"/>
            </g>
            <g transform="matrix(4.45879e-09,-0.00260208,-0.0025225,-4.59946e-09,1905.81,2939.13)">
                <path d="M-15840.6,15840.6L15840.7,15840.6" style="fill:none;fill-rule:nonzero;stroke:rgb(8,72,156);stroke-width:6013.77px;"/>
            </g>
            <g transform="matrix(0.00324333,0,0,0.00334542,1878.73,2875.79)">
                <path d="M0,7936.97L-3969.1,-0.354L-7937.5,7937.32L0,7936.97Z" style="fill:rgb(8,72,156);"/>
            </g>
            <g transform="matrix(4.55878e-09,0.00260208,-0.0025225,4.7026e-09,1789.95,2992.23)">
                <path d="M-15493.2,15493.2L15493.2,15493.2" style="fill:none;fill-rule:nonzero;stroke:rgb(8,72,156);stroke-width:6013.77px;"/>
            </g>
            <g transform="matrix(0.00324333,0,0,-0.00334542,1763.74,3054.66)">
                <path d="M0,7936.97L-3969.1,-0.355L-7937.5,7937.32L0,7936.97Z" style="fill:rgb(8,72,156);"/>
            </g>
            <g transform="matrix(0.00378375,0,0,-0.00390292,1750.87,2394.28)">
                <rect x="0" y="0" width="30842.9" height="6350" style="fill:rgb(255,234,167);stroke:rgb(255,169,10);stroke-width:3496.27px;"/>
            </g>
            <g transform="matrix(4.45879e-09,-0.00260208,-0.0025225,-4.59946e-09,1905.81,2354.95)">
                <path d="M-15840.6,15840.6L15840.7,15840.6" style="fill:none;fill-rule:nonzero;stroke:rgb(8,72,156);stroke-width:6013.77px;"/>
            </g>
            <g transform="matrix(0.00324333,0,0,0.00334542,1878.73,2291.61)">
                <path d="M0,7936.97L-3969.1,-0.354L-7937.5,7937.32L0,7936.97Z" style="fill:rgb(8,72,156);"/>
            </g>
            <g transform="matrix(4.55878e-09,0.00260208,-0.0025225,4.7026e-09,1791.67,2409.81)">
                <path d="M-15493.2,15493.2L15493.2,15493.2" style="fill:none;fill-rule:nonzero;stroke:rgb(8,72,156);stroke-width:6013.77px;"/>
            </g>
            <g transform="matrix(0.00324333,0,0,-0.00334542,1765.46,2472.25)">
                <path d="M0,7936.97L-3969.1,-0.355L-7937.5,7937.32L0,7936.97Z" style="fill:rgb(8,72,156);"/>
            </g>
            <g transform="matrix(0,0.00390292,0.00378375,0,1471.13,2622.64)">
                <rect x="0" y="0" width="30842.9" height="6350" style="fill:rgb(255,234,167);stroke:rgb(255,169,10);stroke-width:3496.27px;"/>
            </g>
            <g transform="matrix(0.0025225,4.59946e-09,4.45879e-09,-0.00260208,1509.37,2784.24)">
                <path d="M-15840.6,15840.6L15840.7,15840.6" style="fill:none;fill-rule:nonzero;stroke:rgb(8,72,156);stroke-width:6013.77px;"/>
            </g>
            <g transform="matrix(0,0.00334542,-0.00324333,0,1570.79,2756.3)">
                <path d="M0,7936.97L-3969.1,-0.354L-7937.5,7937.32L0,7936.97Z" style="fill:rgb(8,72,156);"/>
            </g>
            <g transform="matrix(-0.0025225,4.7026e-09,-4.55878e-09,-0.00260208,1457.87,2662.96)">
                <path d="M-15493.2,15493.2L15493.2,15493.2" style="fill:none;fill-rule:nonzero;stroke:rgb(8,72,156);stroke-width:6013.77px;"/>
            </g>
            <g transform="matrix(0,0.00334542,0.00324333,0,1397.33,2635.92)">
                <path d="M0,7936.97L-3969.1,-0.355L-7937.5,7937.32L0,7936.97Z" style="fill:rgb(8,72,156);"/>
            </g>
            <g transform="matrix(0,0.00390292,0.00378375,0,2137.01,2626.18)">
                <rect x="0" y="0" width="31296.4" height="6350" style="fill:rgb(255,234,167);stroke:rgb(255,169,10);stroke-width:3496.27px;"/>
            </g>
            <g transform="matrix(0.0025225,4.59946e-09,4.45879e-09,-0.00260208,2175.25,2789.55)">
                <path d="M-15840.6,15840.6L15840.7,15840.6" style="fill:none;fill-rule:nonzero;stroke:rgb(8,72,156);stroke-width:6013.77px;"/>
            </g>
            <g transform="matrix(0,0.00334542,-0.00324333,0,2236.67,2761.61)">
                <path d="M0,7936.97L-3969.1,-0.354L-7937.5,7937.32L0,7936.97Z" style="fill:rgb(8,72,156);"/>
            </g>
            <g transform="matrix(-0.0025225,4.7026e-09,-4.55878e-09,-0.00260208,2123.75,2666.5)">
                <path d="M-15493.2,15493.2L15493.2,15493.2" style="fill:none;fill-rule:nonzero;stroke:rgb(8,72,156);stroke-width:6013.77px;"/>
            </g>
            <g transform="matrix(0,0.00334542,0.00324333,0,2063.21,2639.46)">
                <path d="M0,7936.97L-3969.1,-0.355L-7937.5,7937.32L0,7936.97Z" style="fill:rgb(8,72,156);"/>
            </g>
            <g transform="matrix(4.10829,0,0,4.34871,25.1371,1502.38)">
                <text x="430.567px" y="170.928px" style="font-family:'Arial-BoldMT', 'Arial', sans-serif;font-weight:700;font-size:13.596px;fill:rgb(8,72,156);stroke:rgb(8,72,156);stroke-width:0.95px;stroke-linejoin:miter;">C</text>
            </g>
            <g transform="matrix(4.10829,0,0,4.34871,36.5158,1482.34)">
                <text x="538.6px" y="280.971px" style="font-family:'Arial-BoldMT', 'Arial', sans-serif;font-weight:700;font-size:13.596px;fill:rgb(8,72,156);stroke:rgb(8,72,156);stroke-width:0.95px;stroke-linejoin:miter;">D</text>
            </g>
            <g transform="matrix(4.10829,0,0,4.34871,27.6387,1462.44)">
                <text x="429.982px" y="390.306px" style="font-family:'Arial-BoldMT', 'Arial', sans-serif;font-weight:700;font-size:13.596px;fill:rgb(8,72,156);stroke:rgb(8,72,156);stroke-width:0.95px;stroke-linejoin:miter;">A</text>
            </g>
            <g transform="matrix(4.10829,0,0,4.34871,18.8771,1482.18)">
                <text x="323.341px" y="281.862px" style="font-family:'Arial-BoldMT', 'Arial', sans-serif;font-weight:700;font-size:13.596px;fill:rgb(8,72,156);stroke:rgb(8,72,156);stroke-width:0.95px;stroke-linejoin:miter;">B</text>
            </g>
            <g transform="matrix(4.2377,0,0,4.34871,-32.4632,1473.08)">
                <g transform="matrix(0.969459,0,0,1,13.9573,0)">
                    <text x="457.002px" y="333.41px" style="font-family:'Arial-BoldMT', 'Arial', sans-serif;font-weight:700;font-size:15.72px;fill:rgb(8,72,156);">T</text>
                </g>
                <g transform="matrix(0.969458,0,0,1,14.2445,0)">
                    <text x="466.393px" y="336.809px" style="font-family:'Arial-BoldMT', 'Arial', sans-serif;font-weight:700;font-size:10.621px;fill:rgb(8,72,156);">A1</text>
                </g>
            </g>
            <g transform="matrix(4.2377,0,0,4.34871,-27.925,1467.23)">
                <g transform="matrix(0.969459,0,0,1,12.0061,0)">
                    <text x="393.116px" y="365.511px" style="font-family:'Arial-BoldMT', 'Arial', sans-serif;font-weight:700;font-size:15.72px;fill:rgb(8,72,156);">T</text>
                </g>
                <g transform="matrix(0.969458,0,0,1,12.2933,0)">
                    <text x="402.508px" y="368.91px" style="font-family:'Arial-BoldMT', 'Arial', sans-serif;font-weight:700;font-size:10.621px;fill:rgb(8,72,156);">A2</text>
                </g>
            </g>
            <g transform="matrix(4.2377,0,0,4.34871,-32.48,1498.57)">
                <g transform="matrix(0.969459,0,0,1,13.9645,0)">
                    <text x="457.239px" y="193.339px" style="font-family:'Arial-BoldMT', 'Arial', sans-serif;font-weight:700;font-size:15.72px;fill:rgb(8,72,156);">T</text>
                </g>
                <g transform="matrix(0.969458,0,0,1,14.2517,0)">
                    <text x="466.631px" y="196.738px" style="font-family:'Arial-BoldMT', 'Arial', sans-serif;font-weight:700;font-size:10.621px;fill:rgb(8,72,156);">C2</text>
                </g>
            </g>
            <g transform="matrix(4.2377,0,0,4.34871,-27.9419,1492.73)">
                <g transform="matrix(0.969459,0,0,1,12.0134,0)">
                    <text x="393.354px" y="225.441px" style="font-family:'Arial-BoldMT', 'Arial', sans-serif;font-weight:700;font-size:15.72px;fill:rgb(8,72,156);stroke:rgb(8,72,156);stroke-width:1.1px;stroke-linejoin:miter;">T</text>
                </g>
                <g transform="matrix(0.969458,0,0,1,12.3151,0)">
                    <text x="403.222px" y="228.84px" style="font-family:'Arial-BoldMT', 'Arial', sans-serif;font-weight:700;font-size:10.621px;fill:rgb(8,72,156);stroke:rgb(8,72,156);stroke-width:0.74px;stroke-linejoin:miter;">C<tspan x="411.281px " y="228.84px ">1</tspan></text>
                </g>
            </g>
            <g transform="matrix(4.2377,0,0,4.34871,-34.4808,1488.01)">
                <g transform="matrix(0.969459,0,0,1,14.8247,0)">
                    <text x="485.406px" y="251.344px" style="font-family:'Arial-BoldMT', 'Arial', sans-serif;font-weight:700;font-size:15.72px;fill:rgb(8,72,156);">T</text>
                </g>
                <g transform="matrix(0.969458,0,0,1,15.1338,0)">
                    <text x="495.512px" y="254.743px" style="font-family:'Arial-BoldMT', 'Arial', sans-serif;font-weight:700;font-size:10.621px;fill:rgb(8,72,156);">D<tspan x="503.738px " y="254.743px ">1</tspan></text>
                </g>
            </g>
            <g transform="matrix(4.2377,0,0,4.34871,-37.1447,1477.06)">
                <g transform="matrix(0.969459,0,0,1,15.97,0)">
                    <text x="522.906px" y="311.506px" style="font-family:'Arial-BoldMT', 'Arial', sans-serif;font-weight:700;font-size:15.72px;fill:rgb(8,72,156);">T</text>
                </g>
                <g transform="matrix(0.969458,0,0,1,16.2792,0)">
                    <text x="533.013px" y="314.905px" style="font-family:'Arial-BoldMT', 'Arial', sans-serif;font-weight:700;font-size:10.621px;fill:rgb(8,72,156);">D<tspan x="541.239px " y="314.905px ">2</tspan></text>
                </g>
            </g>
            <g transform="matrix(4.2377,0,0,4.34871,-23.9201,1488.01)">
                <g transform="matrix(0.969459,0,0,1,10.2842,0)">
                    <text x="336.737px" y="251.378px" style="font-family:'Arial-BoldMT', 'Arial', sans-serif;font-weight:700;font-size:15.72px;fill:rgb(8,72,156);">T</text>
                </g>
                <g transform="matrix(0.969458,0,0,1,10.5786,0)">
                    <text x="346.366px" y="254.777px" style="font-family:'Arial-BoldMT', 'Arial', sans-serif;font-weight:700;font-size:10.621px;fill:rgb(8,72,156);">B<tspan x="354.26px " y="254.777px ">2</tspan></text>
                </g>
            </g>
            <g transform="matrix(4.2377,0,0,4.34871,-24.6165,1477.54)">
                <g transform="matrix(0.969459,0,0,1,10.5836,0)">
                    <text x="346.54px" y="308.874px" style="font-family:'Arial-BoldMT', 'Arial', sans-serif;font-weight:700;font-size:15.72px;fill:rgb(8,72,156);">T</text>
                </g>
                <g transform="matrix(0.969458,0,0,1,10.8781,0)">
                    <text x="356.169px" y="312.273px" style="font-family:'Arial-BoldMT', 'Arial', sans-serif;font-weight:700;font-size:10.621px;fill:rgb(8,72,156);">B<tspan x="364.063px " y="312.273px ">1</tspan></text>
                </g>
            </g>
        </g>
    </g>
</svg>
