<?xml version="1.0" encoding="UTF-8" standalone="no"?>
<!DOCTYPE svg PUBLIC "-//W3C//DTD SVG 1.1//EN" "http://www.w3.org/Graphics/SVG/1.1/DTD/svg11.dtd">
<svg width="100%" height="100%" viewBox="0 0 357 69" version="1.1" xmlns="http://www.w3.org/2000/svg" xmlns:xlink="http://www.w3.org/1999/xlink" xml:space="preserve" xmlns:serif="http://www.serif.com/" style="fill-rule:evenodd;clip-rule:evenodd;stroke-linejoin:round;stroke-miterlimit:2;">
    <g transform="matrix(3.125,0,0,3.125,-2011.18,-8085.78)">
        <g transform="matrix(0.246797,0,0,0.184755,444.073,2417.99)">
            <g transform="matrix(-0.943221,-0.942397,-0.942397,0.943221,785.522,976.018)">
                <path d="M-41.862,-100.368C-41.862,-100.368 -8.842,-82.99 -9.004,-51.041C-9.123,-27.831 -41.862,17.643 -41.862,17.643C-41.862,17.643 -75.894,-1.374 -76.085,-33.851C-76.193,-52.041 -41.862,-100.368 -41.862,-100.368" style="fill:rgb(150,152,154);fill-rule:nonzero;"/>
            </g>
            <g transform="matrix(-0.943221,-0.942397,-0.942397,0.943221,902.42,976.018)">
                <path d="M-41.862,-100.368C-41.862,-100.368 -8.841,-82.989 -9.004,-51.041C-9.123,-27.831 -41.862,17.643 -41.862,17.643C-41.862,17.643 -75.893,-1.373 -76.085,-33.851C-76.192,-52.041 -41.862,-100.368 -41.862,-100.368" style="fill:rgb(150,152,154);fill-rule:nonzero;"/>
            </g>
            <g transform="matrix(-0.943221,-0.942397,-0.942397,0.943221,1019.32,976.019)">
                <path d="M-41.862,-100.368C-41.862,-100.368 -8.841,-82.989 -9.004,-51.041C-9.123,-27.831 -41.862,17.643 -41.862,17.643C-41.862,17.643 -75.893,-1.373 -76.085,-33.851C-76.192,-52.041 -41.862,-100.368 -41.862,-100.368" style="fill:rgb(150,152,154);fill-rule:nonzero;"/>
            </g>
            <g transform="matrix(-0.943221,-0.942397,-0.942397,0.943221,1136.21,976.019)">
                <path d="M-41.862,-100.368C-41.862,-100.368 -8.841,-82.989 -9.004,-51.041C-9.123,-27.831 -41.862,17.643 -41.862,17.643C-41.862,17.643 -75.893,-1.373 -76.085,-33.851C-76.193,-52.041 -41.862,-100.368 -41.862,-100.368" style="fill:rgb(150,152,154);fill-rule:nonzero;"/>
            </g>
        </g>
    </g>
</svg>
