<?xml version="1.0" encoding="UTF-8" standalone="no"?>
<!DOCTYPE svg PUBLIC "-//W3C//DTD SVG 1.1//EN" "http://www.w3.org/Graphics/SVG/1.1/DTD/svg11.dtd">
<svg width="100%" height="100%" viewBox="0 0 403 368" version="1.1" xmlns="http://www.w3.org/2000/svg" xmlns:xlink="http://www.w3.org/1999/xlink" xml:space="preserve" xmlns:serif="http://www.serif.com/" style="fill-rule:evenodd;clip-rule:evenodd;stroke-linejoin:round;stroke-miterlimit:2;">
    <g transform="matrix(3.125,0,0,3.125,-699.232,-4103.57)">
        <g id="path3876" transform="matrix(0.161661,0,0,0.161661,223.754,1313.14)">
            <path d="M254.929,726.537C250.776,723.384 249.901,718.423 249.59,696.271C249.2,668.548 247.185,657.878 239.421,642.421C234.577,632.777 230.889,627.57 223.23,619.557C212.253,608.073 202.253,601.167 186.426,594.142C166.945,585.495 120.251,556.987 101.668,542.394C90.049,533.27 85.047,527.648 78.69,516.566C75.581,511.146 62.6,491.121 49.843,472.066C14.99,420.008 11.292,411.83 6.235,375.614C1.608,342.481 -0.008,324.156 0,304.921C0.011,277.792 3.372,263.826 12.038,254.894C18.737,247.989 25.975,246.288 33.71,249.801C40.732,252.991 45.079,259.522 49.481,273.495C54.009,287.868 55.289,297.236 56.169,322.421C57.161,350.816 58.352,356.607 66.707,373.694C69.739,379.894 79.07,395.212 87.444,407.734C95.817,420.257 104.541,433.409 106.83,436.962C111.41,444.073 122.622,455.591 131.168,461.967C139.01,467.817 151.295,473.512 161.168,475.874C169.24,477.805 177.168,478.552 177.168,477.381C177.168,475.965 172.331,467.587 167.088,459.921C158.935,448.003 145.734,433.495 136.607,426.421C124.211,416.814 117.029,409.183 112.846,401.174C106.387,388.803 104.887,376.312 108.435,364.421C110.099,358.844 116.587,352.624 122.456,350.981C129.059,349.132 140.516,350.015 145.93,352.789C151.935,355.867 167.454,369.488 190.168,391.616C223.136,423.732 227.354,426.953 260.668,445.434C297.839,466.055 316.063,478.639 332.22,494.845C347.863,510.534 356.508,525.101 362.532,545.921C376.53,594.296 378.192,637.244 368.642,703.734C366.15,721.083 364.644,726.141 361.624,727.3C360.733,727.642 336.754,727.907 308.337,727.889C267.11,727.863 256.317,727.591 254.929,726.537ZM434.631,725.643C432.159,723.516 431.788,722.028 429.083,703.393C421.176,648.91 421.232,609.944 429.275,570.48C436.876,533.18 444.278,517.342 463.514,497.221C481.467,478.442 503.062,463.608 546.168,440.445C567.953,428.739 577.691,420.974 609.99,389.553C636.735,363.536 648.309,353.743 655.011,351.459C661.261,349.33 672.631,349.494 677.677,351.786C695.494,359.88 695.666,390.732 678.01,411.645C675.622,414.473 670.069,419.438 665.669,422.679C650.92,433.54 630.735,457.014 622.977,472.323L619.986,478.225L626.959,477.577C650.573,475.383 677.038,458.453 691.197,436.484C693.657,432.669 702.507,419.319 710.865,406.818C727.474,381.977 732.628,372.598 737.346,358.624C740.317,349.824 740.487,348.428 741.237,326.753C742.241,297.75 743.142,290.681 747.845,274.928C751.081,264.092 754.011,258.375 758.75,253.657C763.799,248.63 768.563,247.244 775.477,248.791C782.499,250.362 787.372,254.545 791.109,262.207C796.402,273.06 797.554,280.765 797.572,305.421C797.587,328.096 797.13,333.67 792.097,371.921C786.813,412.068 782.299,422.021 743.826,478.345C733.712,493.152 723.238,509.274 720.552,514.17C717.866,519.066 714.021,525.225 712.007,527.856C701.634,541.405 652.153,574.052 612.632,593.42C583.356,607.767 569.255,620.531 558.134,642.751C550.863,657.277 549.041,666.787 548.234,694.421C547.491,719.858 546.639,724.529 542.319,726.841C540.948,727.575 523.776,727.921 488.79,727.921L437.28,727.921L434.631,725.643ZM377.325,424.416C370.204,374.686 376.005,328.01 393.289,295.961L397.312,288.501L394.49,286.478C386.792,280.958 381.906,275.256 378.202,267.47C372.501,255.485 371.652,250.783 371.785,231.921C372.07,191.3 378.454,165.464 394.021,141.921C413.044,113.152 451.389,87.134 499.425,70.401C532.532,58.868 563.001,52.826 615.168,47.448C672.115,41.577 701.207,33.675 748.523,11.229C783.107,-5.178 783.383,-5.083 778.291,21.421C757.885,127.64 690.914,240.037 612.493,299.68C583.771,321.524 550.32,337.774 522.668,343.315C500.881,347.681 485.999,347.089 462.668,340.931C443.412,335.849 428.15,328.224 416.914,318.072C414.664,316.039 412.721,314.983 412.211,315.515C410.361,317.442 400.222,338.906 396.667,348.421C387.713,372.387 380.365,405.77 380.098,423.706C379.965,432.648 378.556,433.009 377.325,424.416ZM348.784,418.857C347.883,408.037 345.845,397.954 342.029,385.421C338.691,374.461 331.302,355.921 330.272,355.921C329.915,355.921 328.778,357.491 327.744,359.41C322.975,368.267 312.403,375.557 298.668,379.46C289.579,382.042 256.53,382.672 244.858,380.485C219.544,375.742 193.178,361.334 171.104,340.182C139.528,309.924 109.237,254.001 84.704,180.672C76.697,156.739 71.168,137.629 71.168,133.889C71.168,128.446 72.896,128.92 87.574,138.388C97.181,144.586 109.93,151.166 118.814,154.511C130.226,158.808 140.877,160.903 169.324,164.444C231.08,172.131 264.206,178.398 293.693,187.975C319.69,196.418 337.047,211.689 349.892,237.421C359.479,256.624 363.478,278.406 361.282,299.454C359.413,317.363 355.378,324.964 344.474,331.118C341.492,332.801 339.262,334.682 339.518,335.299C344.079,346.297 347.433,356.426 349.327,364.921C351.431,374.357 351.662,377.803 351.609,398.921C351.575,412.677 351.122,423.431 350.518,424.857C349.654,426.898 349.373,425.926 348.784,418.857Z" style="fill:rgb(0,130,155);fill-rule:nonzero;"/>
        </g>
    </g>
</svg>
