<?xml version="1.0" encoding="UTF-8" standalone="no"?>
<!DOCTYPE svg PUBLIC "-//W3C//DTD SVG 1.1//EN" "http://www.w3.org/Graphics/SVG/1.1/DTD/svg11.dtd">
<svg width="100%" height="100%" viewBox="0 0 240 379" version="1.1" xmlns="http://www.w3.org/2000/svg" xmlns:xlink="http://www.w3.org/1999/xlink" xml:space="preserve" xmlns:serif="http://www.serif.com/" style="fill-rule:evenodd;clip-rule:evenodd;stroke-linejoin:round;stroke-miterlimit:2;">
    <g transform="matrix(3.125,0,0,3.125,-3353.84,-4129.58)">
        <g id="path3929" transform="matrix(0.292441,0,0,0.292441,1073.23,1321.47)">
            <path d="M112.97,412.466C110.681,411.75 107.412,410.17 105.704,408.954C102.325,406.547 99.189,401.422 100.148,399.871C100.515,399.277 112.764,398.9 131.689,398.9C161.78,398.9 162.63,398.954 162.63,400.866C162.63,404.229 156.9,409.656 151.032,411.851C146.412,413.58 143.33,413.89 131.342,413.834C122.662,413.793 115.51,413.26 112.97,412.466ZM88.946,389.957C84.033,387.727 81.63,383.766 81.63,377.9C81.63,372.265 83.944,368.291 88.611,365.91C92.356,363.999 94.459,363.901 131.34,363.902C174.597,363.904 174.771,363.928 179.36,370.798C183.786,377.424 181.127,386.372 173.61,390.149C170.475,391.724 166.315,391.895 131.63,391.877C95.97,391.858 92.821,391.716 88.946,389.957ZM88.087,355.037C83.507,352.244 81.63,348.692 81.63,342.818C81.63,338.166 82.007,337.288 85.512,333.783L89.394,329.9L130.762,329.904C170.49,329.908 172.261,329.988 175.44,331.926C178.942,334.061 181.63,339.08 181.63,343.482C181.63,344.938 180.656,347.861 179.466,349.978C175.571,356.909 175.623,356.901 130.979,356.897C93.927,356.894 90.916,356.763 88.087,355.038L88.087,355.037ZM87.13,319.99C78.025,317.727 69.733,310.911 65.731,302.4C63.74,298.168 63.243,294.945 62.493,281.4C60.967,253.847 60.203,251.72 46.732,237.544C22.913,212.479 13.388,197.903 6.751,176.367C0.986,157.66 -1.15,138.164 0.587,120.119C3.751,87.255 16.058,61.06 38.989,38.383C56.834,20.737 75.886,9.654 98.63,3.69C108.4,1.128 112.58,0.597 126.419,0.157C144.161,-0.408 152.198,0.445 167.404,4.502C178.214,7.386 199.213,17.634 208.13,24.377C231.346,41.934 247.636,64.264 255.982,89.973C261.315,106.402 262.138,112.288 262.055,133.4C261.972,154.515 260.225,165.724 254.673,180.784C247.334,200.688 239.946,211.714 218.374,234.958C202.14,252.451 202.381,251.842 200.326,280.4C199.215,295.834 198.687,299.087 196.619,303.217C193.688,309.074 187.104,315.329 180.805,318.24C176.263,320.339 174.905,320.405 133.13,320.568C109.48,320.66 88.78,320.4 87.13,319.99ZM171.415,297.826C176.324,296.114 177.253,293.622 178.003,280.149C178.904,263.985 180.357,252.773 182.289,247.084C184.618,240.222 190.363,232.354 202.279,219.702C219.939,200.953 228.905,187.463 234.42,171.345C236.926,164.023 239.937,148.494 239.313,146.117C238.95,144.739 238.839,144.803 238.746,146.44C238.57,149.529 235.637,160.29 234.72,161.208C233.894,162.036 225.694,157.638 219.871,153.244C218.078,151.891 215.699,148.996 214.583,146.809C213.468,144.623 209.133,139.136 204.949,134.617C195.524,124.435 191.556,116.597 190.853,106.776C190.406,100.532 190.672,99.166 193.548,92.927C200.9,76.977 197.711,72.715 182.268,77.854C174.243,80.525 169.68,80.05 166.676,76.233C164.133,73 162.397,66.88 162.23,60.559C162.112,56.148 161.827,55.603 159.015,54.42C153.113,51.939 153.061,46.588 158.88,40.459C161.217,37.996 164.144,34.183 165.384,31.985L167.639,27.988L160.884,25.984C137.352,19.004 108.68,21.22 86.197,31.756C77.687,35.744 62.63,45.445 62.63,46.94C62.63,48.834 79.367,61.9 81.792,61.9C82.216,61.9 84.904,59.822 87.764,57.281C92.819,52.791 93.107,52.678 97.984,53.256C101.41,53.662 104.458,53.333 107.589,52.221C113.741,50.036 119.369,51.013 120.222,54.413C121.469,59.382 113.986,66.9 107.794,66.9C104.226,66.9 100.629,68.779 100.661,70.626C100.726,74.259 109.034,81.45 111.897,80.351C112.749,80.024 113.974,78.483 114.619,76.927C116.936,71.333 120.148,69.393 126.961,69.473C136.901,69.589 142.238,73.515 143.295,81.487C143.957,86.473 141.805,88.56 132.13,92.317C122.532,96.044 112.946,101.895 107.955,107.071C104.819,110.324 103.398,112.892 102.241,117.4C100.854,122.806 97.988,126.9 95.59,126.9C94.162,126.9 91.63,123.821 91.626,122.079C91.618,119.116 87.784,113.9 85.611,113.9C82.107,113.9 73.935,118.623 73.312,121.009C72.4,124.496 75.144,129.626 81.63,136.56C87.869,143.229 88.575,144.6 86.234,145.499C83.068,146.714 61.834,134.038 52.887,125.592C42.357,115.65 35.698,104.473 33.327,92.761L32.056,86.482L29.783,91.766C24.316,104.475 23.258,111.019 23.218,132.4C23.184,151.115 23.357,153.071 25.939,162.826C31.262,182.94 39.313,196.61 57.197,215.9C81.106,241.69 82.979,245.886 84.452,276.944C85.249,293.747 85.907,295.818 91.13,297.955C94.223,299.221 167.752,299.102 171.415,297.826L171.415,297.826ZM120.941,227.15C119.515,225.638 116.975,221.492 115.295,217.938C112.587,212.206 112.193,210.195 111.809,200.152C111.384,189.051 111.316,188.777 108.352,186.115C99.749,178.391 98.537,176.206 96.652,165.035C93.634,147.141 100.744,140.19 121.156,141.08C131.608,141.536 131.268,141.352 143.596,153.151C156.321,165.329 157.312,170.872 148.942,183.078C146.935,186.006 143.845,190.507 142.075,193.082C138.088,198.882 134.087,209.191 132.072,218.855C131.23,222.894 130.095,227.031 129.55,228.049C128.091,230.776 123.953,230.344 120.941,227.15ZM203.045,169.479C199.562,167.963 195.63,163.46 195.63,160.988C195.63,158.136 198.61,154.9 201.236,154.9C207.89,154.9 214.073,162.292 211.503,167.173C209.396,171.176 207.886,171.587 203.045,169.479Z" style="fill:rgb(0,130,155);fill-rule:nonzero;"/>
        </g>
    </g>
</svg>
