<?xml version="1.0" encoding="UTF-8" standalone="no"?>
<!DOCTYPE svg PUBLIC "-//W3C//DTD SVG 1.1//EN" "http://www.w3.org/Graphics/SVG/1.1/DTD/svg11.dtd">
<svg width="100%" height="100%" viewBox="0 0 379 379" version="1.1" xmlns="http://www.w3.org/2000/svg" xmlns:xlink="http://www.w3.org/1999/xlink" xml:space="preserve" xmlns:serif="http://www.serif.com/" style="fill-rule:evenodd;clip-rule:evenodd;stroke-linejoin:round;stroke-miterlimit:2;">
    <g transform="matrix(3.125,0,0,3.125,-1997.71,-4129.58)">
        <g id="path3907" transform="matrix(0.149439,0,0,0.149439,639.266,1321.47)">
            <path d="M385.608,594.578L385.317,379.299L383.134,371.799C374.748,342.989 355.157,323.459 325.232,314.078L316.368,311.299L163.618,311.031C37.296,310.809 10.868,310.532 10.868,309.432C10.868,304.569 24.343,263.876 31.574,246.9C88.832,112.484 211.636,20.411 357.868,2.26C374.758,0.164 418.892,-0.73 435.368,0.69C451.313,2.065 472.261,4.806 473.723,5.709C474.478,6.176 474.976,36.729 475.38,107.338C475.72,166.817 476.379,211.586 476.984,216.299C478.211,225.858 482.801,240.197 487.067,247.799C499.602,270.137 520.052,283.719 549.774,289.45C558.803,291.191 588.024,291.855 594.977,290.477L598.587,289.762L600.701,295.531C606.396,311.068 618.639,324.745 633.063,331.684C652.19,340.885 672.855,340.839 691.716,331.554C699.674,327.636 712.572,315.715 717.236,307.966C731.087,284.955 729.815,255.834 714.041,234.799C701.103,217.548 679.925,207.753 658.453,209.091C640.954,210.182 628.854,215.682 616.332,228.24C607.707,236.889 603.128,244.35 599.495,255.67L597.368,262.299L591.368,262.941C582.002,263.942 567.056,263.858 559.368,262.76C528.661,258.377 512.212,244.848 505.312,218.299C503.624,211.806 503.467,204.079 503.135,111.549C502.939,56.687 503.057,11.799 503.397,11.799C504.783,11.799 529.887,19.077 536.868,21.502C636.697,56.185 719.741,128.848 766.922,222.799C788.773,266.311 800.208,304.158 807.408,356.799C809.569,372.599 810.43,416.311 808.963,435.799C799.6,560.236 733.633,672.586 628.869,742.522C604.746,758.626 584.086,769.435 554.6,781.381C541.565,786.662 514.262,795.799 511.517,795.799C511.117,795.799 510.931,738.087 511.102,667.549L511.414,539.299L513.647,531.299C517.05,519.107 521.38,511.14 528.461,504.039C541.31,491.155 563.809,484.637 590.066,486.194C606.454,487.166 606.226,487.076 607.644,493.131C611.446,509.376 625.322,526.293 640.96,533.748C653.531,539.742 660.25,541.149 673.368,540.535C691.109,539.705 703.708,534.009 716.634,520.971C725.315,512.216 732.04,499.567 733.946,488.41C735.521,479.185 734.614,463.959 732.002,455.799C727.154,440.653 715.054,426.231 701.136,419.011C689.51,412.979 683.174,411.401 670.368,411.346C660.851,411.306 658.175,411.691 650.514,414.202C631.342,420.485 615.863,435.081 609.37,452.997L607.087,459.299L598.728,458.799C576.09,457.445 558.263,459.087 543.368,463.897C510.713,474.442 490.943,497.729 485.346,532.242C484.107,539.876 483.876,561.829 483.872,671.947L483.868,802.594L477.512,803.701C471.385,804.768 456.025,806.918 445.118,808.234L439.869,808.868L439.85,547.584C439.838,378.971 439.475,283.817 438.831,279.299C435.766,257.831 429.289,243.511 416.602,230.155C404.528,217.444 392.238,210.633 371.634,205.236C362.419,202.822 359.108,202.497 339.265,202.056L317.161,201.566L315.41,195.933C308.916,175.042 293.29,159.73 271.369,152.776C260.9,149.455 245.218,149.611 234.369,153.143C223.123,156.805 214.836,162.066 206.395,170.901C194.207,183.657 188.869,197.18 188.869,215.299C188.869,234.205 194.34,247.342 207.834,260.835C217.227,270.228 225.968,275.337 237.837,278.372C247.785,280.916 266.119,279.975 275.239,276.453C294.309,269.086 308.868,254.332 314.873,236.289L316.971,229.985L327.67,229.245C365.245,226.646 394.094,238.788 405.198,261.875C412.976,278.048 412.369,253.891 412.369,547.299L412.369,809.299L399.135,809.578L385.901,809.857L385.608,594.578ZM354.368,807.034C349.156,806.458 326.445,802.773 324.618,802.207C322.962,801.694 322.868,793.848 322.868,655.863C322.868,532.158 322.646,508.791 321.401,501.68C314.344,461.39 288.6,436.942 245.242,429.358C239.396,428.335 230.056,427.801 217.868,427.793L199.368,427.782L195.007,418.541C191.29,410.665 189.37,408.042 182.007,400.775C167.531,386.489 153.694,381.172 133.368,382.086C115.484,382.891 103.686,387.995 91.292,400.29C83.079,408.438 80.019,412.973 76.107,422.801C72.888,430.888 71.758,437.192 71.773,446.974C71.82,476.102 91.726,501.878 119.955,509.362C128.459,511.617 144.281,511.616 152.788,509.36C165.579,505.969 178.524,497.742 186.639,487.846C191.862,481.478 198.327,468.424 199.907,461.054L200.989,456.011L211.679,455.321C223.801,454.537 239.113,455.922 250.482,458.83C267.56,463.198 281.396,473.836 288.161,487.801C294.965,501.846 294.683,495.107 295.043,652.301L295.368,794.301L292.868,794.036C287.798,793.5 261.86,784.343 244.868,777.09C209.329,761.922 176.662,741.961 146.535,717.006C61.456,646.531 9.187,545.333 0.776,434.801C-0.846,413.483 0.187,372.83 2.835,353.801C3.945,345.826 4.857,339.188 4.861,339.051C4.865,338.913 73.606,338.806 157.618,338.813C326.571,338.824 314.49,338.358 328.868,345.445C341.993,351.914 351.904,364.054 356.507,379.301C358.226,384.997 358.333,395.961 358.612,595.733C358.773,711.47 358.559,806.435 358.137,806.766C357.714,807.097 356.018,807.218 354.368,807.036L354.368,807.034ZM659.154,511.349C635.234,503.873 625.467,475.811 639.556,455.041C646.797,444.367 656.716,439.299 670.368,439.299C678.024,439.299 680.216,439.697 685.043,441.96C695.251,446.745 703.169,455.805 705.878,465.799C711.121,485.147 699.984,505.747 681.228,511.392C675.457,513.128 664.782,513.108 659.154,511.349L659.154,511.349ZM125.705,481.946C118.063,479.414 113.806,476.636 108.466,470.696C92.792,453.263 97.892,425.06 118.726,413.956C134.21,405.703 150.533,408.27 163.017,420.92C177.66,435.757 177.061,458.992 161.664,473.394C151.831,482.591 137.756,485.939 125.705,481.946ZM650.368,309.056C640.165,305.391 632.109,297.978 627.629,288.129C625.87,284.261 625.426,281.404 625.4,273.782C625.37,265.032 625.631,263.732 628.618,257.659C632.471,249.829 638.744,243.686 646.693,239.96C651.661,237.631 653.615,237.301 662.368,237.312C671.616,237.323 672.821,237.56 678.385,240.458C685.484,244.157 693.059,251.881 696.117,258.541C697.914,262.453 698.308,265.168 698.335,273.799C698.366,283.672 698.18,284.66 695.212,290.336C691.357,297.707 684.607,304.113 677.043,307.579C669.529,311.023 657.671,311.679 650.368,309.056ZM245.868,251.452C230.672,248.082 219.959,236.914 216.872,221.224C213.812,205.67 222.542,189.024 237.662,181.58C243.704,178.606 245.171,178.299 253.368,178.299C261.544,178.299 263.041,178.61 268.994,181.541C276.934,185.449 283.958,192.61 287.673,200.581C289.953,205.475 290.331,207.596 290.296,215.299C290.262,222.839 289.829,225.228 287.63,230.019C280.35,245.883 262.369,255.111 245.868,251.452Z" style="fill:white;fill-rule:nonzero;"/>
        </g>
    </g>
</svg>
