<?xml version="1.0" encoding="UTF-8" standalone="no"?>
<!DOCTYPE svg PUBLIC "-//W3C//DTD SVG 1.1//EN" "http://www.w3.org/Graphics/SVG/1.1/DTD/svg11.dtd">
<svg width="100%" height="100%" viewBox="0 0 582 102" version="1.1" xmlns="http://www.w3.org/2000/svg" xmlns:xlink="http://www.w3.org/1999/xlink" xml:space="preserve" xmlns:serif="http://www.serif.com/" style="fill-rule:evenodd;clip-rule:evenodd;stroke-miterlimit:10;">
    <g transform="matrix(1,0,0,1,-130.458,-305.885)">
        <g transform="matrix(0.347097,0,0,0.347097,52.0413,217.465)">
            <g transform="matrix(3.23607,0,0,3.23607,0,-2492.94)">
                <path d="M469.369,895.058L469.369,895.238C469.369,913.421 483.208,927.804 501.844,927.804C514.055,927.804 521.291,923.462 527.805,916.496L518.939,907.542C513.965,912.064 509.533,914.959 502.296,914.959C491.44,914.959 483.934,905.914 483.934,895.058L483.934,894.878C483.934,884.022 491.621,875.157 502.296,875.157C508.628,875.157 513.602,877.87 518.487,882.303L527.352,872.083C521.472,866.294 514.327,862.314 502.386,862.314C482.939,862.314 469.369,877.058 469.369,895.058ZM353.741,881.845L353.741,882.023C353.741,894.349 361.812,897.808 374.315,901C384.692,903.662 386.819,905.435 386.819,908.892L386.819,909.071C386.819,912.706 383.449,914.924 377.861,914.924C370.768,914.924 364.915,911.997 359.327,907.385L351.256,917.052C358.706,923.703 368.195,926.985 377.596,926.985C390.987,926.985 400.388,920.067 400.388,907.741L400.388,907.562C400.388,896.744 393.293,892.222 380.699,888.94C369.97,886.191 367.308,884.859 367.308,880.78L367.308,880.604C367.308,877.588 370.058,875.193 375.29,875.193C380.523,875.193 385.933,877.5 391.431,881.313L398.524,871.026C392.229,865.969 384.513,863.132 375.466,863.132C362.785,863.132 353.741,870.58 353.741,881.845ZM536.316,863.907L536.316,876.547L555.274,876.547L555.274,926.21L568.981,926.21L568.981,876.547L587.939,876.547L587.939,863.907L536.316,863.907ZM412.271,864.019L412.271,926.098L459.541,926.098L459.541,913.948L425.841,913.948L425.841,900.911L455.108,900.911L455.108,888.763L425.841,888.763L425.841,876.169L459.097,876.169L459.097,864.019L412.271,864.019ZM290.395,864.019L290.395,926.098L304.052,926.098L304.052,906.233L314.784,906.233L328.087,926.098L344.048,926.098L328.884,903.927C336.777,901 342.186,894.704 342.186,884.683L342.186,884.505C342.186,878.652 340.326,873.775 336.866,870.315C332.787,866.236 326.667,864.019 318.774,864.019L290.395,864.019ZM304.052,876.346L317.622,876.346C324.274,876.346 328.351,879.361 328.351,885.215L328.351,885.391C328.351,890.625 324.539,894.172 317.887,894.172L304.052,894.172L304.052,876.346ZM230.147,864.019L230.147,926.098L277.416,926.098L277.416,913.948L243.717,913.948L243.717,900.911L272.985,900.911L272.985,888.763L243.717,888.763L243.717,876.169L276.973,876.169L276.973,864.019L230.147,864.019ZM160.131,864.019L160.131,868.543L182.652,868.543C184.031,868.543 185.15,867.427 185.15,866.047L185.15,864.019L160.131,864.019ZM138.671,864.019L138.671,902.241L109.584,864.019L96.989,864.019L96.989,926.098L110.471,926.098L110.471,886.634L140.535,926.098L152.152,926.098L152.152,864.019L138.671,864.019ZM69.813,926.098L83.471,926.098L83.471,864.019L69.813,864.019L69.813,926.098ZM200.624,880.615C199.241,880.615 198.121,881.736 198.121,883.117L198.121,926.098L202.646,926.098L202.646,885.139L223.14,885.139L223.14,880.615L200.624,880.615Z" style="fill:white;fill-rule:nonzero;"/>
            </g>
            <g transform="matrix(3.23607,0,0,3.23607,0,-2492.94)">
                <path d="M198.119,864.02L198.119,866.048C198.119,867.428 199.238,868.544 200.617,868.544L223.139,868.544L223.139,864.02L198.119,864.02ZM160.131,880.617L160.131,885.14L180.624,885.14L180.624,926.099L185.15,926.099L185.15,883.118C185.15,881.737 184.029,880.617 182.647,880.617L160.131,880.617Z" style="fill:white;fill-rule:nonzero;"/>
            </g>
            <g transform="matrix(0,-4.16667,-4.16667,0,636.566,372.017)">
                <path d="M-4.008,4.008L4.008,4.008" style="fill:none;fill-rule:nonzero;stroke:white;stroke-width:2.24px;"/>
            </g>
            <g transform="matrix(0,-4.16667,-4.16667,0,628.214,418.385)">
                <path d="M-2.004,2.004L2.004,2.004" style="fill:none;fill-rule:nonzero;stroke:white;stroke-width:2.24px;"/>
            </g>
            <g transform="matrix(0,-4.16667,-4.16667,0,628.214,454.875)">
                <path d="M-2.004,2.004L2.004,2.004" style="fill:none;fill-rule:nonzero;stroke:white;stroke-width:2.24px;"/>
            </g>
            <g transform="matrix(0,-4.16667,-4.16667,0,628.214,491.365)">
                <path d="M-2.004,2.004L2.004,2.004" style="fill:none;fill-rule:nonzero;stroke:white;stroke-width:2.24px;"/>
            </g>
            <g transform="matrix(-4.16667,0,0,4.16667,642.355,335.783)">
                <path d="M-8.017,0L0,0" style="fill:none;fill-rule:nonzero;stroke:white;stroke-width:2.24px;"/>
            </g>
            <g transform="matrix(-4.16667,0,0,4.16667,697.073,335.783)">
                <path d="M-4.008,0L0,0" style="fill:none;fill-rule:nonzero;stroke:white;stroke-width:2.24px;"/>
            </g>
            <g transform="matrix(4.16667,0,0,4.16667,564.535,335.783)">
                <path d="M0,0L8.017,0" style="fill:none;fill-rule:nonzero;stroke:white;stroke-width:2.24px;"/>
            </g>
            <g transform="matrix(4.16667,0,0,4.16667,526.518,335.783)">
                <path d="M0,0L4.008,0" style="fill:none;fill-rule:nonzero;stroke:white;stroke-width:2.24px;"/>
            </g>
            <g transform="matrix(0,-4.16667,-4.16667,0,627.185,308.932)">
                <path d="M-1.757,1.757L1.757,1.757" style="fill:none;fill-rule:nonzero;stroke:white;stroke-width:2.24px;"/>
            </g>
        </g>
    </g>
</svg>
