<?xml version="1.0" encoding="UTF-8" standalone="no"?>
<!DOCTYPE svg PUBLIC "-//W3C//DTD SVG 1.1//EN" "http://www.w3.org/Graphics/SVG/1.1/DTD/svg11.dtd">
<svg width="100%" height="100%" viewBox="0 0 148 76" version="1.1" xmlns="http://www.w3.org/2000/svg" xmlns:xlink="http://www.w3.org/1999/xlink" xml:space="preserve" xmlns:serif="http://www.serif.com/" style="fill-rule:evenodd;clip-rule:evenodd;stroke-linejoin:round;stroke-miterlimit:2;">
    <g transform="matrix(1,0,0,1,-626.209,-12.4991)">
        <g transform="matrix(1.19828,0,0,1.19828,-336.006,-46.6865)">
            <g transform="matrix(1,0,0,1,923.444,109.216)">
                <path d="M0,-0.23C0.297,-0.23 0.461,-0.378 0.461,-0.592C0.461,-0.823 0.297,-0.955 0,-0.955L-0.544,-0.955L-0.544,-0.23L0,-0.23ZM-1.4,-1.68L0.049,-1.68C0.791,-1.68 1.318,-1.367 1.318,-0.658C1.318,-0.181 1.071,0.149 0.692,0.297L1.417,1.352L0.428,1.352L-0.181,0.445L-0.544,0.445L-0.544,1.352L-1.4,1.352L-1.4,-1.68ZM2.389,-0.115L2.389,-0.131C2.389,-1.532 1.302,-2.685 -0.148,-2.685C-1.582,-2.685 -2.685,-1.515 -2.685,-0.115L-2.685,-0.098C-2.685,1.302 -1.598,2.455 -0.148,2.455C1.285,2.455 2.389,1.286 2.389,-0.115M-3.015,-0.098L-3.015,-0.115C-3.015,-1.68 -1.746,-2.998 -0.148,-2.998C1.466,-2.998 2.718,-1.696 2.718,-0.131L2.718,-0.115C2.718,1.45 1.45,2.768 -0.148,2.768C-1.763,2.768 -3.015,1.467 -3.015,-0.098" style="fill:rgb(0,83,86);fill-rule:nonzero;"/>
            </g>
            <g transform="matrix(1,0,0,1,835.092,67.5578)">
                <path d="M0,1.703C-2.33,-0.022 -4.238,-1.919 -5.794,-3.808C-11.644,-1.67 -17.577,2.376 -20.269,5.301C-15.544,5.511 -8.997,4.682 0,1.703" style="fill:rgb(187,189,192);fill-rule:nonzero;"/>
            </g>
            <g transform="matrix(1,0,0,1,805.669,49.3923)">
                <path d="M0,20.96C1.836,16.319 9.617,9.984 18.628,6.184C17.348,3.242 16.811,0.923 16.63,0C16.157,0.206 13.178,1.513 11.964,2.176C2.035,7.596 -4.125,14.202 -2.372,18.656C-2.37,18.661 -2.367,18.665 -2.366,18.67C-2.25,18.874 -1.612,19.903 0,20.96" style="fill:rgb(187,189,192);fill-rule:nonzero;"/>
            </g>
            <g transform="matrix(1,0,0,1,828.413,66.8386)">
                <path d="M0,-4.209C-1.591,-6.316 -2.754,-8.367 -3.587,-10.107C-9.697,-7.422 -12.667,-5.636 -16.351,-2.403C-19.047,-0.036 -20.866,2.19 -21.561,4.193C-20.076,4.938 -18.032,5.608 -15.256,5.898C-12.538,2.609 -7.718,-0.932 0,-4.209" style="fill:rgb(187,189,192);fill-rule:nonzero;"/>
            </g>
            <g transform="matrix(0.964809,0.26295,0.26295,-0.964809,850.617,68.4107)">
                <path d="M1.02,-0.132C1.02,-0.132 4.372,1.827 2.748,4.65L1.02,7.466C1.541,7.775 -2.431,5.908 -0.561,2.482L1.02,-0.132Z" style="fill:rgb(0,144,161);fill-rule:nonzero;"/>
            </g>
            <g transform="matrix(-0.274847,-0.961488,-0.961488,0.274847,853.275,70.4115)">
                <path d="M-1.868,-2.692L1.272,-2.692C1.044,-2.086 1.336,1.228 -2.547,1.266L-5.201,1.301C-5.201,1.301 -5.006,-2.576 -1.868,-2.692" style="fill:rgb(0,144,161);fill-rule:nonzero;"/>
            </g>
            <g transform="matrix(1,0,0,1,858.129,66.2177)">
                <path d="M0,-7.205C0,-7.205 -3.952,-5.256 -1.278,0C-1.278,0 3.066,-2.021 0,-7.205" style="fill:rgb(103,150,58);fill-rule:nonzero;"/>
            </g>
            <g transform="matrix(1,0,0,1,858.605,65.8124)">
                <path d="M0,7.009C0.286,6.858 4.238,4.966 1.688,0C1.688,0 -2.331,1.569 0,7.009" style="fill:rgb(103,150,58);fill-rule:nonzero;"/>
            </g>
            <g transform="matrix(1,0,0,1,844.789,63.9957)">
                <path d="M0,8.247C1.548,7.595 2.878,7.162 5.232,5.852C4.655,4.03 3.955,2.025 3.153,0C1.716,0.734 -0.555,1.684 -2.177,2.371C-2.146,2.452 -2.115,2.532 -2.081,2.617C-1.352,4.484 -0.638,6.382 0,8.247" style="fill:rgb(0,106,110);fill-rule:nonzero;"/>
            </g>
            <g transform="matrix(-0.901316,-0.433162,-0.433162,0.901316,845.096,77.6335)">
                <path d="M-1.965,-8.201C-0.706,-6.452 0.112,-5.617 1.722,-3.808C0.364,-2.39 -0.891,-0.976 -1.965,0.401C-3.07,-0.839 -4.684,-2.622 -5.607,-3.836C-4.398,-5.386 -3.71,-6.26 -1.965,-8.201" style="fill:rgb(0,106,110);fill-rule:nonzero;"/>
            </g>
            <g transform="matrix(1,0,0,1,844.42,83.8608)">
                <path d="M0,3.02C0.158,2.965 0.315,2.913 0.473,2.856C1.252,1.558 1.23,-0.665 0.8,-3.188C-0.166,-2.798 -1.122,-2.436 -2.134,-2.079C-4.792,-1.142 -7.44,-0.389 -10.034,0.186C-16.198,1.555 -21.95,1.881 -26.254,1.1C-19.08,4.94 -10.034,6.208 0,3.02" style="fill:rgb(0,83,86);fill-rule:nonzero;"/>
            </g>
            <g transform="matrix(1,0,0,1,840.975,79.7246)">
                <path d="M0,-12.652C-1.361,-12.083 -2.767,-11.535 -4.223,-11.027C-4.346,-10.984 -5.682,-10.531 -5.883,-10.464C-14.88,-7.485 -21.427,-6.656 -26.152,-6.866C-26.733,-6.892 -27.29,-6.932 -27.818,-6.988C-30.594,-7.278 -32.638,-7.948 -34.123,-8.693C-34.565,-8.916 -34.958,-9.145 -35.305,-9.372C-36.918,-10.429 -37.555,-11.459 -37.671,-11.662C-37.645,-11.598 -37.615,-11.532 -37.583,-11.467C-36.631,-8.983 -35.338,-6.591 -33.745,-4.373C-29.467,0 -16.06,-0.338 -1.808,-5.363C-0.451,-5.841 0.864,-6.351 2.137,-6.882C1.354,-9.188 0.025,-12.589 0,-12.652" style="fill:rgb(0,83,86);fill-rule:nonzero;"/>
            </g>
            <g transform="matrix(1,0,0,1,815.342,76.1888)">
                <path d="M0,7.065C5.955,9.237 15.944,8.172 26.482,4.456C27.56,4.076 28.613,3.672 29.642,3.249C29.266,1.468 28.729,-0.405 28.158,-2.172C26.916,-1.659 25.637,-1.168 24.32,-0.704C21.175,0.405 18.072,1.291 15.094,1.951C6.109,3.946 -1.295,4.125 -5.734,2.097C-4.046,3.949 -2.125,5.625 0,7.065" style="fill:rgb(0,83,86);fill-rule:nonzero;"/>
            </g>
            <g transform="matrix(-0.782257,0.622956,0.622956,0.782257,853.421,81.7872)">
                <path d="M4.03,-5.333C5.173,-3.228 6.415,-1.545 7.774,-0.539C6.514,-0.169 5.417,0.089 4.03,0.424C1.617,1.054 0.208,-0.671 -1.337,-3.817C0.331,-4.229 2.261,-4.827 4.03,-5.333" style="fill:rgb(0,106,110);fill-rule:nonzero;"/>
            </g>
            <g transform="matrix(-0.926343,-0.376681,-0.376681,0.926343,853.54,82.1125)">
                <path d="M-1.142,-7.822C-1.142,-7.822 1.76,-5.5 0.402,-3.048C0.402,-3.048 -0.848,-0.641 -1.142,0.381C-1.142,0.381 -4.411,-2.15 -3.182,-4.655C-3.182,-4.655 -2.297,-6.609 -1.142,-7.822" style="fill:rgb(0,144,161);fill-rule:nonzero;"/>
            </g>
            <g transform="matrix(1,0,0,1,863.034,63.1498)">
                <path d="M0,-6.39C0,-6.39 -3.656,-5.447 -1.25,0C-1.25,0 2.878,-1.694 0,-6.39" style="fill:rgb(103,150,58);fill-rule:nonzero;"/>
            </g>
            <g transform="matrix(1,0,0,1,882.6,108.279)">
                <path d="M0,-23.071C0,-23.071 2.324,-24.296 5.95,-23.784C9.086,-23.342 12.987,-21.588 12.746,-15.576L12.743,1.225L6,1.225C6,1.225 6.028,-7.912 6.049,-12.073C6.07,-16.429 5.641,-18.305 2.41,-18.436C2.41,-18.436 -1.324,-18.826 -2.743,-15.324L0,-23.071Z" style="fill:rgb(0,83,86);fill-rule:nonzero;"/>
            </g>
            <g transform="matrix(1,0,0,1,856.197,86.2635)">
                <path d="M0,24.347L-9.196,0.001L-1.779,0.001L3.577,17.575L8.573,0.001L15.588,0L6.94,24.347L0,24.347Z" style="fill:rgb(0,83,86);fill-rule:nonzero;"/>
            </g>
            <g transform="matrix(1,0,0,1,872.966,110.61)">
                <rect x="0" y="-38.424" width="6.959" height="38.424" style="fill:rgb(0,83,86);"/>
            </g>
            <g transform="matrix(1,0,0,1,921.235,89.4298)">
                <path d="M0,4.987C-0.6,-0.266 -5.364,-6.534 -13.93,-3.175L-16.893,4.796C-16.727,4.34 -15.539,1.154 -11.178,1.153C-7.311,1.152 -6.031,4.301 -5.864,6.695C-5.787,7.812 -4.974,16.159 -11.198,16.126C-17.894,16.09 -16.746,7.641 -16.709,4.284L-16.709,-17.271L-23.351,-17.271L-23.351,5.933C-23.351,5.933 -23.678,13.227 -21.153,17.381C-20.307,18.775 -17.335,22.258 -10.964,21.877C-6.772,21.625 1.596,18.971 0,4.987" style="fill:rgb(0,83,86);fill-rule:nonzero;"/>
            </g>
        </g>
    </g>
</svg>
