<?xml version="1.0" encoding="UTF-8" standalone="no"?>
<!DOCTYPE svg PUBLIC "-//W3C//DTD SVG 1.1//EN" "http://www.w3.org/Graphics/SVG/1.1/DTD/svg11.dtd">
<svg width="100%" height="100%" viewBox="0 0 668 340" version="1.1" xmlns="http://www.w3.org/2000/svg" xmlns:xlink="http://www.w3.org/1999/xlink" xml:space="preserve" xmlns:serif="http://www.serif.com/" style="fill-rule:evenodd;clip-rule:evenodd;stroke-linejoin:round;stroke-miterlimit:2;">
    <g transform="matrix(3.125,0,0,3.125,-423.508,-13124.7)">
        <g transform="matrix(1.73601,0,0,1.73601,-1258.49,3921.27)">
            <g transform="matrix(1,0,0,1,851.375,172.577)">
                <path d="M0,7.341L-0.838,4.405C-1.62,1.113 1.527,0.107 1.993,0L1.999,0.022L2.924,3.183C3.748,6.333 0,7.341 0,7.341" style="fill:white;fill-rule:nonzero;"/>
            </g>
            <g transform="matrix(-0.274932,-0.961464,-0.961464,0.274932,853.082,181.524)">
                <path d="M-1.867,-2.691L1.272,-2.691C1.044,-2.086 1.335,1.227 -2.546,1.266L-5.199,1.301C-5.199,1.301 -5.005,-2.575 -1.867,-2.691" style="fill:white;fill-rule:nonzero;"/>
            </g>
            <g transform="matrix(1,0,0,1,857.936,177.331)">
                <path d="M0,-7.203C0,-7.203 -3.952,-5.255 -1.278,0C-1.278,0 3.065,-2.02 0,-7.203" style="fill:white;fill-rule:nonzero;"/>
            </g>
            <g transform="matrix(1,0,0,1,858.412,176.926)">
                <path d="M0,7.007C0.286,6.857 4.237,4.964 1.687,0C1.687,0 -2.331,1.569 0,7.007" style="fill:white;fill-rule:nonzero;"/>
            </g>
            <g transform="matrix(1,0,0,1,844.599,175.109)">
                <path d="M0,8.245C1.547,7.593 2.877,7.16 5.231,5.851C4.653,4.029 3.953,2.025 3.152,0C1.716,0.734 -0.555,1.683 -2.177,2.37C-2.146,2.451 -2.114,2.531 -2.081,2.617C-1.351,4.483 -0.638,6.38 0,8.245" style="fill:white;fill-rule:nonzero;"/>
            </g>
            <g transform="matrix(-0.901318,-0.433158,-0.433158,0.901318,844.905,188.744)">
                <path d="M-1.965,-8.199C-0.706,-6.45 0.112,-5.615 1.72,-3.807C0.363,-2.389 -0.892,-0.976 -1.965,0.401C-3.07,-0.839 -4.684,-2.622 -5.606,-3.835C-4.398,-5.385 -3.711,-6.258 -1.965,-8.199" style="fill:white;fill-rule:nonzero;"/>
            </g>
            <g transform="matrix(1,0,0,1,844.231,194.969)">
                <path d="M0,3.02C0.157,2.965 0.315,2.913 0.473,2.856C1.252,1.559 1.23,-0.664 0.8,-3.187C-0.166,-2.797 -1.122,-2.435 -2.133,-2.078C-4.79,-1.142 -7.438,-0.389 -10.032,0.187C-16.194,1.555 -21.944,1.881 -26.248,1.101C-19.076,4.94 -10.032,6.207 0,3.02" style="fill:white;fill-rule:nonzero;"/>
            </g>
            <g transform="matrix(1,0,0,1,840.786,190.834)">
                <path d="M0,-12.649C-1.361,-12.08 -2.766,-11.532 -4.222,-11.024C-4.345,-10.981 -5.68,-10.528 -5.881,-10.461C-14.876,-7.484 -21.421,-6.654 -26.145,-6.864C-26.727,-6.89 -27.283,-6.931 -27.811,-6.986C-30.587,-7.277 -32.63,-7.946 -34.114,-8.691C-34.557,-8.914 -34.949,-9.142 -35.297,-9.37C-36.909,-10.427 -37.546,-11.456 -37.662,-11.659C-37.636,-11.594 -37.606,-11.529 -37.574,-11.464C-36.622,-8.98 -35.329,-6.589 -33.737,-4.372C-29.459,0 -16.056,-0.338 -1.807,-5.361C-0.45,-5.84 0.864,-6.349 2.136,-6.88C1.354,-9.185 0.024,-12.586 0,-12.649" style="fill:white;fill-rule:nonzero;"/>
            </g>
            <g transform="matrix(1,0,0,1,815.16,187.3)">
                <path d="M0,7.063C5.954,9.234 15.941,8.17 26.476,4.454C27.553,4.075 28.607,3.671 29.636,3.249C29.259,1.468 28.723,-0.406 28.152,-2.171C26.909,-1.659 25.631,-1.168 24.314,-0.704C21.17,0.405 18.068,1.29 15.09,1.951C6.108,3.945 -1.294,4.124 -5.732,2.097C-4.044,3.948 -2.124,5.623 0,7.063" style="fill:white;fill-rule:nonzero;"/>
            </g>
            <g transform="matrix(-0.782274,0.622935,0.622935,0.782274,853.229,192.896)">
                <path d="M4.03,-5.331C5.172,-3.228 6.414,-1.544 7.772,-0.539C6.513,-0.167 5.415,0.09 4.03,0.424C1.617,1.054 0.208,-0.67 -1.337,-3.816C0.331,-4.229 2.26,-4.825 4.03,-5.331" style="fill:white;fill-rule:nonzero;"/>
            </g>
            <g transform="matrix(-0.926351,-0.376662,-0.376662,0.926351,853.348,193.222)">
                <path d="M-1.142,-7.82C-1.142,-7.82 1.76,-5.499 0.402,-3.047C0.402,-3.047 -0.848,-0.641 -1.142,0.381C-1.142,0.381 -4.41,-2.149 -3.181,-4.654C-3.181,-4.654 -2.296,-6.608 -1.142,-7.82" style="fill:white;fill-rule:nonzero;"/>
            </g>
            <g transform="matrix(1,0,0,1,862.84,174.263)">
                <path d="M0,-6.388C0,-6.388 -3.655,-5.446 -1.25,0C-1.25,0 2.877,-1.693 0,-6.388" style="fill:white;fill-rule:nonzero;"/>
            </g>
            <g transform="matrix(1,0,0,1,882.401,220.488)">
                <path d="M0,-23.065C0,-23.065 2.323,-24.29 5.949,-23.778C9.085,-23.336 12.984,-21.583 12.743,-15.572L12.741,1.225L5.999,1.224C5.999,1.224 6.026,-7.91 6.048,-12.071C6.069,-16.425 5.639,-18.3 2.41,-18.432C2.41,-18.432 -1.324,-18.821 -2.741,-15.32L0,-23.065Z" style="fill:white;fill-rule:nonzero;"/>
            </g>
            <g transform="matrix(1,0,0,1,856.005,197.372)">
                <path d="M0,24.341L-9.194,0.001L-1.778,0.001L3.576,17.57L8.571,0L15.584,0L6.938,24.341L0,24.341Z" style="fill:white;fill-rule:nonzero;"/>
            </g>
            <g transform="matrix(1,0,0,1,872.77,221.712)">
                <rect x="0" y="-38.414" width="6.957" height="38.414" style="fill:white;"/>
            </g>
            <g transform="matrix(1,0,0,1,921.027,200.538)">
                <path d="M0,4.986C-0.6,-0.266 -5.362,-6.533 -13.926,-3.175L-16.889,4.795C-16.723,4.338 -15.535,1.153 -11.175,1.152C-7.31,1.151 -6.03,4.299 -5.863,6.693C-5.785,7.81 -4.972,16.154 -11.195,16.121C-17.889,16.086 -16.742,7.638 -16.705,4.283L-16.704,-17.267L-23.345,-17.267L-23.345,5.931C-23.345,5.931 -23.673,13.223 -21.148,17.377C-20.301,18.77 -17.331,22.253 -10.961,21.871C-6.77,21.619 1.595,18.966 0,4.986" style="fill:white;fill-rule:nonzero;"/>
            </g>
            <g transform="matrix(1,0,0,1,834.016,178.266)">
                <path d="M0,1.426C-2.389,-0.459 -3.259,-1.499 -4.904,-3.403C-10.753,-1.265 -15.817,1.905 -18.509,4.829C-13.409,4.762 -9.056,4.277 0,1.426" style="fill:white;fill-rule:nonzero;"/>
            </g>
            <g transform="matrix(1,0,0,1,805.849,160.51)">
                <path d="M0,20.167C2.625,15.338 9.304,10.083 18.264,6.182C16.984,3.241 16.447,0.923 16.266,0C15.793,0.206 12.815,1.512 11.601,2.175C1.675,7.594 -5.092,14.829 -2.159,18.256C-2.156,18.26 -1.541,18.957 0,20.167" style="fill:white;fill-rule:nonzero;"/>
            </g>
            <g transform="matrix(1,0,0,1,828.227,177.131)">
                <path d="M0,-3.387C-1.591,-5.494 -2.754,-7.543 -3.586,-9.284C-9.695,-6.599 -12.664,-4.814 -16.347,-1.582C-19.043,0.784 -20.087,2.133 -21.24,4.246C-19.531,5.091 -17.546,5.648 -14.533,5.897C-11.201,2.475 -7.695,-0.029 0,-3.387" style="fill:white;fill-rule:nonzero;"/>
            </g>
            <g transform="matrix(1,0,0,1,923.366,220.268)">
                <path d="M0,-0.231C0.297,-0.231 0.462,-0.379 0.462,-0.594C0.462,-0.824 0.297,-0.956 0,-0.956L-0.544,-0.956L-0.544,-0.231L0,-0.231ZM-1.401,-1.681L0.05,-1.681C0.791,-1.681 1.318,-1.368 1.318,-0.659C1.318,-0.182 1.071,0.148 0.692,0.296L1.417,1.351L0.429,1.351L-0.181,0.445L-0.544,0.445L-0.544,1.351L-1.401,1.351L-1.401,-1.681ZM2.389,-0.116L2.389,-0.132C2.389,-1.533 1.302,-2.686 -0.148,-2.686C-1.582,-2.686 -2.685,-1.516 -2.685,-0.116L-2.685,-0.099C-2.685,1.301 -1.598,2.455 -0.148,2.455C1.286,2.455 2.389,1.285 2.389,-0.116M-3.015,-0.099L-3.015,-0.116C-3.015,-1.681 -1.746,-2.999 -0.148,-2.999C1.466,-2.999 2.719,-1.697 2.719,-0.132L2.719,-0.116C2.719,1.45 1.45,2.768 -0.148,2.768C-1.763,2.768 -3.015,1.466 -3.015,-0.099" style="fill:white;fill-rule:nonzero;"/>
            </g>
        </g>
    </g>
</svg>
