<?xml version="1.0" encoding="UTF-8" standalone="no"?>
<!DOCTYPE svg PUBLIC "-//W3C//DTD SVG 1.1//EN" "http://www.w3.org/Graphics/SVG/1.1/DTD/svg11.dtd">
<svg width="100%" height="100%" viewBox="0 0 157 157" version="1.1" xmlns="http://www.w3.org/2000/svg" xmlns:xlink="http://www.w3.org/1999/xlink" xml:space="preserve" xmlns:serif="http://www.serif.com/" style="fill-rule:evenodd;clip-rule:evenodd;stroke-linejoin:round;stroke-miterlimit:2;">
    <g transform="matrix(3.125,0,0,3.125,-3139.04,-13256.2)">
        <g id="path4010" transform="matrix(0.0819746,0,0,0.0823372,1004.49,4242)">
            <path d="M341.964,607.259L341.964,368.333L378.714,368.071L415.464,367.809L417.604,351.309C423.482,305.988 425.964,286.253 425.964,284.851C425.964,283.486 421.139,283.309 383.885,283.309L341.806,283.309L342.173,248.559C342.523,215.464 342.646,213.543 344.76,208.229C347.457,201.452 352.877,194.904 357.92,192.331C366.084,188.166 373.616,187.309 402.038,187.309L428.988,187.309L428.464,110.809L413.964,109.599C390.248,107.621 351.294,107.639 339.712,109.633C295.712,117.21 266.906,145.157 257.071,189.808C254.877,199.77 253.966,217.45 253.965,250.059L253.964,283.309L180.964,283.309L180.964,368.309L253.964,368.309L253.964,486.309C253.964,603.982 253.958,604.309 251.947,604.309C250.837,604.309 245.55,603.366 240.197,602.215C199.479,593.456 156.105,573.64 122.657,548.515C16.618,468.866 -26.13,331.908 16.074,207.044C20.803,193.052 24.684,183.777 32.072,168.809C64.818,102.463 123.135,48.648 191.964,21.262C210.216,13.999 236.166,6.798 254.464,3.918C276.427,0.46 282.363,0 304.964,0C327.565,0 333.501,0.46 355.464,3.918C430.738,15.767 501.565,58.929 548.918,121.809C588.359,174.183 609.954,238.761 609.945,304.309C609.93,415.912 549.146,518.244 450.988,571.918C418.495,589.685 387.404,599.894 344.714,606.813L341.964,607.259Z" style="fill:white;fill-rule:nonzero;"/>
        </g>
    </g>
</svg>
