<?xml version="1.0" encoding="UTF-8" standalone="no"?>
<!DOCTYPE svg PUBLIC "-//W3C//DTD SVG 1.1//EN" "http://www.w3.org/Graphics/SVG/1.1/DTD/svg11.dtd">
<svg width="100%" height="100%" viewBox="0 0 157 157" version="1.1" xmlns="http://www.w3.org/2000/svg" xmlns:xlink="http://www.w3.org/1999/xlink" xml:space="preserve" xmlns:serif="http://www.serif.com/" style="fill-rule:evenodd;clip-rule:evenodd;stroke-linejoin:round;stroke-miterlimit:2;">
    <g transform="matrix(3.125,0,0,3.125,-3797.89,-13256.2)">
        <g id="path4023" transform="matrix(0.0625083,0,0,0.062518,1215.32,4242)">
            <path d="M354.422,797.935C235.442,783.631 131.264,719.542 65.727,620.333C12.733,540.112 -9.158,443.589 3.5,345.96C9.46,299.988 25.895,249.846 48.439,208.855C100.544,114.114 186.88,44.875 289.713,15.361C347.342,-1.18 409.518,-4.43 469.922,5.939C556.288,20.766 638.995,66.689 697.655,132.388C754.621,196.191 788.459,271.758 797.989,356.456C800.882,382.171 800.415,428.877 797.023,452.96C784.226,543.82 744.336,623.441 680.251,686.037C617.396,747.432 541.357,784.571 452.922,797.068C430.354,800.257 377.602,800.721 354.422,797.935ZM521.541,636.441C573.186,627.612 616.591,589.787 631.83,540.331C638.079,520.052 637.922,523.664 637.922,399.96C637.922,305.083 637.689,285.894 636.448,278.841C631.244,249.255 618.256,224.302 596.933,202.921C576.875,182.809 552.993,170.111 524.192,164.246C516.072,162.592 506.868,162.46 399.922,162.46L284.422,162.46L274.042,164.784C245.377,171.202 222.725,183.428 203.057,203.095C183.39,222.762 171.164,245.414 164.746,274.079L162.422,284.46L162.422,399.46C162.422,524.22 162.233,519.546 168.073,539.272C174.446,560.797 186.278,580.41 202.883,596.97C224.018,618.048 249.098,631.181 278.373,636.499C283.813,637.487 311.361,637.8 399.041,637.87C496.372,637.947 513.933,637.742 521.541,636.441ZM287.732,601.935C266.504,599.401 243.589,587.965 227.862,572.057C212.357,556.373 202.212,536.656 198.965,515.898C198.117,510.476 197.885,477.825 198.112,395.46L198.422,282.46L201.211,273.559C207.276,254.207 215.543,240.535 229.179,227.302C242.604,214.275 254.776,207.124 273.522,201.249L282.422,198.46L395.422,198.149C515.403,197.82 516.19,197.846 530.784,202.61C565.133,213.822 590.508,241.242 600.051,277.46L602.422,286.46L602.422,514.46L599.741,524.166C589.309,561.928 561.814,589.417 524.128,599.762L514.422,602.426L404.422,602.58C343.922,602.665 291.412,602.375 287.732,601.936L287.732,601.935ZM423.674,520.42C472.665,510.577 511.026,472.033 520.599,423.031C522.902,411.246 522.879,389.297 520.553,377.46C513.691,342.54 492.352,312.337 461.922,294.473C452.433,288.902 436.635,282.582 426.922,280.472C416.562,278.221 393.242,277.391 382.894,278.904C330.281,286.597 288.513,327.376 279.347,379.999C277.345,391.492 277.894,415.363 280.426,426.96C285.663,450.942 301.471,477.09 320.265,492.861C340.825,510.112 361.044,518.792 388.922,522.335C395.246,523.139 415.772,522.007 423.674,520.42L423.674,520.42ZM382.922,485.595C350.525,478.053 326.419,456.111 317.039,425.628C310.002,402.759 312.715,378.257 324.645,356.96C331.214,345.232 345.195,331.251 356.922,324.682C378.219,312.753 402.721,310.039 425.591,317.077C457.38,326.859 480.181,353.07 486.008,386.529C487.68,396.13 486.63,414.568 483.877,423.96C475.38,452.943 452.67,475.633 423.743,484.042C414.59,486.702 391.459,487.583 382.922,485.595ZM536.655,292.095C560.272,280.173 559.852,247.314 535.922,234.823C532.176,232.868 529.915,232.473 522.422,232.467C511.92,232.459 506.235,234.647 499.647,241.235C490.909,249.973 487.787,265.426 492.606,276.082C500.442,293.408 519.982,300.511 536.655,292.095Z" style="fill:white;fill-rule:nonzero;"/>
        </g>
    </g>
</svg>
