<?xml version="1.0" encoding="UTF-8" standalone="no"?>
<!DOCTYPE svg PUBLIC "-//W3C//DTD SVG 1.1//EN" "http://www.w3.org/Graphics/SVG/1.1/DTD/svg11.dtd">
<svg width="100%" height="100%" viewBox="0 0 157 157" version="1.1" xmlns="http://www.w3.org/2000/svg" xmlns:xlink="http://www.w3.org/1999/xlink" xml:space="preserve" xmlns:serif="http://www.serif.com/" style="fill-rule:evenodd;clip-rule:evenodd;stroke-linejoin:round;stroke-miterlimit:2;">
    <g transform="matrix(3.125,0,0,3.125,-3578.27,-13256.2)">
        <g id="path3984" transform="matrix(0.055619,0,0,0.0556129,1145.05,4242)">
            <path d="M421.031,898.864C418.831,898.642 410.082,897.768 401.589,896.922C269.737,883.794 149.34,810.494 73.719,697.31C33.59,637.247 9.608,569.234 1.318,491.984C-0.646,473.683 -0.361,421.789 1.812,401.984C16.407,268.95 87.204,151.412 198.031,76.221C259.951,34.21 328.219,9.729 407.031,1.272C422.831,-0.424 476.23,-0.424 492.031,1.272C541.381,6.567 584.984,17.688 626.897,35.669C754.919,90.591 851.723,203.592 885.565,337.617C895.821,378.235 899.055,405.583 898.972,450.984C898.923,477.604 898.541,486.051 896.698,501.228C883.139,612.886 831.941,711.377 749.037,785.287C687.299,840.327 614.987,876.006 533.031,891.864C507.908,896.725 486.496,898.666 454.531,898.98C438.306,899.139 423.231,899.087 421.031,898.864L421.031,898.864ZM323.531,496.973L323.531,356.463L236.031,356.984L235.777,497.234L235.523,637.484L323.53,637.484L323.531,496.973ZM475.748,552.158L476.03,466.831L480.217,458.407C491.482,435.746 512.034,425.028 535.64,429.505C553.508,432.893 565.292,444.696 571.732,465.655C573.978,472.966 573.984,473.18 574.29,555.234L574.597,637.484L674.611,637.484L674.289,547.734C673.974,460.032 673.917,457.732 671.773,446.935C667.849,427.179 662.489,413.364 653.248,399.186C634.238,370.023 603.062,354.492 563.53,354.492C538.408,354.492 517.258,360.47 499.302,372.645C491.014,378.264 483.283,386.183 479.408,393.022L476.03,398.984L475.76,377.734L475.491,356.484L426.584,356.484C381.602,356.484 377.651,356.619 377.354,358.162C377.176,359.085 377.146,422.31 377.287,498.662L377.544,637.484L475.466,637.484L475.748,552.158ZM295.448,319.439C317.445,313.344 330.707,296.055 330.7,273.484C330.692,254.539 320.952,238.248 304.722,230.044C298.762,227.032 286.531,224.484 278.031,224.484C246.884,224.484 224.531,244.949 224.531,273.466C224.531,295.675 238.859,314.034 260.805,319.945C268.981,322.147 286.606,321.89 295.448,319.439Z" style="fill:white;fill-rule:nonzero;"/>
        </g>
    </g>
</svg>
