<?xml version="1.0" encoding="UTF-8" standalone="no"?>
<!DOCTYPE svg PUBLIC "-//W3C//DTD SVG 1.1//EN" "http://www.w3.org/Graphics/SVG/1.1/DTD/svg11.dtd">
<svg width="100%" height="100%" viewBox="0 0 157 157" version="1.1" xmlns="http://www.w3.org/2000/svg" xmlns:xlink="http://www.w3.org/1999/xlink" xml:space="preserve" xmlns:serif="http://www.serif.com/" style="fill-rule:evenodd;clip-rule:evenodd;stroke-linejoin:round;stroke-miterlimit:2;">
    <g transform="matrix(3.125,0,0,3.125,-3358.66,-13256.2)">
        <g id="path3971" transform="matrix(0.0625882,0,0,0.0625785,1074.77,4242)">
            <path d="M371.948,798.81C318.251,794.538 270.632,781.709 223.948,758.939C110.042,703.383 28.981,596.793 6.06,472.432C1.118,445.622 0,432.148 0,399.432C0,366.717 1.118,353.243 6.06,326.432C18.065,261.295 45.918,200.803 88.247,147.932C100.598,132.506 132.521,100.583 147.948,88.232C200.819,45.902 261.31,18.05 326.448,6.044C353.142,1.125 366.723,0 399.448,0C432.173,0 445.754,1.125 472.448,6.044C536.37,17.826 596.658,45.214 647.778,85.695C661.381,96.467 664.536,99.303 681.281,115.806C737.943,171.652 775.763,241.917 791.939,321.395C797.445,348.449 798.873,364.518 798.873,399.432C798.873,435.345 797.433,450.766 791.313,480.432C762.595,619.629 661.887,733.386 527.448,778.486C484.552,792.876 451.856,798.341 405.448,798.878C389.773,799.06 374.698,799.029 371.948,798.81L371.948,798.81ZM353.948,599.978C419.357,591.047 473.773,565.098 516.503,522.459C537.376,501.631 551.929,481.085 565.042,453.932C584.265,414.128 594.477,369.532 596.147,318.101L596.759,299.27L603.853,293.648C617.892,282.524 634.208,265.177 641.627,253.487C644.913,248.308 645.484,243.771 642.698,244.974C630.94,250.054 603.145,258.432 598.053,258.432C597.533,258.432 599.891,255.913 603.294,252.833C615.513,241.776 627.552,224.755 632.51,211.527C633.646,208.497 634.157,205.742 633.674,205.258C633.191,204.775 627.328,207.019 620.338,210.362C607.037,216.725 576.53,227.432 571.702,227.432C569.839,227.432 567.927,226.484 566.372,224.789C565.039,223.335 560.56,219.613 556.42,216.518C511.416,182.875 447.414,192.967 412.371,239.231C405.94,247.721 399.143,261.14 395.775,271.994C393.136,280.499 393,281.911 392.974,301.108L392.948,321.283L390.448,320.868C344.265,313.204 310.098,302.862 278.268,286.909C247.125,271.301 225.485,255.358 199.031,228.531C191.927,221.327 185.73,215.432 185.259,215.432C183.921,215.432 178.855,223.948 176.103,230.822C168.624,249.505 168.495,277.735 175.794,298.932C182.094,317.231 188.885,328.04 202.402,341.288L211.948,350.644L207.448,349.973C198.943,348.705 186.937,345.29 179.193,341.938C171.763,338.721 171.396,338.66 170.42,340.484C169.022,343.097 170.986,358.615 174.055,369.205C178.857,385.776 190.765,405.124 203.1,416.397C213.375,425.789 225.881,433.256 239.034,437.856C243.71,439.491 245.269,440.436 244.309,441.055C243.561,441.537 234.736,441.899 224.698,441.858C203.278,441.771 204.253,440.954 210.322,453.904C220.391,475.391 235.014,490.16 257.319,501.37C268.15,506.813 287.763,513.399 293.198,513.418C295.789,513.426 297.448,513.893 297.448,514.613C297.448,515.262 295.345,517.751 292.775,520.144C283.506,528.776 247.688,543.843 221.948,549.938C203.278,554.359 189.696,555.714 169.698,555.151C158.886,554.846 151.448,555.011 151.448,555.556C151.448,557.009 162.704,563.908 176.388,570.842C208.31,587.017 240.729,596.241 281.948,600.877C298.714,602.762 337.065,602.284 353.948,599.978L353.948,599.978Z" style="fill:white;fill-rule:nonzero;"/>
        </g>
    </g>
</svg>
